%TF.GenerationSoftware,KiCad,Pcbnew,9.0.6*%
%TF.CreationDate,2026-01-05T12:13:31+01:00*%
%TF.ProjectId,velion_lightboard_pcb,76656c69-6f6e-45f6-9c69-676874626f61,rev?*%
%TF.SameCoordinates,Original*%
%TF.FileFunction,Copper,L1,Top*%
%TF.FilePolarity,Positive*%
%FSLAX46Y46*%
G04 Gerber Fmt 4.6, Leading zero omitted, Abs format (unit mm)*
G04 Created by KiCad (PCBNEW 9.0.6) date 2026-01-05 12:13:31*
%MOMM*%
%LPD*%
G01*
G04 APERTURE LIST*
%TA.AperFunction,ComponentPad*%
%ADD10C,2.500000*%
%TD*%
%TA.AperFunction,ComponentPad*%
%ADD11R,1.700000X1.700000*%
%TD*%
%TA.AperFunction,ComponentPad*%
%ADD12C,1.700000*%
%TD*%
%TA.AperFunction,ComponentPad*%
%ADD13C,1.348000*%
%TD*%
%TA.AperFunction,ViaPad*%
%ADD14C,0.600000*%
%TD*%
%TA.AperFunction,Conductor*%
%ADD15C,0.300000*%
%TD*%
%TA.AperFunction,Conductor*%
%ADD16C,3.000000*%
%TD*%
%TA.AperFunction,Conductor*%
%ADD17C,1.000000*%
%TD*%
G04 APERTURE END LIST*
D10*
%TO.P,LS2,1,1*%
%TO.N,SIG_A*%
X145500000Y-74250000D03*
%TO.P,LS2,2,2*%
%TO.N,Net-(LS2-Pad2)*%
X145500000Y-77750000D03*
%TD*%
D11*
%TO.P,J17,1,Pin_1*%
%TO.N,+5V*%
X147810000Y-140000000D03*
D12*
%TO.P,J17,2,Pin_2*%
%TO.N,TRIG_C*%
X145270000Y-140000000D03*
%TO.P,J17,3,Pin_3*%
%TO.N,ECHO_C*%
X142730000Y-140000000D03*
%TO.P,J17,4,Pin_4*%
%TO.N,GND*%
X140190000Y-140000000D03*
%TD*%
D11*
%TO.P,J12,1,Pin_1*%
%TO.N,SDA*%
X120000000Y-60810000D03*
D12*
%TO.P,J12,2,Pin_2*%
%TO.N,SCL*%
X120000000Y-58270000D03*
%TO.P,J12,3,Pin_3*%
%TO.N,+3.3V*%
X120000000Y-55730000D03*
%TO.P,J12,4,Pin_4*%
%TO.N,GND*%
X120000000Y-53190000D03*
%TD*%
D10*
%TO.P,J8,1,Pin_1*%
%TO.N,+12V*%
X84500000Y-134000000D03*
%TO.P,J8,2,Pin_2*%
%TO.N,Net-(J8-Pin_2)*%
X81000000Y-134000000D03*
%TO.P,J8,3,Pin_3*%
%TO.N,SENSE_2*%
X77500000Y-134000000D03*
%TD*%
%TO.P,J7,1,Pin_1*%
%TO.N,+12V*%
X71750000Y-134000000D03*
%TO.P,J7,2,Pin_2*%
%TO.N,Net-(J7-Pin_2)*%
X68250000Y-134000000D03*
%TO.P,J7,3,Pin_3*%
%TO.N,SENSE_1*%
X64750000Y-134000000D03*
%TD*%
%TO.P,J9,1,Pin_1*%
%TO.N,+12V*%
X110000000Y-134000000D03*
%TO.P,J9,2,Pin_2*%
%TO.N,Net-(J9-Pin_2)*%
X106500000Y-134000000D03*
%TO.P,J9,3,Pin_3*%
%TO.N,SENSE_4*%
X103000000Y-134000000D03*
%TD*%
D11*
%TO.P,J11,1,Pin_1*%
%TO.N,+5V*%
X103540000Y-140500000D03*
D12*
%TO.P,J11,2,Pin_2*%
%TO.N,TRIG_B*%
X101000000Y-140500000D03*
%TO.P,J11,3,Pin_3*%
%TO.N,ECHO_B*%
X98460000Y-140500000D03*
%TO.P,J11,4,Pin_4*%
%TO.N,GND*%
X95920000Y-140500000D03*
%TD*%
D10*
%TO.P,J15,1,Pin_1*%
%TO.N,+5V*%
X145500000Y-60750000D03*
%TO.P,J15,2,Pin_2*%
%TO.N,Net-(D1-DOUT)*%
X145500000Y-64250000D03*
%TO.P,J15,3,Pin_3*%
%TO.N,GND*%
X145500000Y-67750000D03*
%TD*%
%TO.P,J6,1,Pin_1*%
%TO.N,VBUS*%
X78237500Y-66000000D03*
%TO.P,J6,2,Pin_2*%
%TO.N,GND*%
X81737500Y-66000000D03*
%TO.P,J6,3,Pin_3*%
X85237500Y-66000000D03*
%TO.P,J6,4,Pin_4*%
%TO.N,+12V*%
X88737500Y-66000000D03*
%TD*%
D13*
%TO.P,U1,0,GPIO0*%
%TO.N,ECHO_A*%
X115620000Y-69130000D03*
%TO.P,U1,1,GPIO1*%
%TO.N,ECHO_B*%
X115620000Y-66590000D03*
%TO.P,U1,2,GPIO2*%
%TO.N,ECHO_C*%
X115620000Y-64050000D03*
%TO.P,U1,3,GPIO3*%
%TO.N,SDA*%
X115620000Y-61510000D03*
%TO.P,U1,3.3,3V3*%
%TO.N,+3.3V*%
X115620000Y-56430000D03*
%TO.P,U1,4,GPIO4*%
%TO.N,SCL*%
X115620000Y-58970000D03*
%TO.P,U1,5,GPIO5*%
%TO.N,CAN_TX*%
X100380000Y-51350000D03*
%TO.P,U1,5V,5V*%
%TO.N,+5V*%
X115620000Y-51350000D03*
%TO.P,U1,6,GPIO6*%
%TO.N,CAN_RX*%
X100380000Y-53890000D03*
%TO.P,U1,7,GPIO7*%
%TO.N,CAN_S*%
X100380000Y-56430000D03*
%TO.P,U1,8,GPIO8*%
%TO.N,RGBLED_DIN*%
X100380000Y-58970000D03*
%TO.P,U1,9,GPIO9*%
%TO.N,PIEZO_PWM_HALF_X*%
X100380000Y-61510000D03*
%TO.P,U1,10,GPIO10*%
%TO.N,PIEZO_PWM_HALF_Y*%
X100380000Y-64050000D03*
%TO.P,U1,20,GPIO20*%
%TO.N,TRIG_B*%
X100380000Y-66590000D03*
%TO.P,U1,21,GPIO21*%
%TO.N,TRIG_C*%
X100380000Y-69130000D03*
%TO.P,U1,G,GND*%
%TO.N,GND*%
X115620000Y-53890000D03*
%TD*%
D10*
%TO.P,J14,1,Pin_1*%
%TO.N,+12V*%
X122750000Y-134000000D03*
%TO.P,J14,2,Pin_2*%
%TO.N,Net-(J14-Pin_2)*%
X119250000Y-134000000D03*
%TO.P,J14,3,Pin_3*%
%TO.N,SENSE_5*%
X115750000Y-134000000D03*
%TD*%
%TO.P,LS1,1,1*%
%TO.N,SIG_C*%
X145500000Y-92750000D03*
%TO.P,LS1,2,2*%
%TO.N,Net-(LS1-Pad2)*%
X145500000Y-96250000D03*
%TD*%
%TO.P,LS3,1,1*%
%TO.N,SIG_B*%
X145500000Y-83500000D03*
%TO.P,LS3,2,2*%
%TO.N,Net-(LS3-Pad2)*%
X145500000Y-87000000D03*
%TD*%
%TO.P,J5,1,Pin_1*%
%TO.N,VBUS*%
X78237500Y-54500000D03*
%TO.P,J5,2,Pin_2*%
%TO.N,GND*%
X81737500Y-54500000D03*
%TO.P,J5,3,Pin_3*%
X85237500Y-54500000D03*
%TO.P,J5,4,Pin_4*%
%TO.N,+5V*%
X88737500Y-54500000D03*
%TD*%
D11*
%TO.P,J4,1,Pin_1*%
%TO.N,+5V*%
X59540000Y-140500000D03*
D12*
%TO.P,J4,2,Pin_2*%
%TO.N,PIEZO_PWM_HALF_Y*%
X57000000Y-140500000D03*
%TO.P,J4,3,Pin_3*%
%TO.N,ECHO_A*%
X54460000Y-140500000D03*
%TO.P,J4,4,Pin_4*%
%TO.N,GND*%
X51920000Y-140500000D03*
%TD*%
D10*
%TO.P,J2,1,Pin_1*%
%TO.N,GND*%
X53000000Y-75000000D03*
%TO.P,J2,2,Pin_2*%
%TO.N,CANL*%
X56500000Y-75000000D03*
%TO.P,J2,3,Pin_3*%
%TO.N,CANH*%
X60000000Y-75000000D03*
%TO.P,J2,4,Pin_4*%
%TO.N,VBUS*%
X63500000Y-75000000D03*
%TD*%
%TO.P,J10,1,Pin_1*%
%TO.N,+12V*%
X97250000Y-134000000D03*
%TO.P,J10,2,Pin_2*%
%TO.N,Net-(J10-Pin_2)*%
X93750000Y-134000000D03*
%TO.P,J10,3,Pin_3*%
%TO.N,SENSE_3*%
X90250000Y-134000000D03*
%TD*%
%TO.P,J1,1,Pin_1*%
%TO.N,GND*%
X53000000Y-63500000D03*
%TO.P,J1,2,Pin_2*%
%TO.N,CANL*%
X56500000Y-63500000D03*
%TO.P,J1,3,Pin_3*%
%TO.N,CANH*%
X60000000Y-63500000D03*
%TO.P,J1,4,Pin_4*%
%TO.N,VBUS*%
X63500000Y-63500000D03*
%TD*%
%TO.P,J16,1,Pin_1*%
%TO.N,+12V*%
X148250000Y-134000000D03*
%TO.P,J16,2,Pin_2*%
%TO.N,Net-(J16-Pin_2)*%
X144750000Y-134000000D03*
%TO.P,J16,3,Pin_3*%
%TO.N,SENSE_7*%
X141250000Y-134000000D03*
%TD*%
%TO.P,J13,1,Pin_1*%
%TO.N,+12V*%
X135500000Y-134000000D03*
%TO.P,J13,2,Pin_2*%
%TO.N,Net-(J13-Pin_2)*%
X132000000Y-134000000D03*
%TO.P,J13,3,Pin_3*%
%TO.N,SENSE_6*%
X128500000Y-134000000D03*
%TD*%
%TO.P,J3,1,Pin_1*%
%TO.N,+12V*%
X59000000Y-134000000D03*
%TO.P,J3,2,Pin_2*%
%TO.N,Net-(J3-Pin_2)*%
X55500000Y-134000000D03*
%TO.P,J3,3,Pin_3*%
%TO.N,SENSE_0*%
X52000000Y-134000000D03*
%TD*%
D14*
%TO.N,+3.3V*%
X133565055Y-117355602D03*
X54750000Y-110000000D03*
X54500000Y-94500000D03*
X65500000Y-94500000D03*
X65500000Y-98500000D03*
X136550000Y-97421634D03*
X134250000Y-107750000D03*
X94000000Y-95000000D03*
X94500000Y-99000000D03*
%TO.N,GND*%
X70000000Y-115000000D03*
X62939919Y-126717414D03*
X81250000Y-98000000D03*
X64500000Y-80500000D03*
X97750000Y-117000000D03*
X123000000Y-99250000D03*
X95750000Y-126750000D03*
X77500000Y-93250000D03*
X123500000Y-82750000D03*
X70500000Y-122750000D03*
X134250000Y-92250000D03*
X92250000Y-81750000D03*
X104750000Y-110000000D03*
X71500000Y-99000000D03*
X134250000Y-81000000D03*
X74550000Y-54000000D03*
X62000000Y-96250000D03*
X81250000Y-95000000D03*
X134000000Y-104500000D03*
X129250000Y-124900000D03*
X62000000Y-97750000D03*
X123500000Y-96750000D03*
X104750000Y-117000000D03*
X138500000Y-127000000D03*
X115500000Y-122500000D03*
X92750000Y-55000000D03*
X71500000Y-95750000D03*
%TO.N,+5V*%
X70500000Y-57000000D03*
%TO.N,+12V*%
X111250000Y-103000000D03*
X83750000Y-88500000D03*
X58750000Y-81000000D03*
X78500000Y-81750000D03*
X84000000Y-99250000D03*
X111250000Y-87250000D03*
X54550000Y-98334988D03*
%TO.N,VBUS*%
X100250000Y-108500000D03*
X129750000Y-88500000D03*
X100250000Y-78375000D03*
X124750000Y-76800000D03*
X79250000Y-84000000D03*
X129500000Y-108750000D03*
X100250000Y-89000000D03*
X78750000Y-88000000D03*
X85525401Y-76714549D03*
X78750000Y-104000000D03*
X85500000Y-82000000D03*
%TO.N,CANL*%
X60000000Y-57500000D03*
%TO.N,SENSE_6*%
X126000000Y-131000000D03*
X133000000Y-120500000D03*
%TO.N,SENSE_5*%
X118750000Y-121500000D03*
%TO.N,SENSE_4*%
X103000000Y-122250000D03*
%TO.N,SENSE_3*%
X90250000Y-122250000D03*
%TO.N,SENSE_2*%
X69450000Y-121963002D03*
%TO.N,SENSE_1*%
X62950000Y-121542895D03*
%TO.N,SENSE_0*%
X56750000Y-122500000D03*
X56750000Y-127000000D03*
%TO.N,SENSE_7*%
X140349000Y-121859440D03*
%TO.N,SDA*%
X128250000Y-118500000D03*
X129750000Y-69250000D03*
X136050000Y-102689078D03*
X129750000Y-61500000D03*
X137000000Y-77750000D03*
%TO.N,SCL*%
X135500000Y-104000000D03*
X128750000Y-117000000D03*
X126000000Y-68750000D03*
X136034188Y-77715811D03*
X126000000Y-60000000D03*
%TO.N,TRIG_C*%
X140250000Y-72500000D03*
%TO.N,ECHO_C*%
X138550000Y-95000000D03*
X139300000Y-73936950D03*
%TO.N,TRIG_B*%
X91000000Y-74800000D03*
%TO.N,ECHO_B*%
X97750000Y-98250000D03*
X93250000Y-74800000D03*
%TO.N,PIEZO_PWM_HALF_Y*%
X93950000Y-102500000D03*
X67864101Y-101885899D03*
X87750000Y-105000000D03*
X89750000Y-74800000D03*
%TO.N,ECHO_A*%
X67000000Y-97000000D03*
X85750000Y-75500000D03*
X86250000Y-148750000D03*
%TO.N,Net-(LS2-Pad2)*%
X79964392Y-83025559D03*
X80000000Y-108000000D03*
%TO.N,Net-(LS3-Pad2)*%
X106320137Y-104946478D03*
X106250000Y-81750000D03*
%TO.N,MOSFET_GATE_5*%
X125696709Y-115449775D03*
X119750000Y-131750000D03*
%TO.N,MOSFET_GATE_4*%
X109194044Y-114950002D03*
X107250000Y-132000000D03*
%TO.N,MOSFET_GATE_3*%
X94250000Y-114450001D03*
X94250000Y-132000000D03*
%TO.N,MOSFET_GATE_2*%
X81922919Y-114327081D03*
X81250000Y-132000000D03*
%TO.N,MOSFET_GATE_1*%
X68465289Y-112688875D03*
X68750000Y-132000000D03*
%TO.N,MOSFET_GATE_0*%
X56250000Y-136500000D03*
X66300000Y-112450000D03*
%TO.N,MOSFET_GATE_7*%
X143000000Y-118000000D03*
X142751009Y-132259040D03*
%TO.N,MOSFET_GATE_6*%
X135045772Y-117450000D03*
X132250000Y-132000000D03*
%TO.N,PIEZO_PWM_HALF_X*%
X88000000Y-77500000D03*
X88000000Y-82000000D03*
X116436950Y-79126099D03*
X118250000Y-84750000D03*
X88250000Y-73390000D03*
%TO.N,EN_PIEZO_A*%
X61000000Y-103500000D03*
X145500000Y-109000000D03*
X61000000Y-87500000D03*
X60936950Y-111950000D03*
X142000000Y-103250000D03*
%TO.N,EN_PIEZO_B*%
X88969521Y-112526000D03*
X88750000Y-87750000D03*
X142000000Y-110250000D03*
X89000000Y-104250000D03*
X141450000Y-105000000D03*
%TO.N,EN_PIEZO_C*%
X140950000Y-111436950D03*
X119000000Y-88500000D03*
X118500000Y-104000000D03*
X140950000Y-86814577D03*
%TD*%
D15*
%TO.N,+3.3V*%
X134250000Y-115750000D02*
X133565055Y-116434945D01*
X54500000Y-97000000D02*
X54500000Y-94500000D01*
X54250000Y-109500000D02*
X54250000Y-100000000D01*
X54250000Y-100000000D02*
X55250000Y-99000000D01*
X55250000Y-97750000D02*
X54500000Y-97000000D01*
X136750000Y-97621634D02*
X136550000Y-97421634D01*
X55250000Y-99000000D02*
X55250000Y-97750000D01*
X133565055Y-116434945D02*
X133565055Y-117355602D01*
X136750000Y-105250000D02*
X136750000Y-97621634D01*
X65500000Y-94500000D02*
X65500000Y-98500000D01*
X134250000Y-107750000D02*
X134250000Y-115750000D01*
X94500000Y-99000000D02*
X94500000Y-95500000D01*
X54750000Y-110000000D02*
X54250000Y-109500000D01*
X94500000Y-95500000D02*
X94000000Y-95000000D01*
X134250000Y-107750000D02*
X136750000Y-105250000D01*
%TO.N,GND*%
X95920000Y-140500000D02*
X95649000Y-140229000D01*
D16*
X53000000Y-75000000D02*
X53000000Y-76767766D01*
D15*
X92250000Y-81750000D02*
X92250000Y-98000000D01*
X53121000Y-141701000D02*
X60741000Y-141701000D01*
D16*
X88750000Y-62750000D02*
X83250000Y-57250000D01*
D15*
X97250000Y-103000000D02*
X97750000Y-103500000D01*
D16*
X54482234Y-78250000D02*
X64500000Y-78250000D01*
D15*
X123500000Y-96750000D02*
X123500000Y-98750000D01*
D16*
X83250000Y-54500000D02*
X81737500Y-54500000D01*
X123000862Y-75650000D02*
X96999138Y-75650000D01*
D15*
X76050000Y-52500000D02*
X74550000Y-54000000D01*
X132500000Y-119250000D02*
X133000000Y-119250000D01*
X129250000Y-121500000D02*
X130750000Y-120000000D01*
X123500000Y-104750000D02*
X123500000Y-96750000D01*
D16*
X81737500Y-71370721D02*
X81737500Y-66000000D01*
D15*
X81250000Y-98000000D02*
X81250000Y-95000000D01*
X137250000Y-116750000D02*
X137250000Y-81000000D01*
X95649000Y-126851000D02*
X95750000Y-126750000D01*
X51920000Y-140500000D02*
X53121000Y-141701000D01*
D16*
X92250000Y-70900862D02*
X92250000Y-62750000D01*
D15*
X134250000Y-118000000D02*
X133000000Y-119250000D01*
X70000000Y-121000000D02*
X70500000Y-121500000D01*
X92750000Y-55000000D02*
X98345000Y-55000000D01*
X138500000Y-138310000D02*
X138500000Y-127000000D01*
X64500000Y-80500000D02*
X64500000Y-78250000D01*
D16*
X81737500Y-66000000D02*
X81737500Y-54500000D01*
D15*
X137250000Y-116750000D02*
X138500000Y-118000000D01*
X115500000Y-112750000D02*
X123500000Y-104750000D01*
X134250000Y-118000000D02*
X134250000Y-117122061D01*
X104750000Y-110000000D02*
X104750000Y-117000000D01*
X134622061Y-116750000D02*
X134250000Y-117122061D01*
D16*
X64500000Y-78250000D02*
X74858221Y-78250000D01*
X136500000Y-72750000D02*
X134500000Y-74750000D01*
D15*
X123500000Y-98750000D02*
X123000000Y-99250000D01*
D16*
X74858221Y-78250000D02*
X81737500Y-71370721D01*
D15*
X138500000Y-118000000D02*
X138500000Y-127000000D01*
D16*
X134500000Y-74750000D02*
X123900862Y-74750000D01*
X85237500Y-66000000D02*
X81737500Y-66000000D01*
D15*
X95649000Y-140229000D02*
X95649000Y-126851000D01*
D16*
X93549569Y-72200431D02*
X92250000Y-70900862D01*
X53000000Y-76767766D02*
X54482234Y-78250000D01*
D15*
X130750000Y-120000000D02*
X131750000Y-120000000D01*
X123500000Y-96750000D02*
X123500000Y-82750000D01*
X115500000Y-122500000D02*
X115500000Y-112750000D01*
X97750000Y-103500000D02*
X97750000Y-117000000D01*
X134250000Y-92250000D02*
X134250000Y-81000000D01*
X81737500Y-54500000D02*
X79737500Y-52500000D01*
X92250000Y-98000000D02*
X97250000Y-103000000D01*
X92250000Y-73500000D02*
X93549569Y-72200431D01*
X129250000Y-124900000D02*
X129250000Y-121500000D01*
X70000000Y-115000000D02*
X70000000Y-121000000D01*
X134000000Y-104500000D02*
X134000000Y-92500000D01*
D16*
X92250000Y-62750000D02*
X88750000Y-62750000D01*
X83250000Y-57250000D02*
X83250000Y-54500000D01*
X145500000Y-67750000D02*
X141500000Y-67750000D01*
D15*
X123500000Y-82750000D02*
X123500000Y-76149138D01*
X123500000Y-76149138D02*
X123000862Y-75650000D01*
X140190000Y-140000000D02*
X138500000Y-138310000D01*
X79737500Y-52500000D02*
X76050000Y-52500000D01*
X62750000Y-139692000D02*
X62750000Y-126907333D01*
X62000000Y-97750000D02*
X62000000Y-96250000D01*
X62750000Y-126907333D02*
X62939919Y-126717414D01*
X138000000Y-74250000D02*
X136500000Y-72750000D01*
D16*
X85237500Y-66000000D02*
X85237500Y-54500000D01*
X96999138Y-75650000D02*
X93549569Y-72200431D01*
D15*
X134000000Y-92500000D02*
X134250000Y-92250000D01*
X98345000Y-55000000D02*
X98547500Y-55202500D01*
X138000000Y-80250000D02*
X138000000Y-74250000D01*
D16*
X123900862Y-74750000D02*
X123000862Y-75650000D01*
D15*
X137250000Y-81000000D02*
X138000000Y-80250000D01*
X70500000Y-121500000D02*
X70500000Y-122750000D01*
D16*
X141500000Y-67750000D02*
X136500000Y-72750000D01*
D15*
X131750000Y-120000000D02*
X132500000Y-119250000D01*
X137250000Y-116750000D02*
X134622061Y-116750000D01*
X60741000Y-141701000D02*
X62750000Y-139692000D01*
X115620000Y-53890000D02*
X114307500Y-55202500D01*
X114307500Y-55202500D02*
X98547500Y-55202500D01*
X71500000Y-99000000D02*
X71500000Y-95750000D01*
X92250000Y-81750000D02*
X92250000Y-73500000D01*
D16*
X85237500Y-54500000D02*
X83250000Y-54500000D01*
%TO.N,+5V*%
X99725483Y-71950000D02*
X95450000Y-67674517D01*
X125000000Y-58000000D02*
X123500000Y-59500000D01*
D15*
X146649000Y-126101000D02*
X149349000Y-123401000D01*
D16*
X95450000Y-67674517D02*
X95450000Y-61212500D01*
X95450000Y-61212500D02*
X88737500Y-54500000D01*
D15*
X75500000Y-52000000D02*
X86237500Y-52000000D01*
D16*
X130000000Y-58000000D02*
X125000000Y-58000000D01*
X145500000Y-60750000D02*
X132750000Y-60750000D01*
D17*
X125000000Y-58000000D02*
X125000000Y-52750000D01*
D16*
X123500000Y-59500000D02*
X123500000Y-67000000D01*
D15*
X70500000Y-57000000D02*
X75500000Y-52000000D01*
X147810000Y-137560000D02*
X146649000Y-136399000D01*
X149349000Y-64599000D02*
X145500000Y-60750000D01*
D17*
X123600000Y-51350000D02*
X125000000Y-52750000D01*
X115620000Y-51350000D02*
X123600000Y-51350000D01*
D16*
X132750000Y-60750000D02*
X130000000Y-58000000D01*
X123500000Y-67000000D02*
X118550000Y-71950000D01*
D15*
X149349000Y-123401000D02*
X149349000Y-64599000D01*
X147810000Y-140000000D02*
X147810000Y-137560000D01*
D16*
X118550000Y-71950000D02*
X99725483Y-71950000D01*
D15*
X86237500Y-52000000D02*
X88737500Y-54500000D01*
X146649000Y-136399000D02*
X146649000Y-126101000D01*
D16*
%TO.N,+12V*%
X88548000Y-66000000D02*
X88548000Y-69728898D01*
X88548000Y-69728898D02*
X79126898Y-79150000D01*
X58750000Y-83500000D02*
X57751000Y-83500000D01*
X58836885Y-132069119D02*
X58836885Y-133836885D01*
D15*
X111250000Y-103000000D02*
X111250000Y-87250000D01*
D16*
X77316852Y-80316852D02*
X74133705Y-83500000D01*
X52001000Y-125233234D02*
X58836885Y-132069119D01*
X79126898Y-79150000D02*
X78483705Y-79150000D01*
D15*
X111250000Y-103000000D02*
X111249999Y-132750001D01*
D16*
X52001000Y-98500000D02*
X52001000Y-125233234D01*
D15*
X84000000Y-88750000D02*
X83750000Y-88500000D01*
X78500000Y-81750000D02*
X78500000Y-81500000D01*
X111249999Y-132750001D02*
X110000000Y-134000000D01*
D16*
X57751000Y-83500000D02*
X52001000Y-89250000D01*
D15*
X54550000Y-98334988D02*
X52166012Y-98334988D01*
X78500000Y-81500000D02*
X77316852Y-80316852D01*
X84000000Y-99250000D02*
X84000000Y-88750000D01*
X52166012Y-98334988D02*
X52001000Y-98500000D01*
D16*
X52001000Y-89250000D02*
X52001000Y-98500000D01*
X74133705Y-83500000D02*
X58750000Y-83500000D01*
D15*
X58750000Y-81000000D02*
X58750000Y-83500000D01*
D16*
X78483705Y-79150000D02*
X77316852Y-80316852D01*
D15*
%TO.N,VBUS*%
X100250000Y-89000000D02*
X100250000Y-108500000D01*
X129500000Y-108750000D02*
X129750000Y-108500000D01*
X85373901Y-76626099D02*
X85436951Y-76626099D01*
X78750000Y-104000000D02*
X78750000Y-88000000D01*
X85525401Y-81974599D02*
X85500000Y-82000000D01*
X129750000Y-88500000D02*
X129750000Y-81800000D01*
X85525401Y-76714549D02*
X85525401Y-81974599D01*
X129750000Y-81800000D02*
X124750000Y-76800000D01*
X129750000Y-108500000D02*
X129750000Y-88500000D01*
X100250000Y-78375000D02*
X100250000Y-89000000D01*
X85436951Y-76626099D02*
X85525401Y-76714549D01*
X78750000Y-88000000D02*
X78750000Y-84500000D01*
X79250000Y-84000000D02*
X78750000Y-84500000D01*
%TO.N,CANL*%
X60000000Y-57500000D02*
X58500000Y-57500000D01*
X56500000Y-59500000D02*
X56500000Y-63500000D01*
X58500000Y-57500000D02*
X56500000Y-59500000D01*
%TO.N,SENSE_6*%
X133000000Y-124000000D02*
X126000000Y-131000000D01*
X133000000Y-120500000D02*
X133000000Y-124000000D01*
%TO.N,SENSE_5*%
X118750000Y-131000000D02*
X115750000Y-134000000D01*
X118750000Y-121500000D02*
X118750000Y-131000000D01*
%TO.N,SENSE_4*%
X103000000Y-134000000D02*
X103000000Y-122250000D01*
%TO.N,SENSE_3*%
X90250000Y-122250000D02*
X90250000Y-134000000D01*
%TO.N,SENSE_2*%
X77500000Y-134000000D02*
X69450000Y-125950000D01*
X69450000Y-125950000D02*
X69450000Y-121963002D01*
%TO.N,SENSE_1*%
X64750000Y-134000000D02*
X64750000Y-123342895D01*
X64750000Y-123342895D02*
X62950000Y-121542895D01*
%TO.N,SENSE_0*%
X56750000Y-127000000D02*
X56750000Y-122500000D01*
%TO.N,SENSE_7*%
X141250000Y-122760440D02*
X140349000Y-121859440D01*
X141250000Y-134000000D02*
X141250000Y-122760440D01*
%TO.N,SDA*%
X128250000Y-118500000D02*
X128750000Y-118500000D01*
X136250000Y-102889078D02*
X136050000Y-102689078D01*
X135850000Y-102489078D02*
X136050000Y-102689078D01*
X137000000Y-77750000D02*
X136250000Y-78500000D01*
X136250000Y-104750000D02*
X136250000Y-102889078D01*
X136250000Y-78500000D02*
X136250000Y-96731684D01*
X135850000Y-97131684D02*
X135850000Y-102489078D01*
X129750000Y-61500000D02*
X129750000Y-69250000D01*
X129500000Y-117750000D02*
X129500000Y-111500000D01*
X136250000Y-96731684D02*
X135850000Y-97131684D01*
X128750000Y-118500000D02*
X129500000Y-117750000D01*
X129500000Y-111500000D02*
X136250000Y-104750000D01*
%TO.N,SCL*%
X135500000Y-78250000D02*
X136034188Y-77715811D01*
X126000000Y-68750000D02*
X126000000Y-60000000D01*
X135350000Y-96924577D02*
X135500000Y-96774578D01*
X128750000Y-110750000D02*
X135500000Y-104000000D01*
X135500000Y-104000000D02*
X135350000Y-103850000D01*
X128750000Y-117000000D02*
X128750000Y-110750000D01*
X135350000Y-103850000D02*
X135350000Y-96924577D01*
X135500000Y-96774578D02*
X135500000Y-78250000D01*
%TO.N,TRIG_C*%
X143149000Y-137879000D02*
X143149000Y-132851000D01*
X145270000Y-140000000D02*
X143149000Y-137879000D01*
X146149000Y-119399000D02*
X140250000Y-113500000D01*
X143149000Y-132851000D02*
X146149000Y-129851000D01*
X146149000Y-129851000D02*
X146149000Y-119399000D01*
X140250000Y-113500000D02*
X140250000Y-72500000D01*
%TO.N,ECHO_C*%
X138550000Y-112507106D02*
X138550000Y-95000000D01*
X142730000Y-140000000D02*
X139250000Y-136520000D01*
X139250000Y-136520000D02*
X139250000Y-113207106D01*
X139250000Y-113207106D02*
X138550000Y-112507106D01*
X138748000Y-94945532D02*
X139300000Y-94393532D01*
X139300000Y-94393532D02*
X139300000Y-73936950D01*
%TO.N,TRIG_B*%
X97050000Y-117289950D02*
X97050000Y-104550000D01*
X97121000Y-136393156D02*
X98851000Y-134663156D01*
X97913156Y-132399000D02*
X97913156Y-118153106D01*
X99500000Y-142000000D02*
X98250000Y-142000000D01*
X98851000Y-133336844D02*
X97913156Y-132399000D01*
X98851000Y-134663156D02*
X98851000Y-133336844D01*
X97121000Y-140871000D02*
X97121000Y-136393156D01*
X91000000Y-98500000D02*
X91000000Y-74800000D01*
X101000000Y-140500000D02*
X99500000Y-142000000D01*
X97913156Y-118153106D02*
X97050000Y-117289950D01*
X97050000Y-104550000D02*
X91000000Y-98500000D01*
X98250000Y-142000000D02*
X97121000Y-140871000D01*
%TO.N,ECHO_B*%
X99351000Y-139609000D02*
X99351000Y-133129737D01*
X99310000Y-106102894D02*
X99310000Y-99810000D01*
X99351000Y-133129737D02*
X99350000Y-133128738D01*
X99350000Y-133128738D02*
X99350000Y-106142893D01*
X98460000Y-140500000D02*
X99351000Y-139609000D01*
X97750000Y-98250000D02*
X97750000Y-79300000D01*
X99310000Y-99810000D02*
X97750000Y-98250000D01*
X99350000Y-106142893D02*
X99310000Y-106102894D01*
X97750000Y-79300000D02*
X93250000Y-74800000D01*
%TO.N,PIEZO_PWM_HALF_Y*%
X67500000Y-114250000D02*
X67500000Y-102250000D01*
X57000000Y-140500000D02*
X60000000Y-137500000D01*
X89750000Y-102500000D02*
X89750000Y-74800000D01*
X87800000Y-104950000D02*
X87750000Y-105000000D01*
X60000000Y-137500000D02*
X60914212Y-137500000D01*
X67500000Y-102250000D02*
X67864101Y-101885899D01*
X89750000Y-104489950D02*
X89289950Y-104950000D01*
X89750000Y-102500000D02*
X89750000Y-104489950D01*
X62250000Y-136164212D02*
X62250000Y-119500000D01*
X89750000Y-102500000D02*
X93950000Y-102500000D01*
X62250000Y-119500000D02*
X67500000Y-114250000D01*
X60914212Y-137500000D02*
X62250000Y-136164212D01*
X89289950Y-104950000D02*
X87800000Y-104950000D01*
%TO.N,ECHO_A*%
X67000000Y-97000000D02*
X72000000Y-102000000D01*
X79399000Y-133634844D02*
X79399000Y-135899000D01*
X84750000Y-76500000D02*
X84750000Y-113500000D01*
X79399000Y-135899000D02*
X82250000Y-138750000D01*
X86250000Y-132250000D02*
X86250000Y-138750000D01*
X84750000Y-130750000D02*
X86250000Y-132250000D01*
X84750000Y-113500000D02*
X84750000Y-130750000D01*
X72000000Y-126750000D02*
X72514156Y-126750000D01*
X85750000Y-75500000D02*
X84750000Y-76500000D01*
X86250000Y-138750000D02*
X86250000Y-148750000D01*
X72514156Y-126750000D02*
X79399000Y-133634844D01*
X82250000Y-138750000D02*
X86250000Y-138750000D01*
X72000000Y-102000000D02*
X72000000Y-126750000D01*
%TO.N,Net-(LS2-Pad2)*%
X80000000Y-108000000D02*
X80000000Y-83061167D01*
X80000000Y-83061167D02*
X79964392Y-83025559D01*
%TO.N,Net-(LS3-Pad2)*%
X106250000Y-81750000D02*
X106250000Y-104876341D01*
X106250000Y-104876341D02*
X106320137Y-104946478D01*
%TO.N,MOSFET_GATE_5*%
X119750000Y-131750000D02*
X125750000Y-125750000D01*
X125750000Y-115503066D02*
X125696709Y-115449775D01*
X125750000Y-125750000D02*
X125750000Y-115503066D01*
%TO.N,MOSFET_GATE_4*%
X109250000Y-115005958D02*
X109194044Y-114950002D01*
X109250000Y-130000000D02*
X109250000Y-115005958D01*
X107250000Y-132000000D02*
X109250000Y-130000000D01*
%TO.N,MOSFET_GATE_3*%
X94250000Y-132000000D02*
X94250000Y-114450001D01*
%TO.N,MOSFET_GATE_2*%
X82500000Y-114904162D02*
X82500000Y-130750000D01*
X81922919Y-114327081D02*
X82500000Y-114904162D01*
X82500000Y-130750000D02*
X81250000Y-132000000D01*
%TO.N,MOSFET_GATE_1*%
X68750000Y-132000000D02*
X68750000Y-112799044D01*
X68639831Y-112688875D02*
X68465289Y-112688875D01*
X68750000Y-112799044D02*
X68639831Y-112688875D01*
%TO.N,MOSFET_GATE_0*%
X61250000Y-117250000D02*
X66050000Y-112450000D01*
X56250000Y-136500000D02*
X60500000Y-136500000D01*
X61250000Y-135750000D02*
X61250000Y-117250000D01*
X66050000Y-112450000D02*
X66300000Y-112450000D01*
X60500000Y-136500000D02*
X61250000Y-135750000D01*
%TO.N,MOSFET_GATE_7*%
X142751009Y-132259040D02*
X142751009Y-118248991D01*
X142751009Y-118248991D02*
X143000000Y-118000000D01*
%TO.N,MOSFET_GATE_6*%
X132250000Y-132000000D02*
X135250000Y-129000000D01*
X135250000Y-129000000D02*
X135250000Y-117654228D01*
X135250000Y-117654228D02*
X135045772Y-117450000D01*
%TO.N,PIEZO_PWM_HALF_X*%
X88000000Y-82000000D02*
X88000000Y-77500000D01*
X88000000Y-77500000D02*
X88000000Y-73640000D01*
X118250000Y-84750000D02*
X118250000Y-80750000D01*
X116626099Y-79126099D02*
X116436950Y-79126099D01*
X118250000Y-80750000D02*
X116626099Y-79126099D01*
X88000000Y-73640000D02*
X88250000Y-73390000D01*
%TO.N,EN_PIEZO_A*%
X142000000Y-108000000D02*
X143000000Y-109000000D01*
X142000000Y-103250000D02*
X142000000Y-104560050D01*
X61000000Y-103500000D02*
X61000000Y-87500000D01*
X61000000Y-111886950D02*
X60936950Y-111950000D01*
X61000000Y-103500000D02*
X61000000Y-111886950D01*
X143000000Y-109000000D02*
X145500000Y-109000000D01*
X142150000Y-104710050D02*
X142150000Y-105289950D01*
X142000000Y-104560050D02*
X142150000Y-104710050D01*
X142000000Y-105439950D02*
X142000000Y-108000000D01*
X142150000Y-105289950D02*
X142000000Y-105439950D01*
%TO.N,EN_PIEZO_B*%
X88969521Y-112526000D02*
X88969521Y-107969521D01*
X87500000Y-104250000D02*
X89000000Y-104250000D01*
X87000000Y-104750000D02*
X87500000Y-104250000D01*
X141250000Y-109500000D02*
X141250000Y-105000000D01*
X141250000Y-105000000D02*
X141450000Y-105000000D01*
X88969521Y-107969521D02*
X87000000Y-106000000D01*
X88750000Y-87750000D02*
X89000000Y-88000000D01*
X89000000Y-88000000D02*
X89000000Y-104250000D01*
X87000000Y-106000000D02*
X87000000Y-104750000D01*
X142000000Y-110250000D02*
X141250000Y-109500000D01*
%TO.N,EN_PIEZO_C*%
X118500000Y-104000000D02*
X118500000Y-89000000D01*
X140950000Y-111436950D02*
X140750000Y-111436950D01*
X140750000Y-111436950D02*
X140750000Y-87014577D01*
X118500000Y-89000000D02*
X119000000Y-88500000D01*
X140750000Y-87014577D02*
X140950000Y-86814577D01*
%TD*%
%TA.AperFunction,Conductor*%
%TO.N,+12V*%
G36*
X58335359Y-134355258D02*
G01*
X58417437Y-134478097D01*
X58521903Y-134582563D01*
X58644742Y-134664641D01*
X58675974Y-134677578D01*
X57939362Y-135414189D01*
X57934466Y-135436073D01*
X57884768Y-135485184D01*
X57825989Y-135500000D01*
X57124000Y-135500000D01*
X57056961Y-135480315D01*
X57011206Y-135427511D01*
X57000000Y-135376000D01*
X57000000Y-134936148D01*
X57016611Y-134874151D01*
X57073344Y-134775888D01*
X57135709Y-134625323D01*
X57179549Y-134570921D01*
X57245843Y-134548856D01*
X57313543Y-134566135D01*
X57361154Y-134617272D01*
X57364831Y-134625324D01*
X57427102Y-134775659D01*
X57427106Y-134775669D01*
X57541799Y-134974324D01*
X57541805Y-134974331D01*
X57598381Y-135048064D01*
X58322421Y-134324024D01*
X58335359Y-134355258D01*
G37*
%TD.AperFunction*%
%TA.AperFunction,Conductor*%
G36*
X60401617Y-135048064D02*
G01*
X60422736Y-135046680D01*
X60433552Y-135038783D01*
X60503298Y-135034628D01*
X60564218Y-135068840D01*
X60596971Y-135130558D01*
X60599500Y-135155472D01*
X60599500Y-135376000D01*
X60579815Y-135443039D01*
X60527011Y-135488794D01*
X60475500Y-135500000D01*
X60174010Y-135500000D01*
X60106971Y-135480315D01*
X60061216Y-135427511D01*
X60058352Y-135411905D01*
X59324025Y-134677578D01*
X59355258Y-134664641D01*
X59478097Y-134582563D01*
X59582563Y-134478097D01*
X59664641Y-134355258D01*
X59677578Y-134324025D01*
X60401617Y-135048064D01*
G37*
%TD.AperFunction*%
%TA.AperFunction,Conductor*%
G36*
X88072859Y-66355258D02*
G01*
X88154937Y-66478097D01*
X88259403Y-66582563D01*
X88382242Y-66664641D01*
X88413473Y-66677577D01*
X87689434Y-67401617D01*
X87689434Y-67401618D01*
X87763166Y-67458194D01*
X87961830Y-67572893D01*
X87961840Y-67572897D01*
X88173769Y-67660681D01*
X88395362Y-67720057D01*
X88622789Y-67749998D01*
X88622806Y-67750000D01*
X88852194Y-67750000D01*
X88852210Y-67749998D01*
X89079637Y-67720057D01*
X89301230Y-67660681D01*
X89513159Y-67572897D01*
X89513168Y-67572893D01*
X89711834Y-67458193D01*
X89843513Y-67357152D01*
X89908682Y-67331958D01*
X89977127Y-67345996D01*
X90027117Y-67394810D01*
X90043000Y-67455528D01*
X90043000Y-69818760D01*
X90041939Y-69834946D01*
X90018481Y-70013118D01*
X90015322Y-70029007D01*
X90014362Y-70032590D01*
X90014356Y-70032613D01*
X90003803Y-70081593D01*
X90002807Y-70087664D01*
X89997812Y-70128412D01*
X89996171Y-70148527D01*
X89994500Y-70189588D01*
X89994500Y-73881356D01*
X89974815Y-73948395D01*
X89922011Y-73994150D01*
X89852853Y-74004094D01*
X89846312Y-74002974D01*
X89828844Y-73999500D01*
X89828842Y-73999500D01*
X89671158Y-73999500D01*
X89671155Y-73999500D01*
X89516510Y-74030261D01*
X89516498Y-74030264D01*
X89370827Y-74090602D01*
X89370814Y-74090609D01*
X89239711Y-74178210D01*
X89239707Y-74178213D01*
X89128213Y-74289707D01*
X89128210Y-74289711D01*
X89040609Y-74420814D01*
X89040602Y-74420827D01*
X88980264Y-74566498D01*
X88980261Y-74566510D01*
X88949500Y-74721153D01*
X88949500Y-74878846D01*
X88980261Y-75033489D01*
X88980264Y-75033501D01*
X89040602Y-75179172D01*
X89040606Y-75179179D01*
X89078602Y-75236044D01*
X89099480Y-75302721D01*
X89099500Y-75304935D01*
X89099500Y-84370500D01*
X89079815Y-84437539D01*
X89027011Y-84483294D01*
X88975500Y-84494500D01*
X85524500Y-84494500D01*
X85457461Y-84474815D01*
X85411706Y-84422011D01*
X85400500Y-84370500D01*
X85400500Y-82924500D01*
X85420185Y-82857461D01*
X85472989Y-82811706D01*
X85524500Y-82800500D01*
X85578844Y-82800500D01*
X85578845Y-82800499D01*
X85733497Y-82769737D01*
X85879179Y-82709394D01*
X86010289Y-82621789D01*
X86121789Y-82510289D01*
X86209394Y-82379179D01*
X86269737Y-82233497D01*
X86300500Y-82078842D01*
X86300500Y-81921158D01*
X86300500Y-81921155D01*
X86300499Y-81921153D01*
X86269738Y-81766510D01*
X86269737Y-81766503D01*
X86209394Y-81620821D01*
X86196797Y-81601969D01*
X86175921Y-81535293D01*
X86175901Y-81533080D01*
X86175901Y-77421153D01*
X87199500Y-77421153D01*
X87199500Y-77578846D01*
X87230261Y-77733489D01*
X87230264Y-77733501D01*
X87290602Y-77879172D01*
X87290606Y-77879179D01*
X87328602Y-77936044D01*
X87349480Y-78002721D01*
X87349500Y-78004935D01*
X87349500Y-81495064D01*
X87329815Y-81562103D01*
X87328603Y-81563954D01*
X87290608Y-81620817D01*
X87290602Y-81620828D01*
X87230264Y-81766498D01*
X87230261Y-81766510D01*
X87199500Y-81921153D01*
X87199500Y-82078846D01*
X87230261Y-82233489D01*
X87230264Y-82233501D01*
X87290602Y-82379172D01*
X87290609Y-82379185D01*
X87378210Y-82510288D01*
X87378213Y-82510292D01*
X87489707Y-82621786D01*
X87489711Y-82621789D01*
X87620814Y-82709390D01*
X87620827Y-82709397D01*
X87766498Y-82769735D01*
X87766503Y-82769737D01*
X87878738Y-82792062D01*
X87921153Y-82800499D01*
X87921156Y-82800500D01*
X87921158Y-82800500D01*
X88078844Y-82800500D01*
X88078845Y-82800499D01*
X88233497Y-82769737D01*
X88379179Y-82709394D01*
X88510289Y-82621789D01*
X88621789Y-82510289D01*
X88709394Y-82379179D01*
X88769737Y-82233497D01*
X88800500Y-82078842D01*
X88800500Y-81921158D01*
X88800500Y-81921155D01*
X88800499Y-81921153D01*
X88769738Y-81766510D01*
X88769737Y-81766503D01*
X88709394Y-81620821D01*
X88671396Y-81563953D01*
X88650520Y-81497276D01*
X88650500Y-81495064D01*
X88650500Y-78004935D01*
X88670185Y-77937896D01*
X88671366Y-77936090D01*
X88709394Y-77879179D01*
X88769737Y-77733497D01*
X88800500Y-77578842D01*
X88800500Y-77421158D01*
X88800500Y-77421155D01*
X88800499Y-77421153D01*
X88769738Y-77266510D01*
X88769737Y-77266503D01*
X88765595Y-77256504D01*
X88709397Y-77120828D01*
X88709396Y-77120827D01*
X88709394Y-77120821D01*
X88671396Y-77063953D01*
X88650520Y-76997276D01*
X88650500Y-76995064D01*
X88650500Y-74151426D01*
X88670185Y-74084387D01*
X88705607Y-74048325D01*
X88760289Y-74011789D01*
X88871789Y-73900289D01*
X88959394Y-73769179D01*
X89019737Y-73623497D01*
X89050500Y-73468842D01*
X89050500Y-73311158D01*
X89050500Y-73311155D01*
X89050499Y-73311153D01*
X89028361Y-73199859D01*
X89019737Y-73156503D01*
X88983303Y-73068542D01*
X88959397Y-73010827D01*
X88959390Y-73010814D01*
X88871789Y-72879711D01*
X88871786Y-72879707D01*
X88760292Y-72768213D01*
X88760288Y-72768210D01*
X88629185Y-72680609D01*
X88629172Y-72680602D01*
X88483501Y-72620264D01*
X88483489Y-72620261D01*
X88328845Y-72589500D01*
X88328842Y-72589500D01*
X88171158Y-72589500D01*
X88171155Y-72589500D01*
X88016510Y-72620261D01*
X88016498Y-72620264D01*
X87870827Y-72680602D01*
X87870814Y-72680609D01*
X87739711Y-72768210D01*
X87739707Y-72768213D01*
X87628213Y-72879707D01*
X87628210Y-72879711D01*
X87540609Y-73010814D01*
X87540602Y-73010827D01*
X87480264Y-73156498D01*
X87480261Y-73156508D01*
X87459450Y-73261131D01*
X87440938Y-73305826D01*
X87427506Y-73325930D01*
X87423534Y-73331873D01*
X87374499Y-73450255D01*
X87374497Y-73450261D01*
X87349500Y-73575928D01*
X87349500Y-76995064D01*
X87329815Y-77062103D01*
X87328603Y-77063954D01*
X87290608Y-77120817D01*
X87290602Y-77120828D01*
X87230264Y-77266498D01*
X87230261Y-77266510D01*
X87199500Y-77421153D01*
X86175901Y-77421153D01*
X86175901Y-77219484D01*
X86195586Y-77152445D01*
X86196767Y-77150639D01*
X86234795Y-77093728D01*
X86238965Y-77083662D01*
X86250081Y-77056823D01*
X86295138Y-76948046D01*
X86325901Y-76793391D01*
X86325901Y-76635707D01*
X86325901Y-76635704D01*
X86325900Y-76635702D01*
X86311421Y-76562913D01*
X86295138Y-76481052D01*
X86288212Y-76464330D01*
X86234798Y-76335376D01*
X86234794Y-76335369D01*
X86225336Y-76321214D01*
X86212892Y-76302590D01*
X86192015Y-76235914D01*
X86210499Y-76168534D01*
X86247104Y-76130598D01*
X86260289Y-76121789D01*
X86371789Y-76010289D01*
X86459394Y-75879179D01*
X86519737Y-75733497D01*
X86550500Y-75578842D01*
X86550500Y-75421158D01*
X86550500Y-75421155D01*
X86550499Y-75421153D01*
X86533079Y-75333579D01*
X86519737Y-75266503D01*
X86515595Y-75256504D01*
X86459397Y-75120827D01*
X86459390Y-75120814D01*
X86371789Y-74989711D01*
X86371786Y-74989707D01*
X86260292Y-74878213D01*
X86260288Y-74878210D01*
X86129185Y-74790609D01*
X86129172Y-74790602D01*
X85983501Y-74730264D01*
X85983489Y-74730261D01*
X85828845Y-74699500D01*
X85828842Y-74699500D01*
X85671158Y-74699500D01*
X85671155Y-74699500D01*
X85516510Y-74730261D01*
X85516498Y-74730264D01*
X85370827Y-74790602D01*
X85370814Y-74790609D01*
X85239711Y-74878210D01*
X85239707Y-74878213D01*
X85128213Y-74989707D01*
X85128210Y-74989711D01*
X85040609Y-75120814D01*
X85040602Y-75120827D01*
X84980264Y-75266498D01*
X84980261Y-75266508D01*
X84966920Y-75333579D01*
X84934535Y-75395490D01*
X84932984Y-75397068D01*
X84244725Y-76085328D01*
X84244724Y-76085329D01*
X84180495Y-76181457D01*
X84180493Y-76181459D01*
X84173537Y-76191868D01*
X84173534Y-76191874D01*
X84124499Y-76310255D01*
X84124497Y-76310261D01*
X84099500Y-76435928D01*
X84099500Y-84370500D01*
X84079815Y-84437539D01*
X84027011Y-84483294D01*
X83975500Y-84494500D01*
X80774500Y-84494500D01*
X80707461Y-84474815D01*
X80661706Y-84422011D01*
X80650500Y-84370500D01*
X80650500Y-83477202D01*
X80670185Y-83410163D01*
X80671403Y-83408304D01*
X80673786Y-83404738D01*
X80734129Y-83259056D01*
X80764892Y-83104401D01*
X80764892Y-82946717D01*
X80764892Y-82946714D01*
X80764891Y-82946712D01*
X80734130Y-82792069D01*
X80734129Y-82792062D01*
X80724881Y-82769735D01*
X80673789Y-82646386D01*
X80673782Y-82646373D01*
X80586181Y-82515270D01*
X80586178Y-82515266D01*
X80474684Y-82403772D01*
X80474680Y-82403769D01*
X80343577Y-82316168D01*
X80343564Y-82316161D01*
X80197893Y-82255823D01*
X80197881Y-82255820D01*
X80043237Y-82225059D01*
X80043234Y-82225059D01*
X79885550Y-82225059D01*
X79885547Y-82225059D01*
X79730902Y-82255820D01*
X79730890Y-82255823D01*
X79585219Y-82316161D01*
X79585206Y-82316168D01*
X79454103Y-82403769D01*
X79454099Y-82403772D01*
X79342605Y-82515266D01*
X79342602Y-82515270D01*
X79255001Y-82646373D01*
X79254994Y-82646386D01*
X79194656Y-82792057D01*
X79194653Y-82792069D01*
X79163892Y-82946712D01*
X79163892Y-83099181D01*
X79144207Y-83166220D01*
X79091403Y-83211975D01*
X79064084Y-83220798D01*
X79016508Y-83230261D01*
X79016498Y-83230264D01*
X78870827Y-83290602D01*
X78870814Y-83290609D01*
X78739711Y-83378210D01*
X78739707Y-83378213D01*
X78628213Y-83489707D01*
X78628210Y-83489711D01*
X78540609Y-83620814D01*
X78540602Y-83620827D01*
X78480264Y-83766498D01*
X78480261Y-83766508D01*
X78466920Y-83833579D01*
X78434535Y-83895490D01*
X78432985Y-83897068D01*
X78244722Y-84085332D01*
X78174955Y-84189747D01*
X78173535Y-84191871D01*
X78173532Y-84191877D01*
X78124500Y-84310251D01*
X78124497Y-84310262D01*
X78107616Y-84395126D01*
X78075230Y-84457037D01*
X78014514Y-84491611D01*
X77979929Y-84494394D01*
X77979929Y-84494500D01*
X77978622Y-84494500D01*
X77977156Y-84494618D01*
X77975506Y-84494500D01*
X77975500Y-84494500D01*
X75507140Y-84494500D01*
X75507134Y-84494500D01*
X75486109Y-84494937D01*
X75475760Y-84495368D01*
X75454766Y-84496682D01*
X75314549Y-84528936D01*
X75314544Y-84528937D01*
X75249386Y-84554127D01*
X75249383Y-84554128D01*
X75249382Y-84554129D01*
X75123930Y-84624580D01*
X75123929Y-84624581D01*
X75032030Y-84695096D01*
X75032009Y-84695112D01*
X74972511Y-84740766D01*
X74959025Y-84749777D01*
X74803386Y-84839636D01*
X74788838Y-84846810D01*
X74622796Y-84915586D01*
X74607438Y-84920800D01*
X74433836Y-84967317D01*
X74417928Y-84970481D01*
X74239755Y-84993939D01*
X74223569Y-84995000D01*
X61877742Y-84995000D01*
X61842467Y-84998845D01*
X61842453Y-84998847D01*
X61831881Y-85000000D01*
X61750000Y-85000000D01*
X61749939Y-85011040D01*
X61716627Y-85018392D01*
X61702784Y-85023068D01*
X61702775Y-85023070D01*
X61612820Y-85053459D01*
X61612819Y-85053460D01*
X61612816Y-85053461D01*
X61612815Y-85053462D01*
X61600141Y-85061715D01*
X61492241Y-85131973D01*
X61439721Y-85178035D01*
X61439705Y-85178052D01*
X61346149Y-85287336D01*
X61346144Y-85287344D01*
X61287160Y-85418575D01*
X61287157Y-85418584D01*
X61268231Y-85484497D01*
X61267888Y-85485646D01*
X61248253Y-85628262D01*
X61248253Y-85628269D01*
X61253966Y-86582498D01*
X61234683Y-86649654D01*
X61182154Y-86695724D01*
X61113056Y-86706081D01*
X61105777Y-86704857D01*
X61078846Y-86699500D01*
X61078842Y-86699500D01*
X60921158Y-86699500D01*
X60921155Y-86699500D01*
X60766510Y-86730261D01*
X60766498Y-86730264D01*
X60620827Y-86790602D01*
X60620814Y-86790609D01*
X60489711Y-86878210D01*
X60489707Y-86878213D01*
X60378213Y-86989707D01*
X60378210Y-86989711D01*
X60290609Y-87120814D01*
X60290602Y-87120827D01*
X60230264Y-87266498D01*
X60230261Y-87266510D01*
X60199500Y-87421153D01*
X60199500Y-87578846D01*
X60230261Y-87733489D01*
X60230264Y-87733501D01*
X60290602Y-87879172D01*
X60290606Y-87879179D01*
X60328602Y-87936044D01*
X60349480Y-88002721D01*
X60349500Y-88004935D01*
X60349500Y-102995064D01*
X60329815Y-103062103D01*
X60328603Y-103063954D01*
X60290608Y-103120817D01*
X60290602Y-103120828D01*
X60230264Y-103266498D01*
X60230261Y-103266510D01*
X60199500Y-103421153D01*
X60199500Y-103578846D01*
X60230261Y-103733489D01*
X60230264Y-103733501D01*
X60290602Y-103879172D01*
X60290606Y-103879179D01*
X60328602Y-103936044D01*
X60349480Y-104002721D01*
X60349500Y-104004935D01*
X60349500Y-111354009D01*
X60329815Y-111421048D01*
X60318752Y-111434776D01*
X60319026Y-111435001D01*
X60315160Y-111439711D01*
X60227559Y-111570814D01*
X60227552Y-111570827D01*
X60167214Y-111716498D01*
X60167211Y-111716510D01*
X60136450Y-111871153D01*
X60136450Y-112028846D01*
X60167211Y-112183489D01*
X60167214Y-112183501D01*
X60227552Y-112329172D01*
X60227559Y-112329185D01*
X60315160Y-112460288D01*
X60315163Y-112460292D01*
X60426657Y-112571786D01*
X60426661Y-112571789D01*
X60557764Y-112659390D01*
X60557777Y-112659397D01*
X60691833Y-112714924D01*
X60703453Y-112719737D01*
X60858103Y-112750499D01*
X60858106Y-112750500D01*
X60858108Y-112750500D01*
X61015794Y-112750500D01*
X61015795Y-112750499D01*
X61170447Y-112719737D01*
X61239538Y-112691118D01*
X61309004Y-112683650D01*
X61371483Y-112714924D01*
X61407136Y-112775013D01*
X61410986Y-112804937D01*
X61426242Y-115352752D01*
X61426615Y-115369382D01*
X61426927Y-115377391D01*
X61427836Y-115393869D01*
X61452776Y-115508517D01*
X61458420Y-115534459D01*
X61472276Y-115571607D01*
X61482837Y-115599924D01*
X61482839Y-115599928D01*
X61551784Y-115726193D01*
X61557101Y-115733294D01*
X61554292Y-115735396D01*
X61561101Y-115747864D01*
X61577726Y-115774045D01*
X61578515Y-115779756D01*
X61579727Y-115781975D01*
X61582559Y-115809007D01*
X61581806Y-115947555D01*
X61561758Y-116014486D01*
X61545489Y-116034562D01*
X60744725Y-116835328D01*
X60744724Y-116835329D01*
X60679278Y-116933279D01*
X60679276Y-116933282D01*
X60673535Y-116941872D01*
X60673535Y-116941873D01*
X60624499Y-117060255D01*
X60624497Y-117060261D01*
X60599500Y-117185928D01*
X60599500Y-132844525D01*
X60579815Y-132911564D01*
X60527011Y-132957319D01*
X60457853Y-132967263D01*
X60428086Y-132953669D01*
X60401617Y-132951934D01*
X59677577Y-133675973D01*
X59664641Y-133644742D01*
X59582563Y-133521903D01*
X59478097Y-133417437D01*
X59355258Y-133335359D01*
X59324023Y-133322421D01*
X60048064Y-132598381D01*
X60048064Y-132598380D01*
X59974331Y-132541805D01*
X59974324Y-132541799D01*
X59775669Y-132427106D01*
X59775659Y-132427102D01*
X59563730Y-132339318D01*
X59342137Y-132279942D01*
X59114710Y-132250001D01*
X59114694Y-132250000D01*
X58885306Y-132250000D01*
X58885289Y-132250001D01*
X58657862Y-132279942D01*
X58436269Y-132339318D01*
X58224340Y-132427102D01*
X58224330Y-132427106D01*
X58025673Y-132541801D01*
X58025659Y-132541810D01*
X57951934Y-132598380D01*
X58675975Y-133322421D01*
X58644742Y-133335359D01*
X58521903Y-133417437D01*
X58417437Y-133521903D01*
X58335359Y-133644742D01*
X58322421Y-133675975D01*
X57598380Y-132951934D01*
X57541810Y-133025659D01*
X57541801Y-133025673D01*
X57427106Y-133224330D01*
X57427101Y-133224340D01*
X57364831Y-133374675D01*
X57320990Y-133429078D01*
X57254696Y-133451143D01*
X57186996Y-133433864D01*
X57139386Y-133382726D01*
X57135709Y-133374674D01*
X57073349Y-133224123D01*
X57073342Y-133224108D01*
X57016613Y-133125850D01*
X57000000Y-133063850D01*
X57000000Y-132750001D01*
X57000000Y-132750000D01*
X55500000Y-131000000D01*
X55499999Y-131000000D01*
X50624500Y-131000000D01*
X50557461Y-130980315D01*
X50511706Y-130927511D01*
X50500500Y-130876000D01*
X50500500Y-122421153D01*
X55949500Y-122421153D01*
X55949500Y-122578846D01*
X55980261Y-122733489D01*
X55980264Y-122733501D01*
X56040602Y-122879172D01*
X56040606Y-122879179D01*
X56078602Y-122936044D01*
X56099480Y-123002721D01*
X56099500Y-123004935D01*
X56099500Y-126495064D01*
X56079815Y-126562103D01*
X56078603Y-126563954D01*
X56040608Y-126620817D01*
X56040602Y-126620828D01*
X55980264Y-126766498D01*
X55980261Y-126766510D01*
X55949500Y-126921153D01*
X55949500Y-127078846D01*
X55980261Y-127233489D01*
X55980264Y-127233501D01*
X56040602Y-127379172D01*
X56040609Y-127379185D01*
X56128210Y-127510288D01*
X56128213Y-127510292D01*
X56239707Y-127621786D01*
X56239711Y-127621789D01*
X56370814Y-127709390D01*
X56370827Y-127709397D01*
X56446758Y-127740848D01*
X56516503Y-127769737D01*
X56671153Y-127800499D01*
X56671156Y-127800500D01*
X56671158Y-127800500D01*
X56828844Y-127800500D01*
X56828845Y-127800499D01*
X56983497Y-127769737D01*
X57129179Y-127709394D01*
X57260289Y-127621789D01*
X57371789Y-127510289D01*
X57459394Y-127379179D01*
X57460918Y-127375501D01*
X57490691Y-127303621D01*
X57519737Y-127233497D01*
X57550500Y-127078842D01*
X57550500Y-126921158D01*
X57550500Y-126921155D01*
X57550499Y-126921153D01*
X57545154Y-126894284D01*
X57519737Y-126766503D01*
X57459394Y-126620821D01*
X57421396Y-126563953D01*
X57400520Y-126497276D01*
X57400500Y-126495064D01*
X57400500Y-123004935D01*
X57420185Y-122937896D01*
X57421366Y-122936090D01*
X57459394Y-122879179D01*
X57519737Y-122733497D01*
X57550500Y-122578842D01*
X57550500Y-122421158D01*
X57550500Y-122421155D01*
X57550499Y-122421153D01*
X57544249Y-122389731D01*
X57519737Y-122266503D01*
X57516866Y-122259572D01*
X57459397Y-122120827D01*
X57459390Y-122120814D01*
X57371789Y-121989711D01*
X57371786Y-121989707D01*
X57260292Y-121878213D01*
X57260288Y-121878210D01*
X57129185Y-121790609D01*
X57129172Y-121790602D01*
X56983501Y-121730264D01*
X56983489Y-121730261D01*
X56828845Y-121699500D01*
X56828842Y-121699500D01*
X56671158Y-121699500D01*
X56671155Y-121699500D01*
X56516510Y-121730261D01*
X56516498Y-121730264D01*
X56370827Y-121790602D01*
X56370814Y-121790609D01*
X56239711Y-121878210D01*
X56239707Y-121878213D01*
X56128213Y-121989707D01*
X56128210Y-121989711D01*
X56040609Y-122120814D01*
X56040602Y-122120827D01*
X55980264Y-122266498D01*
X55980261Y-122266510D01*
X55949500Y-122421153D01*
X50500500Y-122421153D01*
X50500500Y-109564071D01*
X53599499Y-109564071D01*
X53624497Y-109689738D01*
X53624499Y-109689744D01*
X53673534Y-109808125D01*
X53744726Y-109914673D01*
X53744727Y-109914674D01*
X53932984Y-110102930D01*
X53966469Y-110164253D01*
X53966920Y-110166420D01*
X53980261Y-110233489D01*
X53980264Y-110233501D01*
X54040602Y-110379172D01*
X54040609Y-110379185D01*
X54128210Y-110510288D01*
X54128213Y-110510292D01*
X54239707Y-110621786D01*
X54239711Y-110621789D01*
X54370814Y-110709390D01*
X54370827Y-110709397D01*
X54434368Y-110735716D01*
X54516503Y-110769737D01*
X54671153Y-110800499D01*
X54671156Y-110800500D01*
X54671158Y-110800500D01*
X54828844Y-110800500D01*
X54828845Y-110800499D01*
X54983497Y-110769737D01*
X55129179Y-110709394D01*
X55260289Y-110621789D01*
X55371789Y-110510289D01*
X55459394Y-110379179D01*
X55519737Y-110233497D01*
X55550500Y-110078842D01*
X55550500Y-109921158D01*
X55550500Y-109921155D01*
X55550499Y-109921153D01*
X55545752Y-109897288D01*
X55519737Y-109766503D01*
X55519735Y-109766498D01*
X55459397Y-109620827D01*
X55459390Y-109620814D01*
X55371789Y-109489711D01*
X55371786Y-109489707D01*
X55260292Y-109378213D01*
X55260288Y-109378210D01*
X55129185Y-109290609D01*
X55129172Y-109290602D01*
X54977870Y-109227932D01*
X54978879Y-109225494D01*
X54930008Y-109193416D01*
X54901598Y-109129583D01*
X54900500Y-109113121D01*
X54900500Y-100320808D01*
X54920185Y-100253769D01*
X54936819Y-100233127D01*
X55755272Y-99414674D01*
X55755277Y-99414669D01*
X55826466Y-99308126D01*
X55862750Y-99220528D01*
X55875501Y-99189744D01*
X55895170Y-99090866D01*
X55900500Y-99064071D01*
X55900500Y-97685928D01*
X55875502Y-97560261D01*
X55875501Y-97560260D01*
X55875501Y-97560256D01*
X55826465Y-97441873D01*
X55826464Y-97441872D01*
X55826461Y-97441866D01*
X55755277Y-97335332D01*
X55728070Y-97308125D01*
X55664669Y-97244724D01*
X55474006Y-97054061D01*
X55186819Y-96766873D01*
X55153334Y-96705550D01*
X55150500Y-96679192D01*
X55150500Y-95004935D01*
X55170185Y-94937896D01*
X55171366Y-94936090D01*
X55209394Y-94879179D01*
X55269737Y-94733497D01*
X55300500Y-94578842D01*
X55300500Y-94421158D01*
X55300500Y-94421155D01*
X55300499Y-94421153D01*
X55296834Y-94402727D01*
X55269737Y-94266503D01*
X55233404Y-94178786D01*
X55209397Y-94120827D01*
X55209390Y-94120814D01*
X55121789Y-93989711D01*
X55121786Y-93989707D01*
X55010292Y-93878213D01*
X55010288Y-93878210D01*
X54879185Y-93790609D01*
X54879172Y-93790602D01*
X54733501Y-93730264D01*
X54733489Y-93730261D01*
X54578845Y-93699500D01*
X54578842Y-93699500D01*
X54421158Y-93699500D01*
X54421155Y-93699500D01*
X54266510Y-93730261D01*
X54266498Y-93730264D01*
X54120827Y-93790602D01*
X54120814Y-93790609D01*
X53989711Y-93878210D01*
X53989707Y-93878213D01*
X53878213Y-93989707D01*
X53878210Y-93989711D01*
X53790609Y-94120814D01*
X53790602Y-94120827D01*
X53730264Y-94266498D01*
X53730261Y-94266510D01*
X53699500Y-94421153D01*
X53699500Y-94578846D01*
X53730261Y-94733489D01*
X53730264Y-94733501D01*
X53790602Y-94879172D01*
X53790606Y-94879179D01*
X53828602Y-94936044D01*
X53849480Y-95002721D01*
X53849500Y-95004935D01*
X53849500Y-97064069D01*
X53849500Y-97064071D01*
X53849499Y-97064071D01*
X53866635Y-97150210D01*
X53871275Y-97173535D01*
X53874499Y-97189744D01*
X53923535Y-97308127D01*
X53994723Y-97414669D01*
X53994726Y-97414673D01*
X53994727Y-97414674D01*
X54563181Y-97983126D01*
X54596666Y-98044449D01*
X54599500Y-98070807D01*
X54599500Y-98679191D01*
X54579815Y-98746230D01*
X54563181Y-98766872D01*
X53744727Y-99585325D01*
X53744721Y-99585332D01*
X53677673Y-99685677D01*
X53677674Y-99685678D01*
X53673534Y-99691873D01*
X53624499Y-99810255D01*
X53624497Y-99810261D01*
X53599500Y-99935928D01*
X53599500Y-99935931D01*
X53599500Y-109564069D01*
X53599500Y-109564071D01*
X53599499Y-109564071D01*
X50500500Y-109564071D01*
X50500500Y-80629500D01*
X50520185Y-80562461D01*
X50572989Y-80516706D01*
X50624500Y-80505500D01*
X63583147Y-80505500D01*
X63650186Y-80525185D01*
X63695941Y-80577989D01*
X63704764Y-80605309D01*
X63730261Y-80733489D01*
X63730264Y-80733501D01*
X63790602Y-80879172D01*
X63790609Y-80879185D01*
X63878210Y-81010288D01*
X63878213Y-81010292D01*
X63989707Y-81121786D01*
X63989711Y-81121789D01*
X64120814Y-81209390D01*
X64120827Y-81209397D01*
X64266498Y-81269735D01*
X64266503Y-81269737D01*
X64421153Y-81300499D01*
X64421156Y-81300500D01*
X64421158Y-81300500D01*
X64578844Y-81300500D01*
X64578845Y-81300499D01*
X64733497Y-81269737D01*
X64879179Y-81209394D01*
X65010289Y-81121789D01*
X65121789Y-81010289D01*
X65209394Y-80879179D01*
X65269737Y-80733497D01*
X65284841Y-80657564D01*
X65295236Y-80605309D01*
X65327621Y-80543398D01*
X65388337Y-80508823D01*
X65416853Y-80505500D01*
X74753210Y-80505500D01*
X74763356Y-80504955D01*
X74807248Y-80502603D01*
X74807256Y-80502602D01*
X74807258Y-80502602D01*
X74807259Y-80502602D01*
X74814252Y-80501849D01*
X74833606Y-80499769D01*
X74833616Y-80499767D01*
X74833619Y-80499767D01*
X74843218Y-80498211D01*
X74887018Y-80491114D01*
X75021827Y-80440832D01*
X75083150Y-80407347D01*
X75198332Y-80321123D01*
X75299398Y-80220055D01*
X75354985Y-80187961D01*
X75502640Y-80148398D01*
X75685013Y-80072856D01*
X75744909Y-80048047D01*
X75744910Y-80048045D01*
X75744918Y-80048043D01*
X75767566Y-80034967D01*
X75972024Y-79916924D01*
X76136644Y-79790606D01*
X76180072Y-79757283D01*
X79132734Y-76804619D01*
X79135362Y-76802069D01*
X82957071Y-73205167D01*
X82962638Y-73199847D01*
X82965334Y-73197231D01*
X82970757Y-73191889D01*
X83821123Y-72341524D01*
X83857288Y-72301262D01*
X83873922Y-72280620D01*
X83905567Y-72236736D01*
X83965338Y-72105859D01*
X83985023Y-72038820D01*
X83985024Y-72038816D01*
X84005500Y-71896400D01*
X84005500Y-68379500D01*
X84025185Y-68312461D01*
X84077989Y-68266706D01*
X84129500Y-68255500D01*
X84305803Y-68255500D01*
X84305814Y-68255500D01*
X84389643Y-68248501D01*
X84425568Y-68242459D01*
X84430188Y-68241683D01*
X84430192Y-68241682D01*
X84430199Y-68241681D01*
X84430202Y-68241680D01*
X84430208Y-68241679D01*
X84448575Y-68236990D01*
X84511697Y-68220880D01*
X84639584Y-68154952D01*
X84696499Y-68114424D01*
X84696504Y-68114420D01*
X84780052Y-68034757D01*
X84842155Y-68002741D01*
X84865622Y-68000500D01*
X85368613Y-68000500D01*
X85368620Y-68000500D01*
X85628616Y-67966270D01*
X85881919Y-67898398D01*
X86124197Y-67798043D01*
X86351303Y-67666924D01*
X86559351Y-67507282D01*
X86559355Y-67507277D01*
X86559360Y-67507274D01*
X86744774Y-67321860D01*
X86744777Y-67321855D01*
X86744782Y-67321851D01*
X86904424Y-67113803D01*
X87024740Y-66905407D01*
X87075304Y-66857195D01*
X87143911Y-66843971D01*
X87208776Y-66869939D01*
X87239512Y-66905410D01*
X87279299Y-66974323D01*
X87279305Y-66974331D01*
X87335881Y-67048064D01*
X88059921Y-66324024D01*
X88072859Y-66355258D01*
G37*
%TD.AperFunction*%
%TD*%
%TA.AperFunction,Conductor*%
%TO.N,GND*%
G36*
X87193039Y-50520185D02*
G01*
X87238794Y-50572989D01*
X87250000Y-50624500D01*
X87250000Y-51793191D01*
X87230315Y-51860230D01*
X87177511Y-51905985D01*
X87108353Y-51915929D01*
X87044797Y-51886904D01*
X87038319Y-51880872D01*
X86652173Y-51494726D01*
X86573913Y-51442435D01*
X86545627Y-51423535D01*
X86427244Y-51374499D01*
X86427238Y-51374497D01*
X86301571Y-51349500D01*
X86301569Y-51349500D01*
X75435931Y-51349500D01*
X75435929Y-51349500D01*
X75310261Y-51374497D01*
X75310255Y-51374499D01*
X75191874Y-51423534D01*
X75085326Y-51494726D01*
X70397068Y-56182984D01*
X70335745Y-56216469D01*
X70333579Y-56216920D01*
X70266508Y-56230261D01*
X70266498Y-56230264D01*
X70120827Y-56290602D01*
X70120814Y-56290609D01*
X69989711Y-56378210D01*
X69989707Y-56378213D01*
X69878213Y-56489707D01*
X69878210Y-56489711D01*
X69790609Y-56620814D01*
X69790602Y-56620827D01*
X69730264Y-56766498D01*
X69730261Y-56766510D01*
X69699500Y-56921153D01*
X69699500Y-57078846D01*
X69730261Y-57233489D01*
X69730264Y-57233501D01*
X69790602Y-57379172D01*
X69790609Y-57379185D01*
X69878210Y-57510288D01*
X69878213Y-57510292D01*
X69989707Y-57621786D01*
X69989711Y-57621789D01*
X70120814Y-57709390D01*
X70120827Y-57709397D01*
X70218853Y-57750000D01*
X70266503Y-57769737D01*
X70421153Y-57800499D01*
X70421156Y-57800500D01*
X70421158Y-57800500D01*
X70578844Y-57800500D01*
X70578845Y-57800499D01*
X70733497Y-57769737D01*
X70879179Y-57709394D01*
X71010289Y-57621789D01*
X71121789Y-57510289D01*
X71209394Y-57379179D01*
X71269737Y-57233497D01*
X71283079Y-57166416D01*
X71315463Y-57104509D01*
X71316959Y-57102985D01*
X75733127Y-52686819D01*
X75794450Y-52653334D01*
X75820808Y-52650500D01*
X77504921Y-52650500D01*
X77571960Y-52670185D01*
X77617715Y-52722989D01*
X77627659Y-52792147D01*
X77598634Y-52855703D01*
X77552374Y-52889061D01*
X77461618Y-52926653D01*
X77461609Y-52926657D01*
X77262882Y-53041392D01*
X77080838Y-53181081D01*
X76918581Y-53343338D01*
X76778892Y-53525382D01*
X76664157Y-53724109D01*
X76664150Y-53724123D01*
X76576342Y-53936112D01*
X76516953Y-54157759D01*
X76516951Y-54157770D01*
X76487000Y-54385258D01*
X76487000Y-54614741D01*
X76500696Y-54718767D01*
X76516952Y-54842238D01*
X76516953Y-54842240D01*
X76576342Y-55063887D01*
X76664150Y-55275876D01*
X76664156Y-55275888D01*
X76778728Y-55474334D01*
X76778892Y-55474617D01*
X76918581Y-55656661D01*
X76918589Y-55656670D01*
X77080830Y-55818911D01*
X77080838Y-55818918D01*
X77080839Y-55818919D01*
X77084660Y-55821851D01*
X77262882Y-55958607D01*
X77262885Y-55958608D01*
X77262888Y-55958611D01*
X77461612Y-56073344D01*
X77461617Y-56073346D01*
X77461623Y-56073349D01*
X77552980Y-56111190D01*
X77673613Y-56161158D01*
X77895262Y-56220548D01*
X78122766Y-56250500D01*
X78122773Y-56250500D01*
X78352227Y-56250500D01*
X78352234Y-56250500D01*
X78579738Y-56220548D01*
X78801387Y-56161158D01*
X79013388Y-56073344D01*
X79212112Y-55958611D01*
X79394161Y-55818919D01*
X79394165Y-55818914D01*
X79394170Y-55818911D01*
X79556411Y-55656670D01*
X79556414Y-55656665D01*
X79556419Y-55656661D01*
X79696111Y-55474612D01*
X79810844Y-55275888D01*
X79873209Y-55125323D01*
X79917049Y-55070921D01*
X79983343Y-55048856D01*
X80051043Y-55066135D01*
X80098654Y-55117272D01*
X80102331Y-55125324D01*
X80164602Y-55275659D01*
X80164606Y-55275669D01*
X80279299Y-55474324D01*
X80279305Y-55474331D01*
X80335881Y-55548064D01*
X81059921Y-54824024D01*
X81072859Y-54855258D01*
X81154937Y-54978097D01*
X81259403Y-55082563D01*
X81382242Y-55164641D01*
X81413474Y-55177578D01*
X80689434Y-55901617D01*
X80689434Y-55901618D01*
X80763166Y-55958194D01*
X80961830Y-56072893D01*
X80961840Y-56072897D01*
X81173769Y-56160681D01*
X81395362Y-56220057D01*
X81622789Y-56249998D01*
X81622806Y-56250000D01*
X81852194Y-56250000D01*
X81852210Y-56249998D01*
X82079637Y-56220057D01*
X82301230Y-56160681D01*
X82513159Y-56072897D01*
X82513168Y-56072893D01*
X82711827Y-55958197D01*
X82711834Y-55958192D01*
X82785564Y-55901617D01*
X82061525Y-55177578D01*
X82092758Y-55164641D01*
X82215597Y-55082563D01*
X82320063Y-54978097D01*
X82402141Y-54855258D01*
X82415078Y-54824025D01*
X83139117Y-55548064D01*
X83195692Y-55474334D01*
X83195697Y-55474327D01*
X83310393Y-55275668D01*
X83310400Y-55275654D01*
X83372939Y-55124672D01*
X83416780Y-55070268D01*
X83483074Y-55048203D01*
X83550773Y-55065482D01*
X83598384Y-55116619D01*
X83602061Y-55124672D01*
X83664599Y-55275654D01*
X83664606Y-55275669D01*
X83779299Y-55474324D01*
X83779305Y-55474331D01*
X83835881Y-55548064D01*
X84559921Y-54824024D01*
X84572859Y-54855258D01*
X84654937Y-54978097D01*
X84759403Y-55082563D01*
X84882242Y-55164641D01*
X84913474Y-55177578D01*
X84189434Y-55901617D01*
X84189434Y-55901618D01*
X84263166Y-55958194D01*
X84461830Y-56072893D01*
X84461840Y-56072897D01*
X84673769Y-56160681D01*
X84895362Y-56220057D01*
X85122789Y-56249998D01*
X85122806Y-56250000D01*
X85352194Y-56250000D01*
X85352210Y-56249998D01*
X85579637Y-56220057D01*
X85801230Y-56160681D01*
X86013159Y-56072897D01*
X86013168Y-56072893D01*
X86211827Y-55958197D01*
X86211834Y-55958192D01*
X86285564Y-55901617D01*
X85561525Y-55177578D01*
X85592758Y-55164641D01*
X85715597Y-55082563D01*
X85820063Y-54978097D01*
X85902141Y-54855258D01*
X85915078Y-54824024D01*
X86639117Y-55548064D01*
X86695692Y-55474334D01*
X86695694Y-55474332D01*
X86735485Y-55405411D01*
X86786051Y-55357195D01*
X86854658Y-55343971D01*
X86919523Y-55369938D01*
X86950260Y-55405410D01*
X87070575Y-55613801D01*
X87230215Y-55821849D01*
X87230221Y-55821856D01*
X93413181Y-62004815D01*
X93446666Y-62066138D01*
X93449500Y-62092496D01*
X93449500Y-67805644D01*
X93460172Y-67886697D01*
X93460172Y-67886698D01*
X93483728Y-68065629D01*
X93525525Y-68221615D01*
X93551602Y-68318936D01*
X93651951Y-68561202D01*
X93651958Y-68561217D01*
X93723437Y-68685022D01*
X93783076Y-68788320D01*
X93846382Y-68870821D01*
X93942715Y-68996366D01*
X93942721Y-68996373D01*
X98403626Y-73457278D01*
X98403633Y-73457284D01*
X98521351Y-73547611D01*
X98521352Y-73547612D01*
X98611669Y-73616916D01*
X98611672Y-73616918D01*
X98611680Y-73616924D01*
X98693557Y-73664195D01*
X98837319Y-73747197D01*
X98838782Y-73748041D01*
X98838787Y-73748044D01*
X98959925Y-73798220D01*
X99081064Y-73848398D01*
X99334367Y-73916271D01*
X99464365Y-73933385D01*
X99594363Y-73950500D01*
X99594370Y-73950500D01*
X118681113Y-73950500D01*
X118681120Y-73950500D01*
X118811118Y-73933385D01*
X118941116Y-73916271D01*
X119194419Y-73848398D01*
X119436697Y-73748043D01*
X119437063Y-73747831D01*
X119438164Y-73747197D01*
X119552679Y-73681081D01*
X119663803Y-73616924D01*
X119754131Y-73547611D01*
X119871851Y-73457283D01*
X125007283Y-68321851D01*
X125097611Y-68204131D01*
X125127126Y-68165666D01*
X125183555Y-68124466D01*
X125253301Y-68120313D01*
X125314221Y-68154527D01*
X125346972Y-68216245D01*
X125347991Y-68226292D01*
X125348110Y-68226547D01*
X125348056Y-68226935D01*
X125349500Y-68241156D01*
X125349500Y-68245064D01*
X125342175Y-68270009D01*
X125338657Y-68295774D01*
X125331104Y-68307711D01*
X125329815Y-68312103D01*
X125328603Y-68313954D01*
X125290608Y-68370817D01*
X125290602Y-68370828D01*
X125230264Y-68516498D01*
X125230261Y-68516510D01*
X125199500Y-68671153D01*
X125199500Y-68828846D01*
X125230261Y-68983489D01*
X125230264Y-68983501D01*
X125290602Y-69129172D01*
X125290609Y-69129185D01*
X125378210Y-69260288D01*
X125378213Y-69260292D01*
X125489707Y-69371786D01*
X125489711Y-69371789D01*
X125620814Y-69459390D01*
X125620827Y-69459397D01*
X125718848Y-69499998D01*
X125766503Y-69519737D01*
X125921153Y-69550499D01*
X125921156Y-69550500D01*
X125921158Y-69550500D01*
X126078844Y-69550500D01*
X126078845Y-69550499D01*
X126233497Y-69519737D01*
X126379179Y-69459394D01*
X126510289Y-69371789D01*
X126621789Y-69260289D01*
X126709394Y-69129179D01*
X126769737Y-68983497D01*
X126800500Y-68828842D01*
X126800500Y-68671158D01*
X126800500Y-68671155D01*
X126800499Y-68671153D01*
X126778631Y-68561217D01*
X126769737Y-68516503D01*
X126709394Y-68370821D01*
X126671396Y-68313953D01*
X126650520Y-68247276D01*
X126650500Y-68245064D01*
X126650500Y-62374000D01*
X126670185Y-62306961D01*
X126722989Y-62261206D01*
X126774500Y-62250000D01*
X128975500Y-62250000D01*
X129042539Y-62269685D01*
X129088294Y-62322489D01*
X129099500Y-62374000D01*
X129099500Y-68745064D01*
X129079815Y-68812103D01*
X129078603Y-68813954D01*
X129040608Y-68870817D01*
X129040602Y-68870828D01*
X128980264Y-69016498D01*
X128980261Y-69016510D01*
X128949500Y-69171153D01*
X128949500Y-69328846D01*
X128980261Y-69483489D01*
X128980264Y-69483501D01*
X129040602Y-69629172D01*
X129040609Y-69629185D01*
X129128210Y-69760288D01*
X129128213Y-69760292D01*
X129239707Y-69871786D01*
X129239711Y-69871789D01*
X129370814Y-69959390D01*
X129370827Y-69959397D01*
X129516498Y-70019735D01*
X129516503Y-70019737D01*
X129671153Y-70050499D01*
X129671156Y-70050500D01*
X129671158Y-70050500D01*
X129828844Y-70050500D01*
X129828845Y-70050499D01*
X129983497Y-70019737D01*
X130129179Y-69959394D01*
X130260289Y-69871789D01*
X130371789Y-69760289D01*
X130459394Y-69629179D01*
X130519737Y-69483497D01*
X130550500Y-69328842D01*
X130550500Y-69171158D01*
X130550500Y-69171155D01*
X130541887Y-69127857D01*
X130541887Y-69127856D01*
X130531266Y-69074462D01*
X130519737Y-69016503D01*
X130459394Y-68870821D01*
X130421396Y-68813953D01*
X130400520Y-68747276D01*
X130400500Y-68745064D01*
X130400500Y-62374000D01*
X130420185Y-62306961D01*
X130472989Y-62261206D01*
X130524500Y-62250000D01*
X131376565Y-62250000D01*
X131398495Y-62256439D01*
X131421276Y-62258341D01*
X131439144Y-62268375D01*
X131443604Y-62269685D01*
X131452050Y-62275623D01*
X131484469Y-62300498D01*
X131484470Y-62300500D01*
X131636197Y-62416924D01*
X131860055Y-62546169D01*
X131863295Y-62548039D01*
X131863298Y-62548041D01*
X131863303Y-62548043D01*
X132105581Y-62648398D01*
X132358884Y-62716271D01*
X132488882Y-62733385D01*
X132618880Y-62750500D01*
X144224557Y-62750500D01*
X144291596Y-62770185D01*
X144337351Y-62822989D01*
X144347295Y-62892147D01*
X144318270Y-62955703D01*
X144312238Y-62962181D01*
X144181081Y-63093338D01*
X144041392Y-63275382D01*
X143926657Y-63474109D01*
X143926650Y-63474123D01*
X143838842Y-63686112D01*
X143779453Y-63907759D01*
X143779451Y-63907770D01*
X143749500Y-64135258D01*
X143749500Y-64364741D01*
X143772757Y-64541389D01*
X143779452Y-64592238D01*
X143816112Y-64729056D01*
X143838842Y-64813887D01*
X143926650Y-65025876D01*
X143926657Y-65025890D01*
X144041392Y-65224617D01*
X144181081Y-65406661D01*
X144181089Y-65406670D01*
X144343330Y-65568911D01*
X144343338Y-65568918D01*
X144525382Y-65708607D01*
X144525385Y-65708608D01*
X144525388Y-65708611D01*
X144724112Y-65823344D01*
X144724117Y-65823346D01*
X144724123Y-65823349D01*
X144874674Y-65885709D01*
X144929078Y-65929550D01*
X144951143Y-65995844D01*
X144933864Y-66063543D01*
X144882727Y-66111154D01*
X144874675Y-66114831D01*
X144724340Y-66177101D01*
X144724330Y-66177106D01*
X144525673Y-66291801D01*
X144525659Y-66291810D01*
X144451934Y-66348380D01*
X145175975Y-67072421D01*
X145144742Y-67085359D01*
X145021903Y-67167437D01*
X144917437Y-67271903D01*
X144835359Y-67394742D01*
X144822421Y-67425975D01*
X144098380Y-66701934D01*
X144041810Y-66775659D01*
X144041801Y-66775673D01*
X143927106Y-66974330D01*
X143927102Y-66974340D01*
X143839318Y-67186269D01*
X143779942Y-67407862D01*
X143750001Y-67635289D01*
X143750000Y-67635305D01*
X143750000Y-67864694D01*
X143750001Y-67864710D01*
X143779942Y-68092137D01*
X143839318Y-68313730D01*
X143927102Y-68525659D01*
X143927106Y-68525669D01*
X144041799Y-68724324D01*
X144041805Y-68724331D01*
X144098381Y-68798064D01*
X144822421Y-68074024D01*
X144835359Y-68105258D01*
X144917437Y-68228097D01*
X145021903Y-68332563D01*
X145144742Y-68414641D01*
X145175974Y-68427578D01*
X144451934Y-69151617D01*
X144451934Y-69151618D01*
X144525666Y-69208194D01*
X144724330Y-69322893D01*
X144724340Y-69322897D01*
X144936269Y-69410681D01*
X145157862Y-69470057D01*
X145385289Y-69499998D01*
X145385306Y-69500000D01*
X145614694Y-69500000D01*
X145614710Y-69499998D01*
X145842137Y-69470057D01*
X146063730Y-69410681D01*
X146275659Y-69322897D01*
X146275668Y-69322893D01*
X146474327Y-69208197D01*
X146474334Y-69208192D01*
X146548064Y-69151617D01*
X145824025Y-68427578D01*
X145855258Y-68414641D01*
X145978097Y-68332563D01*
X146082563Y-68228097D01*
X146164641Y-68105258D01*
X146177578Y-68074025D01*
X146901617Y-68798064D01*
X146958192Y-68724334D01*
X146958197Y-68724327D01*
X147072893Y-68525668D01*
X147072897Y-68525659D01*
X147160681Y-68313730D01*
X147220057Y-68092137D01*
X147249998Y-67864710D01*
X147250000Y-67864694D01*
X147250000Y-67635305D01*
X147249998Y-67635289D01*
X147220057Y-67407862D01*
X147160681Y-67186269D01*
X147072897Y-66974340D01*
X147072893Y-66974330D01*
X146958194Y-66775666D01*
X146901618Y-66701934D01*
X146901617Y-66701934D01*
X146177577Y-67425973D01*
X146164641Y-67394742D01*
X146082563Y-67271903D01*
X145978097Y-67167437D01*
X145855258Y-67085359D01*
X145824023Y-67072421D01*
X146548064Y-66348381D01*
X146548064Y-66348380D01*
X146474331Y-66291805D01*
X146474324Y-66291799D01*
X146275669Y-66177106D01*
X146275659Y-66177102D01*
X146125324Y-66114831D01*
X146070921Y-66070990D01*
X146048856Y-66004696D01*
X146066135Y-65936997D01*
X146117272Y-65889386D01*
X146125314Y-65885713D01*
X146275888Y-65823344D01*
X146474612Y-65708611D01*
X146656661Y-65568919D01*
X146656665Y-65568914D01*
X146656670Y-65568911D01*
X146818911Y-65406670D01*
X146818914Y-65406665D01*
X146818919Y-65406661D01*
X146958611Y-65224612D01*
X147073344Y-65025888D01*
X147161158Y-64813887D01*
X147220548Y-64592238D01*
X147250500Y-64364734D01*
X147250500Y-64135266D01*
X147220548Y-63907762D01*
X147161158Y-63686113D01*
X147148687Y-63656007D01*
X147141219Y-63586541D01*
X147172494Y-63524062D01*
X147232582Y-63488409D01*
X147302408Y-63490902D01*
X147350930Y-63520876D01*
X148662181Y-64832127D01*
X148695666Y-64893450D01*
X148698500Y-64919808D01*
X148698500Y-123080192D01*
X148678815Y-123147231D01*
X148662181Y-123167873D01*
X147011181Y-124818873D01*
X146949858Y-124852358D01*
X146880166Y-124847374D01*
X146824233Y-124805502D01*
X146799816Y-124740038D01*
X146799500Y-124731192D01*
X146799500Y-119334928D01*
X146774502Y-119209261D01*
X146774501Y-119209260D01*
X146774501Y-119209256D01*
X146725465Y-119090873D01*
X146668272Y-119005277D01*
X146663607Y-118998295D01*
X146654279Y-118984333D01*
X140936819Y-113266873D01*
X140903334Y-113205550D01*
X140900500Y-113179192D01*
X140900500Y-112361450D01*
X140920185Y-112294411D01*
X140972989Y-112248656D01*
X141024500Y-112237450D01*
X141028844Y-112237450D01*
X141028845Y-112237449D01*
X141183497Y-112206687D01*
X141328011Y-112146828D01*
X141329172Y-112146347D01*
X141329172Y-112146346D01*
X141329179Y-112146344D01*
X141460289Y-112058739D01*
X141571789Y-111947239D01*
X141659394Y-111816129D01*
X141719737Y-111670447D01*
X141750500Y-111515792D01*
X141750500Y-111358108D01*
X141750500Y-111358105D01*
X141750499Y-111358103D01*
X141719738Y-111203460D01*
X141719737Y-111203453D01*
X141719732Y-111203442D01*
X141717969Y-111197626D01*
X141720255Y-111196932D01*
X141713917Y-111137960D01*
X141745193Y-111075481D01*
X141805282Y-111039830D01*
X141860136Y-111038362D01*
X141903390Y-111046965D01*
X141921157Y-111050500D01*
X141921158Y-111050500D01*
X142078844Y-111050500D01*
X142078845Y-111050499D01*
X142233497Y-111019737D01*
X142379179Y-110959394D01*
X142510289Y-110871789D01*
X142621789Y-110760289D01*
X142709394Y-110629179D01*
X142769737Y-110483497D01*
X142800500Y-110328842D01*
X142800500Y-110171158D01*
X142800500Y-110171155D01*
X142800499Y-110171153D01*
X142769738Y-110016510D01*
X142769737Y-110016503D01*
X142730244Y-109921158D01*
X142709397Y-109870827D01*
X142709390Y-109870814D01*
X142670702Y-109812914D01*
X142649824Y-109746237D01*
X142668308Y-109678857D01*
X142720287Y-109632166D01*
X142789257Y-109620990D01*
X142809802Y-109625363D01*
X142810251Y-109625499D01*
X142810256Y-109625501D01*
X142810260Y-109625501D01*
X142810261Y-109625502D01*
X142935928Y-109650500D01*
X142935931Y-109650500D01*
X144995065Y-109650500D01*
X145062104Y-109670185D01*
X145063909Y-109671366D01*
X145120821Y-109709394D01*
X145120823Y-109709395D01*
X145120827Y-109709397D01*
X145258695Y-109766503D01*
X145266503Y-109769737D01*
X145421153Y-109800499D01*
X145421156Y-109800500D01*
X145421158Y-109800500D01*
X145578844Y-109800500D01*
X145578845Y-109800499D01*
X145733497Y-109769737D01*
X145879179Y-109709394D01*
X146010289Y-109621789D01*
X146121789Y-109510289D01*
X146209394Y-109379179D01*
X146269737Y-109233497D01*
X146300500Y-109078842D01*
X146300500Y-108921158D01*
X146300500Y-108921155D01*
X146300499Y-108921153D01*
X146269738Y-108766510D01*
X146269737Y-108766503D01*
X146209794Y-108621786D01*
X146209397Y-108620827D01*
X146209390Y-108620814D01*
X146121789Y-108489711D01*
X146121786Y-108489707D01*
X146010292Y-108378213D01*
X146010288Y-108378210D01*
X145879185Y-108290609D01*
X145879172Y-108290602D01*
X145733501Y-108230264D01*
X145733489Y-108230261D01*
X145578845Y-108199500D01*
X145578842Y-108199500D01*
X145421158Y-108199500D01*
X145421155Y-108199500D01*
X145266510Y-108230261D01*
X145266498Y-108230264D01*
X145120827Y-108290602D01*
X145120820Y-108290606D01*
X145091928Y-108309911D01*
X145063955Y-108328602D01*
X144997279Y-108349480D01*
X144995065Y-108349500D01*
X143320808Y-108349500D01*
X143253769Y-108329815D01*
X143233127Y-108313181D01*
X142686819Y-107766873D01*
X142653334Y-107705550D01*
X142650500Y-107679192D01*
X142650500Y-105749382D01*
X142670185Y-105682343D01*
X142671398Y-105680492D01*
X142710621Y-105621789D01*
X142726465Y-105598077D01*
X142775501Y-105479694D01*
X142775959Y-105477391D01*
X142780061Y-105456770D01*
X142800500Y-105354021D01*
X142800500Y-104645978D01*
X142775502Y-104520311D01*
X142775501Y-104520310D01*
X142775501Y-104520306D01*
X142726465Y-104401923D01*
X142719622Y-104391682D01*
X142705846Y-104371063D01*
X142705846Y-104371062D01*
X142671398Y-104319507D01*
X142650520Y-104252830D01*
X142650500Y-104250617D01*
X142650500Y-103754935D01*
X142670185Y-103687896D01*
X142671366Y-103686090D01*
X142709394Y-103629179D01*
X142769737Y-103483497D01*
X142800500Y-103328842D01*
X142800500Y-103171158D01*
X142800500Y-103171155D01*
X142800499Y-103171153D01*
X142784097Y-103088694D01*
X142769737Y-103016503D01*
X142730242Y-102921153D01*
X142709397Y-102870827D01*
X142709390Y-102870814D01*
X142621789Y-102739711D01*
X142621786Y-102739707D01*
X142510292Y-102628213D01*
X142510288Y-102628210D01*
X142379185Y-102540609D01*
X142379172Y-102540602D01*
X142233501Y-102480264D01*
X142233489Y-102480261D01*
X142078845Y-102449500D01*
X142078842Y-102449500D01*
X141921158Y-102449500D01*
X141921155Y-102449500D01*
X141766510Y-102480261D01*
X141766498Y-102480264D01*
X141620827Y-102540602D01*
X141620816Y-102540608D01*
X141593390Y-102558934D01*
X141526712Y-102579811D01*
X141459332Y-102561326D01*
X141412643Y-102509346D01*
X141400500Y-102455831D01*
X141400500Y-92635258D01*
X143749500Y-92635258D01*
X143749500Y-92864741D01*
X143774446Y-93054215D01*
X143779452Y-93092238D01*
X143779453Y-93092240D01*
X143838842Y-93313887D01*
X143926650Y-93525876D01*
X143926657Y-93525890D01*
X144041392Y-93724617D01*
X144181081Y-93906661D01*
X144181089Y-93906670D01*
X144343330Y-94068911D01*
X144343338Y-94068918D01*
X144525382Y-94208607D01*
X144525385Y-94208608D01*
X144525388Y-94208611D01*
X144724112Y-94323344D01*
X144724117Y-94323346D01*
X144724123Y-94323349D01*
X144874022Y-94385439D01*
X144928426Y-94429280D01*
X144950491Y-94495574D01*
X144933212Y-94563273D01*
X144882075Y-94610884D01*
X144874022Y-94614561D01*
X144724123Y-94676650D01*
X144724109Y-94676657D01*
X144525382Y-94791392D01*
X144343338Y-94931081D01*
X144181081Y-95093338D01*
X144041392Y-95275382D01*
X143926657Y-95474109D01*
X143926650Y-95474123D01*
X143838842Y-95686112D01*
X143779453Y-95907759D01*
X143779451Y-95907770D01*
X143749500Y-96135258D01*
X143749500Y-96364741D01*
X143771749Y-96533730D01*
X143779452Y-96592238D01*
X143838842Y-96813887D01*
X143926650Y-97025876D01*
X143926657Y-97025890D01*
X144041392Y-97224617D01*
X144181081Y-97406661D01*
X144181089Y-97406670D01*
X144343330Y-97568911D01*
X144343338Y-97568918D01*
X144525382Y-97708607D01*
X144525385Y-97708608D01*
X144525388Y-97708611D01*
X144724112Y-97823344D01*
X144724117Y-97823346D01*
X144724123Y-97823349D01*
X144815480Y-97861190D01*
X144936113Y-97911158D01*
X145157762Y-97970548D01*
X145385266Y-98000500D01*
X145385273Y-98000500D01*
X145614727Y-98000500D01*
X145614734Y-98000500D01*
X145842238Y-97970548D01*
X146063887Y-97911158D01*
X146275888Y-97823344D01*
X146474612Y-97708611D01*
X146656661Y-97568919D01*
X146656665Y-97568914D01*
X146656670Y-97568911D01*
X146818911Y-97406670D01*
X146818914Y-97406665D01*
X146818919Y-97406661D01*
X146958611Y-97224612D01*
X147073344Y-97025888D01*
X147161158Y-96813887D01*
X147220548Y-96592238D01*
X147250500Y-96364734D01*
X147250500Y-96135266D01*
X147220548Y-95907762D01*
X147161158Y-95686113D01*
X147111190Y-95565480D01*
X147073349Y-95474123D01*
X147073346Y-95474117D01*
X147073344Y-95474112D01*
X146958611Y-95275388D01*
X146958608Y-95275385D01*
X146958607Y-95275382D01*
X146818918Y-95093338D01*
X146818911Y-95093330D01*
X146656670Y-94931089D01*
X146656661Y-94931081D01*
X146474617Y-94791392D01*
X146275890Y-94676657D01*
X146275876Y-94676650D01*
X146141105Y-94620827D01*
X146125976Y-94614560D01*
X146071573Y-94570721D01*
X146049508Y-94504426D01*
X146066787Y-94436727D01*
X146117924Y-94389116D01*
X146125967Y-94385443D01*
X146275888Y-94323344D01*
X146474612Y-94208611D01*
X146656661Y-94068919D01*
X146656665Y-94068914D01*
X146656670Y-94068911D01*
X146818911Y-93906670D01*
X146818914Y-93906665D01*
X146818919Y-93906661D01*
X146958611Y-93724612D01*
X147073344Y-93525888D01*
X147161158Y-93313887D01*
X147220548Y-93092238D01*
X147250500Y-92864734D01*
X147250500Y-92635266D01*
X147220548Y-92407762D01*
X147161158Y-92186113D01*
X147073344Y-91974112D01*
X146958611Y-91775388D01*
X146958608Y-91775385D01*
X146958607Y-91775382D01*
X146818918Y-91593338D01*
X146818911Y-91593330D01*
X146656670Y-91431089D01*
X146656661Y-91431081D01*
X146474617Y-91291392D01*
X146275890Y-91176657D01*
X146275876Y-91176650D01*
X146063887Y-91088842D01*
X145842238Y-91029452D01*
X145804215Y-91024446D01*
X145614741Y-90999500D01*
X145614734Y-90999500D01*
X145385266Y-90999500D01*
X145385258Y-90999500D01*
X145168715Y-91028009D01*
X145157762Y-91029452D01*
X145064076Y-91054554D01*
X144936112Y-91088842D01*
X144724123Y-91176650D01*
X144724109Y-91176657D01*
X144525382Y-91291392D01*
X144343338Y-91431081D01*
X144181081Y-91593338D01*
X144041392Y-91775382D01*
X143926657Y-91974109D01*
X143926650Y-91974123D01*
X143838842Y-92186112D01*
X143779453Y-92407759D01*
X143779451Y-92407770D01*
X143749500Y-92635258D01*
X141400500Y-92635258D01*
X141400500Y-87542594D01*
X141420185Y-87475555D01*
X141455612Y-87439490D01*
X141460289Y-87436366D01*
X141571789Y-87324866D01*
X141659394Y-87193756D01*
X141719737Y-87048074D01*
X141750500Y-86893419D01*
X141750500Y-86735735D01*
X141750500Y-86735732D01*
X141750499Y-86735730D01*
X141743292Y-86699500D01*
X141719737Y-86581080D01*
X141719735Y-86581075D01*
X141659397Y-86435404D01*
X141659390Y-86435391D01*
X141571789Y-86304288D01*
X141571786Y-86304284D01*
X141460292Y-86192790D01*
X141460288Y-86192787D01*
X141329185Y-86105186D01*
X141329172Y-86105179D01*
X141183501Y-86044841D01*
X141183489Y-86044838D01*
X141028845Y-86014077D01*
X141028842Y-86014077D01*
X141024500Y-86014077D01*
X140957461Y-85994392D01*
X140911706Y-85941588D01*
X140900500Y-85890077D01*
X140900500Y-83385258D01*
X143749500Y-83385258D01*
X143749500Y-83614741D01*
X143769481Y-83766503D01*
X143779452Y-83842238D01*
X143779453Y-83842240D01*
X143838842Y-84063887D01*
X143926650Y-84275876D01*
X143926657Y-84275890D01*
X144041392Y-84474617D01*
X144181081Y-84656661D01*
X144181089Y-84656670D01*
X144343330Y-84818911D01*
X144343338Y-84818918D01*
X144343339Y-84818919D01*
X144356276Y-84828846D01*
X144525382Y-84958607D01*
X144525385Y-84958608D01*
X144525388Y-84958611D01*
X144724112Y-85073344D01*
X144724117Y-85073346D01*
X144724123Y-85073349D01*
X144874022Y-85135439D01*
X144928426Y-85179280D01*
X144950491Y-85245574D01*
X144933212Y-85313273D01*
X144882075Y-85360884D01*
X144874022Y-85364561D01*
X144724123Y-85426650D01*
X144724109Y-85426657D01*
X144525382Y-85541392D01*
X144343338Y-85681081D01*
X144181081Y-85843338D01*
X144041392Y-86025382D01*
X143926657Y-86224109D01*
X143926650Y-86224123D01*
X143838842Y-86436112D01*
X143779453Y-86657759D01*
X143779451Y-86657770D01*
X143749500Y-86885258D01*
X143749500Y-87114741D01*
X143759904Y-87193762D01*
X143779452Y-87342238D01*
X143817300Y-87483489D01*
X143838842Y-87563887D01*
X143926650Y-87775876D01*
X143926657Y-87775890D01*
X144041392Y-87974617D01*
X144181081Y-88156661D01*
X144181089Y-88156670D01*
X144343330Y-88318911D01*
X144343338Y-88318918D01*
X144525382Y-88458607D01*
X144525385Y-88458608D01*
X144525388Y-88458611D01*
X144724112Y-88573344D01*
X144724117Y-88573346D01*
X144724123Y-88573349D01*
X144815480Y-88611190D01*
X144936113Y-88661158D01*
X145157762Y-88720548D01*
X145385266Y-88750500D01*
X145385273Y-88750500D01*
X145614727Y-88750500D01*
X145614734Y-88750500D01*
X145842238Y-88720548D01*
X146063887Y-88661158D01*
X146275888Y-88573344D01*
X146474612Y-88458611D01*
X146656661Y-88318919D01*
X146656665Y-88318914D01*
X146656670Y-88318911D01*
X146818911Y-88156670D01*
X146818914Y-88156665D01*
X146818919Y-88156661D01*
X146958611Y-87974612D01*
X147073344Y-87775888D01*
X147161158Y-87563887D01*
X147220548Y-87342238D01*
X147250500Y-87114734D01*
X147250500Y-86885266D01*
X147220548Y-86657762D01*
X147161158Y-86436113D01*
X147106554Y-86304288D01*
X147073349Y-86224123D01*
X147073346Y-86224117D01*
X147073344Y-86224112D01*
X146958611Y-86025388D01*
X146958608Y-86025385D01*
X146958607Y-86025382D01*
X146818918Y-85843338D01*
X146818911Y-85843330D01*
X146656670Y-85681089D01*
X146656661Y-85681081D01*
X146474617Y-85541392D01*
X146437109Y-85519737D01*
X146374144Y-85483384D01*
X146275890Y-85426657D01*
X146275876Y-85426650D01*
X146167083Y-85381587D01*
X146125976Y-85364560D01*
X146071573Y-85320721D01*
X146049508Y-85254426D01*
X146066787Y-85186727D01*
X146117924Y-85139116D01*
X146125967Y-85135443D01*
X146275888Y-85073344D01*
X146474612Y-84958611D01*
X146656661Y-84818919D01*
X146656665Y-84818914D01*
X146656670Y-84818911D01*
X146818911Y-84656670D01*
X146818914Y-84656665D01*
X146818919Y-84656661D01*
X146958611Y-84474612D01*
X147073344Y-84275888D01*
X147161158Y-84063887D01*
X147220548Y-83842238D01*
X147250500Y-83614734D01*
X147250500Y-83385266D01*
X147220548Y-83157762D01*
X147161158Y-82936113D01*
X147073344Y-82724112D01*
X146958611Y-82525388D01*
X146958608Y-82525385D01*
X146958607Y-82525382D01*
X146846420Y-82379179D01*
X146818919Y-82343339D01*
X146818918Y-82343338D01*
X146818911Y-82343330D01*
X146656670Y-82181089D01*
X146656661Y-82181081D01*
X146474617Y-82041392D01*
X146275890Y-81926657D01*
X146275876Y-81926650D01*
X146063887Y-81838842D01*
X146026581Y-81828846D01*
X145842238Y-81779452D01*
X145804215Y-81774446D01*
X145614741Y-81749500D01*
X145614734Y-81749500D01*
X145385266Y-81749500D01*
X145385258Y-81749500D01*
X145168715Y-81778009D01*
X145157762Y-81779452D01*
X145064076Y-81804554D01*
X144936112Y-81838842D01*
X144724123Y-81926650D01*
X144724109Y-81926657D01*
X144525382Y-82041392D01*
X144343338Y-82181081D01*
X144181081Y-82343338D01*
X144041392Y-82525382D01*
X143926657Y-82724109D01*
X143926650Y-82724123D01*
X143838842Y-82936112D01*
X143779453Y-83157759D01*
X143779451Y-83157770D01*
X143749500Y-83385258D01*
X140900500Y-83385258D01*
X140900500Y-74135258D01*
X143749500Y-74135258D01*
X143749500Y-74364741D01*
X143759657Y-74441885D01*
X143779452Y-74592238D01*
X143838842Y-74813887D01*
X143926650Y-75025876D01*
X143926656Y-75025888D01*
X144038014Y-75218767D01*
X144041392Y-75224617D01*
X144181081Y-75406661D01*
X144181089Y-75406670D01*
X144343330Y-75568911D01*
X144343338Y-75568918D01*
X144343339Y-75568919D01*
X144344404Y-75569736D01*
X144525382Y-75708607D01*
X144525385Y-75708608D01*
X144525388Y-75708611D01*
X144724112Y-75823344D01*
X144724117Y-75823346D01*
X144724123Y-75823349D01*
X144874022Y-75885439D01*
X144928426Y-75929280D01*
X144950491Y-75995574D01*
X144933212Y-76063273D01*
X144882075Y-76110884D01*
X144874022Y-76114561D01*
X144724123Y-76176650D01*
X144724109Y-76176657D01*
X144525382Y-76291392D01*
X144343338Y-76431081D01*
X144181081Y-76593338D01*
X144041392Y-76775382D01*
X143926657Y-76974109D01*
X143926650Y-76974123D01*
X143838842Y-77186112D01*
X143779453Y-77407759D01*
X143779451Y-77407770D01*
X143749500Y-77635258D01*
X143749500Y-77864741D01*
X143765136Y-77983501D01*
X143779452Y-78092238D01*
X143834090Y-78296153D01*
X143838842Y-78313887D01*
X143926650Y-78525876D01*
X143926657Y-78525890D01*
X144041392Y-78724617D01*
X144181081Y-78906661D01*
X144181089Y-78906670D01*
X144343330Y-79068911D01*
X144343338Y-79068918D01*
X144525382Y-79208607D01*
X144525385Y-79208608D01*
X144525388Y-79208611D01*
X144724112Y-79323344D01*
X144724117Y-79323346D01*
X144724123Y-79323349D01*
X144811612Y-79359588D01*
X144936113Y-79411158D01*
X145157762Y-79470548D01*
X145385266Y-79500500D01*
X145385273Y-79500500D01*
X145614727Y-79500500D01*
X145614734Y-79500500D01*
X145842238Y-79470548D01*
X146063887Y-79411158D01*
X146275888Y-79323344D01*
X146474612Y-79208611D01*
X146656661Y-79068919D01*
X146656665Y-79068914D01*
X146656670Y-79068911D01*
X146818911Y-78906670D01*
X146818914Y-78906665D01*
X146818919Y-78906661D01*
X146958611Y-78724612D01*
X147073344Y-78525888D01*
X147161158Y-78313887D01*
X147220548Y-78092238D01*
X147250500Y-77864734D01*
X147250500Y-77635266D01*
X147220548Y-77407762D01*
X147161158Y-77186113D01*
X147103450Y-77046793D01*
X147073349Y-76974123D01*
X147073346Y-76974117D01*
X147073344Y-76974112D01*
X146958611Y-76775388D01*
X146958608Y-76775385D01*
X146958607Y-76775382D01*
X146818918Y-76593338D01*
X146818911Y-76593330D01*
X146656670Y-76431089D01*
X146656661Y-76431081D01*
X146474617Y-76291392D01*
X146471705Y-76289711D01*
X146278585Y-76178213D01*
X146275890Y-76176657D01*
X146275876Y-76176650D01*
X146167083Y-76131587D01*
X146125976Y-76114560D01*
X146071573Y-76070721D01*
X146049508Y-76004426D01*
X146066787Y-75936727D01*
X146117924Y-75889116D01*
X146125967Y-75885443D01*
X146275888Y-75823344D01*
X146474612Y-75708611D01*
X146656661Y-75568919D01*
X146656665Y-75568914D01*
X146656670Y-75568911D01*
X146818911Y-75406670D01*
X146818914Y-75406665D01*
X146818919Y-75406661D01*
X146958611Y-75224612D01*
X147073344Y-75025888D01*
X147161158Y-74813887D01*
X147220548Y-74592238D01*
X147250500Y-74364734D01*
X147250500Y-74135266D01*
X147220548Y-73907762D01*
X147161158Y-73686113D01*
X147101386Y-73541810D01*
X147073349Y-73474123D01*
X147073346Y-73474117D01*
X147073344Y-73474112D01*
X146958611Y-73275388D01*
X146958608Y-73275385D01*
X146958607Y-73275382D01*
X146818918Y-73093338D01*
X146818911Y-73093330D01*
X146656670Y-72931089D01*
X146656661Y-72931081D01*
X146474617Y-72791392D01*
X146275890Y-72676657D01*
X146275876Y-72676650D01*
X146063887Y-72588842D01*
X146026581Y-72578846D01*
X145842238Y-72529452D01*
X145804215Y-72524446D01*
X145614741Y-72499500D01*
X145614734Y-72499500D01*
X145385266Y-72499500D01*
X145385258Y-72499500D01*
X145168715Y-72528009D01*
X145157762Y-72529452D01*
X145064076Y-72554554D01*
X144936112Y-72588842D01*
X144724123Y-72676650D01*
X144724109Y-72676657D01*
X144525382Y-72791392D01*
X144343338Y-72931081D01*
X144181081Y-73093338D01*
X144041392Y-73275382D01*
X143926657Y-73474109D01*
X143926650Y-73474123D01*
X143838842Y-73686112D01*
X143822248Y-73748043D01*
X143781455Y-73900289D01*
X143779453Y-73907759D01*
X143779451Y-73907770D01*
X143749500Y-74135258D01*
X140900500Y-74135258D01*
X140900500Y-73004935D01*
X140920185Y-72937896D01*
X140921366Y-72936090D01*
X140959394Y-72879179D01*
X141019737Y-72733497D01*
X141050500Y-72578842D01*
X141050500Y-72421158D01*
X141050500Y-72421155D01*
X141050499Y-72421153D01*
X141019738Y-72266510D01*
X141019737Y-72266503D01*
X141019735Y-72266498D01*
X140959397Y-72120827D01*
X140959390Y-72120814D01*
X140871789Y-71989711D01*
X140871786Y-71989707D01*
X140760292Y-71878213D01*
X140760288Y-71878210D01*
X140629185Y-71790609D01*
X140629172Y-71790602D01*
X140483501Y-71730264D01*
X140483489Y-71730261D01*
X140328845Y-71699500D01*
X140328842Y-71699500D01*
X140171158Y-71699500D01*
X140171155Y-71699500D01*
X140016510Y-71730261D01*
X140016498Y-71730264D01*
X139870827Y-71790602D01*
X139870814Y-71790609D01*
X139739711Y-71878210D01*
X139739707Y-71878213D01*
X139628213Y-71989707D01*
X139628210Y-71989711D01*
X139540609Y-72120814D01*
X139540602Y-72120827D01*
X139480264Y-72266498D01*
X139480261Y-72266510D01*
X139449500Y-72421153D01*
X139449500Y-72578846D01*
X139480261Y-72733489D01*
X139480264Y-72733501D01*
X139540602Y-72879172D01*
X139540606Y-72879179D01*
X139578602Y-72936044D01*
X139584253Y-72954091D01*
X139594477Y-72970000D01*
X139598928Y-73000959D01*
X139599480Y-73002721D01*
X139599500Y-73004935D01*
X139599500Y-73029247D01*
X139579815Y-73096286D01*
X139527011Y-73142041D01*
X139457853Y-73151985D01*
X139451309Y-73150864D01*
X139378845Y-73136450D01*
X139378842Y-73136450D01*
X139221158Y-73136450D01*
X139221155Y-73136450D01*
X139066510Y-73167211D01*
X139066498Y-73167214D01*
X138920827Y-73227552D01*
X138920814Y-73227559D01*
X138789711Y-73315160D01*
X138789707Y-73315163D01*
X138678213Y-73426657D01*
X138678210Y-73426661D01*
X138590609Y-73557764D01*
X138590602Y-73557777D01*
X138530264Y-73703448D01*
X138530261Y-73703460D01*
X138499500Y-73858103D01*
X138499500Y-74015796D01*
X138530261Y-74170439D01*
X138530264Y-74170451D01*
X138590602Y-74316122D01*
X138590606Y-74316129D01*
X138628602Y-74372994D01*
X138649480Y-74439671D01*
X138649500Y-74441885D01*
X138649500Y-94072724D01*
X138640855Y-94102164D01*
X138634332Y-94132151D01*
X138630577Y-94137166D01*
X138629815Y-94139763D01*
X138613181Y-94160405D01*
X138610405Y-94163181D01*
X138549082Y-94196666D01*
X138522724Y-94199500D01*
X138471155Y-94199500D01*
X138316510Y-94230261D01*
X138316498Y-94230264D01*
X138170827Y-94290602D01*
X138170814Y-94290609D01*
X138039711Y-94378210D01*
X138039707Y-94378213D01*
X137928213Y-94489707D01*
X137928210Y-94489711D01*
X137840609Y-94620814D01*
X137840602Y-94620827D01*
X137780264Y-94766498D01*
X137780261Y-94766510D01*
X137749500Y-94921153D01*
X137749500Y-95078846D01*
X137780261Y-95233489D01*
X137780264Y-95233501D01*
X137840602Y-95379172D01*
X137840606Y-95379179D01*
X137878602Y-95436044D01*
X137899480Y-95502721D01*
X137899500Y-95504934D01*
X137899500Y-112571175D01*
X137899500Y-112571177D01*
X137899499Y-112571177D01*
X137921842Y-112683493D01*
X137924498Y-112696848D01*
X137924499Y-112696850D01*
X137973535Y-112815233D01*
X138033634Y-112905179D01*
X138044726Y-112921779D01*
X138044727Y-112921780D01*
X138563181Y-113440233D01*
X138596666Y-113501556D01*
X138599500Y-113527914D01*
X138599500Y-127060517D01*
X138579815Y-127127556D01*
X138527011Y-127173311D01*
X138474795Y-127184515D01*
X136023795Y-127170589D01*
X135956869Y-127150524D01*
X135911415Y-127097461D01*
X135900500Y-127046591D01*
X135900500Y-117590156D01*
X135875502Y-117464489D01*
X135875501Y-117464488D01*
X135875501Y-117464484D01*
X135863058Y-117434444D01*
X135855711Y-117416705D01*
X135847837Y-117377122D01*
X135846869Y-117377218D01*
X135846272Y-117371163D01*
X135846272Y-117371158D01*
X135815509Y-117216503D01*
X135787338Y-117148491D01*
X135755169Y-117070827D01*
X135755162Y-117070814D01*
X135667561Y-116939711D01*
X135667558Y-116939707D01*
X135556064Y-116828213D01*
X135556060Y-116828210D01*
X135424957Y-116740609D01*
X135424944Y-116740602D01*
X135279273Y-116680264D01*
X135279261Y-116680261D01*
X135124617Y-116649500D01*
X135124614Y-116649500D01*
X134966930Y-116649500D01*
X134966927Y-116649500D01*
X134812282Y-116680261D01*
X134812270Y-116680264D01*
X134666599Y-116740602D01*
X134666586Y-116740609D01*
X134535483Y-116828210D01*
X134535479Y-116828213D01*
X134427236Y-116936457D01*
X134407799Y-116947069D01*
X134391066Y-116961570D01*
X134377734Y-116963486D01*
X134365913Y-116969942D01*
X134343826Y-116968362D01*
X134321908Y-116971514D01*
X134309656Y-116965918D01*
X134296221Y-116964958D01*
X134278494Y-116951687D01*
X134258352Y-116942489D01*
X134251069Y-116931157D01*
X134240288Y-116923086D01*
X134232550Y-116902340D01*
X134220578Y-116883711D01*
X134217426Y-116861792D01*
X134215871Y-116857622D01*
X134215555Y-116848776D01*
X134215555Y-116755753D01*
X134235240Y-116688714D01*
X134251874Y-116668072D01*
X134755272Y-116164674D01*
X134755277Y-116164669D01*
X134826466Y-116058126D01*
X134867084Y-115960064D01*
X134875501Y-115939744D01*
X134889942Y-115867146D01*
X134900500Y-115814071D01*
X134900500Y-108254935D01*
X134920185Y-108187896D01*
X134921366Y-108186090D01*
X134959394Y-108129179D01*
X135019737Y-107983497D01*
X135033079Y-107916416D01*
X135065463Y-107854509D01*
X135066958Y-107852986D01*
X137255277Y-105664669D01*
X137326465Y-105558127D01*
X137375501Y-105439744D01*
X137383307Y-105400500D01*
X137400500Y-105314069D01*
X137400500Y-97557565D01*
X137400500Y-97557562D01*
X137375502Y-97431895D01*
X137375501Y-97431894D01*
X137375501Y-97431890D01*
X137359939Y-97394319D01*
X137350500Y-97346867D01*
X137350500Y-97342789D01*
X137350499Y-97342787D01*
X137330993Y-97244724D01*
X137319737Y-97188137D01*
X137274466Y-97078842D01*
X137259397Y-97042461D01*
X137259390Y-97042448D01*
X137171789Y-96911345D01*
X137171786Y-96911341D01*
X137060289Y-96799844D01*
X136955609Y-96729900D01*
X136910804Y-96676288D01*
X136900500Y-96626798D01*
X136900500Y-78820806D01*
X136909144Y-78791365D01*
X136915668Y-78761379D01*
X136919422Y-78756363D01*
X136920185Y-78753767D01*
X136936810Y-78733134D01*
X137102931Y-78567012D01*
X137164251Y-78533530D01*
X137166330Y-78533096D01*
X137233497Y-78519737D01*
X137379179Y-78459394D01*
X137510289Y-78371789D01*
X137621789Y-78260289D01*
X137709394Y-78129179D01*
X137769737Y-77983497D01*
X137800500Y-77828842D01*
X137800500Y-77671158D01*
X137800500Y-77671155D01*
X137800499Y-77671153D01*
X137793362Y-77635272D01*
X137769737Y-77516503D01*
X137755890Y-77483072D01*
X137709397Y-77370827D01*
X137709390Y-77370814D01*
X137621789Y-77239711D01*
X137621786Y-77239707D01*
X137510292Y-77128213D01*
X137510288Y-77128210D01*
X137379185Y-77040609D01*
X137379172Y-77040602D01*
X137233501Y-76980264D01*
X137233489Y-76980261D01*
X137078845Y-76949500D01*
X137078842Y-76949500D01*
X136921158Y-76949500D01*
X136921155Y-76949500D01*
X136766510Y-76980261D01*
X136766498Y-76980264D01*
X136620828Y-77040602D01*
X136620811Y-77040611D01*
X136611559Y-77046793D01*
X136544880Y-77067665D01*
X136477502Y-77049175D01*
X136473787Y-77046788D01*
X136452671Y-77032679D01*
X136413367Y-77006417D01*
X136413364Y-77006415D01*
X136413363Y-77006415D01*
X136267689Y-76946075D01*
X136267677Y-76946072D01*
X136113033Y-76915311D01*
X136113030Y-76915311D01*
X135955346Y-76915311D01*
X135955343Y-76915311D01*
X135800698Y-76946072D01*
X135800686Y-76946075D01*
X135655015Y-77006413D01*
X135655002Y-77006420D01*
X135523899Y-77094021D01*
X135523895Y-77094024D01*
X135412401Y-77205518D01*
X135412398Y-77205522D01*
X135324797Y-77336625D01*
X135324790Y-77336638D01*
X135264452Y-77482309D01*
X135264449Y-77482321D01*
X135251108Y-77549391D01*
X135218723Y-77611302D01*
X135217172Y-77612881D01*
X134994725Y-77835328D01*
X134994719Y-77835336D01*
X134923540Y-77941863D01*
X134923530Y-77941881D01*
X134895196Y-78010288D01*
X134874500Y-78060251D01*
X134874497Y-78060261D01*
X134849500Y-78185928D01*
X134849500Y-96465145D01*
X134829815Y-96532184D01*
X134828603Y-96534035D01*
X134773533Y-96616453D01*
X134724499Y-96734832D01*
X134724497Y-96734838D01*
X134699500Y-96860505D01*
X134699500Y-103829192D01*
X134679815Y-103896231D01*
X134663181Y-103916873D01*
X130612181Y-107967873D01*
X130550858Y-108001358D01*
X130481166Y-107996374D01*
X130425233Y-107954502D01*
X130400816Y-107889038D01*
X130400500Y-107880192D01*
X130400500Y-89004935D01*
X130420185Y-88937896D01*
X130421366Y-88936090D01*
X130459394Y-88879179D01*
X130519737Y-88733497D01*
X130550500Y-88578842D01*
X130550500Y-88421158D01*
X130550500Y-88421155D01*
X130550499Y-88421153D01*
X130530163Y-88318918D01*
X130519737Y-88266503D01*
X130474239Y-88156661D01*
X130459397Y-88120828D01*
X130459396Y-88120827D01*
X130459394Y-88120821D01*
X130421396Y-88063953D01*
X130400520Y-87997276D01*
X130400500Y-87995064D01*
X130400500Y-81735928D01*
X130375502Y-81610261D01*
X130375501Y-81610260D01*
X130375501Y-81610256D01*
X130326465Y-81491873D01*
X130311398Y-81469323D01*
X130255277Y-81385331D01*
X130255275Y-81385328D01*
X125567015Y-76697068D01*
X125533530Y-76635745D01*
X125533079Y-76633578D01*
X125525073Y-76593330D01*
X125519737Y-76566503D01*
X125475047Y-76458611D01*
X125459397Y-76420827D01*
X125459390Y-76420814D01*
X125371789Y-76289711D01*
X125371786Y-76289707D01*
X125260292Y-76178213D01*
X125260287Y-76178209D01*
X125129185Y-76090609D01*
X125129172Y-76090602D01*
X124983501Y-76030264D01*
X124983489Y-76030261D01*
X124828845Y-75999500D01*
X124828842Y-75999500D01*
X124671158Y-75999500D01*
X124671155Y-75999500D01*
X124516510Y-76030261D01*
X124516498Y-76030264D01*
X124370827Y-76090602D01*
X124370814Y-76090609D01*
X124239713Y-76178209D01*
X124239707Y-76178213D01*
X124128213Y-76289707D01*
X124128210Y-76289711D01*
X124040609Y-76420814D01*
X124040602Y-76420827D01*
X123980264Y-76566498D01*
X123980261Y-76566510D01*
X123949500Y-76721153D01*
X123949500Y-76878846D01*
X123980261Y-77033489D01*
X123980264Y-77033501D01*
X124040602Y-77179172D01*
X124040609Y-77179185D01*
X124128210Y-77310288D01*
X124128213Y-77310292D01*
X124239707Y-77421786D01*
X124239711Y-77421789D01*
X124370814Y-77509390D01*
X124370827Y-77509397D01*
X124458230Y-77545599D01*
X124516503Y-77569737D01*
X124583580Y-77583079D01*
X124645490Y-77615463D01*
X124647069Y-77617015D01*
X129063181Y-82033127D01*
X129096666Y-82094450D01*
X129099500Y-82120808D01*
X129099500Y-87995064D01*
X129079815Y-88062103D01*
X129078603Y-88063954D01*
X129040608Y-88120817D01*
X129040602Y-88120828D01*
X128980264Y-88266498D01*
X128980261Y-88266510D01*
X128949500Y-88421153D01*
X128949500Y-88578846D01*
X128980261Y-88733489D01*
X128980264Y-88733501D01*
X129040602Y-88879172D01*
X129040606Y-88879179D01*
X129078602Y-88936044D01*
X129099480Y-89002721D01*
X129099500Y-89004935D01*
X129099500Y-107988572D01*
X129079815Y-108055611D01*
X129044392Y-108091674D01*
X128989707Y-108128213D01*
X128878213Y-108239707D01*
X128878210Y-108239711D01*
X128790609Y-108370814D01*
X128790602Y-108370827D01*
X128730264Y-108516498D01*
X128730261Y-108516510D01*
X128699500Y-108671153D01*
X128699500Y-108828846D01*
X128730261Y-108983489D01*
X128730264Y-108983501D01*
X128790602Y-109129172D01*
X128790609Y-109129185D01*
X128878210Y-109260288D01*
X128878213Y-109260292D01*
X128989707Y-109371786D01*
X128989712Y-109371790D01*
X128995096Y-109375388D01*
X129039900Y-109429002D01*
X129048605Y-109498327D01*
X129018448Y-109561354D01*
X129013883Y-109566169D01*
X128244727Y-110335325D01*
X128244721Y-110335332D01*
X128191711Y-110414668D01*
X128191712Y-110414669D01*
X128173534Y-110441874D01*
X128124499Y-110560255D01*
X128124497Y-110560261D01*
X128099500Y-110685928D01*
X128099500Y-116495064D01*
X128079815Y-116562103D01*
X128078603Y-116563954D01*
X128040608Y-116620817D01*
X128040602Y-116620828D01*
X127980264Y-116766498D01*
X127980261Y-116766510D01*
X127949500Y-116921153D01*
X127949500Y-117078846D01*
X127980261Y-117233489D01*
X127980264Y-117233501D01*
X128040602Y-117379172D01*
X128040609Y-117379185D01*
X128128210Y-117510288D01*
X128128213Y-117510292D01*
X128129114Y-117511193D01*
X128129435Y-117511780D01*
X128132076Y-117514999D01*
X128131465Y-117515499D01*
X128162599Y-117572516D01*
X128157615Y-117642208D01*
X128115743Y-117698141D01*
X128065626Y-117720491D01*
X128016507Y-117730261D01*
X128016498Y-117730264D01*
X127870827Y-117790602D01*
X127870814Y-117790609D01*
X127739711Y-117878210D01*
X127739707Y-117878213D01*
X127628213Y-117989707D01*
X127628210Y-117989711D01*
X127540609Y-118120814D01*
X127540602Y-118120827D01*
X127480264Y-118266498D01*
X127480261Y-118266510D01*
X127449500Y-118421153D01*
X127449500Y-118578846D01*
X127480261Y-118733489D01*
X127480264Y-118733501D01*
X127540602Y-118879172D01*
X127540609Y-118879185D01*
X127628210Y-119010288D01*
X127628213Y-119010292D01*
X127739707Y-119121786D01*
X127739711Y-119121789D01*
X127870814Y-119209390D01*
X127870827Y-119209397D01*
X128016498Y-119269735D01*
X128016503Y-119269737D01*
X128171153Y-119300499D01*
X128171156Y-119300500D01*
X128171158Y-119300500D01*
X128328844Y-119300500D01*
X128328845Y-119300499D01*
X128483497Y-119269737D01*
X128629179Y-119209394D01*
X128686044Y-119171397D01*
X128752721Y-119150520D01*
X128754935Y-119150500D01*
X128814071Y-119150500D01*
X128898615Y-119133682D01*
X128939744Y-119125501D01*
X129058127Y-119076465D01*
X129164669Y-119005277D01*
X130005276Y-118164669D01*
X130076465Y-118058127D01*
X130125501Y-117939744D01*
X130127900Y-117927679D01*
X130130333Y-117915453D01*
X130130333Y-117915451D01*
X130150500Y-117814069D01*
X130150500Y-111820808D01*
X130170185Y-111753769D01*
X130186819Y-111733127D01*
X133387819Y-108532127D01*
X133449142Y-108498642D01*
X133518834Y-108503626D01*
X133574767Y-108545498D01*
X133599184Y-108610962D01*
X133599500Y-108619808D01*
X133599500Y-115429191D01*
X133579815Y-115496230D01*
X133563181Y-115516872D01*
X133059782Y-116020270D01*
X133059779Y-116020273D01*
X133025508Y-116071563D01*
X133025509Y-116071564D01*
X132988589Y-116126819D01*
X132939554Y-116245200D01*
X132939552Y-116245206D01*
X132914555Y-116370873D01*
X132914555Y-116850666D01*
X132894870Y-116917705D01*
X132893658Y-116919556D01*
X132855663Y-116976419D01*
X132855657Y-116976430D01*
X132795319Y-117122100D01*
X132795316Y-117122112D01*
X132764555Y-117276755D01*
X132764555Y-117434448D01*
X132795316Y-117589091D01*
X132795319Y-117589103D01*
X132855657Y-117734774D01*
X132855664Y-117734787D01*
X132943265Y-117865890D01*
X132943268Y-117865894D01*
X133054762Y-117977388D01*
X133054766Y-117977391D01*
X133185869Y-118064992D01*
X133185882Y-118064999D01*
X133320650Y-118120821D01*
X133331558Y-118125339D01*
X133467949Y-118152469D01*
X133486208Y-118156101D01*
X133486211Y-118156102D01*
X133486213Y-118156102D01*
X133643899Y-118156102D01*
X133643900Y-118156101D01*
X133798552Y-118125339D01*
X133944234Y-118064996D01*
X134075344Y-117977391D01*
X134184349Y-117868385D01*
X134245670Y-117834902D01*
X134315362Y-117839886D01*
X134371296Y-117881757D01*
X134375131Y-117887177D01*
X134423982Y-117960289D01*
X134535477Y-118071784D01*
X134535480Y-118071786D01*
X134535483Y-118071789D01*
X134544389Y-118077740D01*
X134589194Y-118131348D01*
X134599500Y-118180842D01*
X134599500Y-127037790D01*
X134579815Y-127104829D01*
X134527011Y-127150584D01*
X134474795Y-127161788D01*
X131076122Y-127142477D01*
X131009196Y-127122412D01*
X130963742Y-127069349D01*
X130954191Y-127000135D01*
X130983577Y-126936745D01*
X130989116Y-126930829D01*
X133505277Y-124414669D01*
X133576465Y-124308127D01*
X133625501Y-124189744D01*
X133639487Y-124119432D01*
X133650500Y-124064069D01*
X133650500Y-121004935D01*
X133670185Y-120937896D01*
X133671366Y-120936090D01*
X133709394Y-120879179D01*
X133769737Y-120733497D01*
X133800500Y-120578842D01*
X133800500Y-120421158D01*
X133800500Y-120421155D01*
X133800499Y-120421153D01*
X133769738Y-120266510D01*
X133769737Y-120266503D01*
X133769735Y-120266498D01*
X133709397Y-120120827D01*
X133709390Y-120120814D01*
X133621789Y-119989711D01*
X133621786Y-119989707D01*
X133510292Y-119878213D01*
X133510288Y-119878210D01*
X133379185Y-119790609D01*
X133379172Y-119790602D01*
X133233501Y-119730264D01*
X133233489Y-119730261D01*
X133078845Y-119699500D01*
X133078842Y-119699500D01*
X132921158Y-119699500D01*
X132921155Y-119699500D01*
X132766510Y-119730261D01*
X132766498Y-119730264D01*
X132620827Y-119790602D01*
X132620814Y-119790609D01*
X132489711Y-119878210D01*
X132489707Y-119878213D01*
X132378213Y-119989707D01*
X132378210Y-119989711D01*
X132290609Y-120120814D01*
X132290602Y-120120827D01*
X132230264Y-120266498D01*
X132230261Y-120266510D01*
X132199500Y-120421153D01*
X132199500Y-120578846D01*
X132230261Y-120733489D01*
X132230264Y-120733501D01*
X132290602Y-120879172D01*
X132290606Y-120879179D01*
X132328602Y-120936044D01*
X132349480Y-121002721D01*
X132349500Y-121004935D01*
X132349500Y-123679191D01*
X132329815Y-123746230D01*
X132313181Y-123766872D01*
X128986269Y-127093783D01*
X128924946Y-127127268D01*
X128897884Y-127130100D01*
X125607197Y-127111404D01*
X125540270Y-127091339D01*
X125494816Y-127038276D01*
X125485265Y-126969062D01*
X125514651Y-126905672D01*
X125520205Y-126899740D01*
X126255276Y-126164670D01*
X126326465Y-126058127D01*
X126375501Y-125939744D01*
X126387852Y-125877653D01*
X126400500Y-125814069D01*
X126400500Y-115867146D01*
X126409939Y-115819694D01*
X126466444Y-115683276D01*
X126466446Y-115683272D01*
X126497209Y-115528617D01*
X126497209Y-115370933D01*
X126497209Y-115370930D01*
X126497208Y-115370928D01*
X126492990Y-115349723D01*
X126466446Y-115216278D01*
X126435344Y-115141190D01*
X126406106Y-115070602D01*
X126406099Y-115070589D01*
X126318498Y-114939486D01*
X126318495Y-114939482D01*
X126207001Y-114827988D01*
X126206997Y-114827985D01*
X126075894Y-114740384D01*
X126075881Y-114740377D01*
X125930210Y-114680039D01*
X125930198Y-114680036D01*
X125775554Y-114649275D01*
X125775551Y-114649275D01*
X125617867Y-114649275D01*
X125617864Y-114649275D01*
X125463219Y-114680036D01*
X125463207Y-114680039D01*
X125317536Y-114740377D01*
X125317523Y-114740384D01*
X125186420Y-114827985D01*
X125186416Y-114827988D01*
X125074922Y-114939482D01*
X125074919Y-114939486D01*
X124987318Y-115070589D01*
X124987311Y-115070602D01*
X124926973Y-115216273D01*
X124926970Y-115216285D01*
X124896209Y-115370928D01*
X124896209Y-115528621D01*
X124926970Y-115683264D01*
X124926973Y-115683276D01*
X124987311Y-115828947D01*
X124987318Y-115828960D01*
X125078304Y-115965129D01*
X125076000Y-115966668D01*
X125098664Y-116020009D01*
X125099500Y-116034383D01*
X125099500Y-125429191D01*
X125079815Y-125496230D01*
X125063181Y-125516872D01*
X123517342Y-127062710D01*
X123456019Y-127096195D01*
X123428956Y-127099027D01*
X119523795Y-127076839D01*
X119456869Y-127056774D01*
X119411415Y-127003711D01*
X119400500Y-126952841D01*
X119400500Y-122004935D01*
X119420185Y-121937896D01*
X119421366Y-121936090D01*
X119459394Y-121879179D01*
X119462854Y-121870827D01*
X119517163Y-121739711D01*
X119519737Y-121733497D01*
X119550500Y-121578842D01*
X119550500Y-121421158D01*
X119550500Y-121421155D01*
X119550499Y-121421153D01*
X119548950Y-121413366D01*
X119519737Y-121266503D01*
X119490685Y-121196364D01*
X119459397Y-121120827D01*
X119459390Y-121120814D01*
X119371789Y-120989711D01*
X119371786Y-120989707D01*
X119260292Y-120878213D01*
X119260288Y-120878210D01*
X119129185Y-120790609D01*
X119129172Y-120790602D01*
X118983501Y-120730264D01*
X118983489Y-120730261D01*
X118828845Y-120699500D01*
X118828842Y-120699500D01*
X118671158Y-120699500D01*
X118671155Y-120699500D01*
X118516510Y-120730261D01*
X118516498Y-120730264D01*
X118370827Y-120790602D01*
X118370814Y-120790609D01*
X118239711Y-120878210D01*
X118239707Y-120878213D01*
X118128213Y-120989707D01*
X118128210Y-120989711D01*
X118040609Y-121120814D01*
X118040602Y-121120827D01*
X117980264Y-121266498D01*
X117980261Y-121266510D01*
X117949500Y-121421153D01*
X117949500Y-121578846D01*
X117980261Y-121733489D01*
X117980264Y-121733501D01*
X118040602Y-121879172D01*
X118040606Y-121879179D01*
X118078602Y-121936044D01*
X118099480Y-122002721D01*
X118099500Y-122004935D01*
X118099500Y-126944040D01*
X118079815Y-127011079D01*
X118027011Y-127056834D01*
X117974795Y-127068038D01*
X112023794Y-127034225D01*
X111956868Y-127014160D01*
X111911414Y-126961097D01*
X111900499Y-126910227D01*
X111900499Y-103921153D01*
X117699500Y-103921153D01*
X117699500Y-104078846D01*
X117730261Y-104233489D01*
X117730264Y-104233501D01*
X117790602Y-104379172D01*
X117790609Y-104379185D01*
X117878210Y-104510288D01*
X117878213Y-104510292D01*
X117989707Y-104621786D01*
X117989711Y-104621789D01*
X118120814Y-104709390D01*
X118120827Y-104709397D01*
X118196280Y-104740650D01*
X118266503Y-104769737D01*
X118408967Y-104798075D01*
X118421153Y-104800499D01*
X118421156Y-104800500D01*
X118421158Y-104800500D01*
X118578844Y-104800500D01*
X118578845Y-104800499D01*
X118733497Y-104769737D01*
X118879179Y-104709394D01*
X119010289Y-104621789D01*
X119121789Y-104510289D01*
X119209394Y-104379179D01*
X119269737Y-104233497D01*
X119300500Y-104078842D01*
X119300500Y-103921158D01*
X119300500Y-103921155D01*
X119300499Y-103921153D01*
X119292150Y-103879179D01*
X119269737Y-103766503D01*
X119260717Y-103744726D01*
X119209397Y-103620828D01*
X119209396Y-103620827D01*
X119209394Y-103620821D01*
X119171396Y-103563953D01*
X119150520Y-103497276D01*
X119150500Y-103495064D01*
X119150500Y-89386878D01*
X119170185Y-89319839D01*
X119222989Y-89274084D01*
X119227930Y-89272215D01*
X119227869Y-89272068D01*
X119253562Y-89261426D01*
X119324198Y-89232167D01*
X119379172Y-89209397D01*
X119379172Y-89209396D01*
X119379179Y-89209394D01*
X119510289Y-89121789D01*
X119621789Y-89010289D01*
X119709394Y-88879179D01*
X119769737Y-88733497D01*
X119800500Y-88578842D01*
X119800500Y-88421158D01*
X119800500Y-88421155D01*
X119800499Y-88421153D01*
X119780163Y-88318918D01*
X119769737Y-88266503D01*
X119724243Y-88156670D01*
X119709397Y-88120827D01*
X119709390Y-88120814D01*
X119621789Y-87989711D01*
X119621786Y-87989707D01*
X119510292Y-87878213D01*
X119510288Y-87878210D01*
X119379185Y-87790609D01*
X119379172Y-87790602D01*
X119233501Y-87730264D01*
X119233489Y-87730261D01*
X119078845Y-87699500D01*
X119078842Y-87699500D01*
X118921158Y-87699500D01*
X118921155Y-87699500D01*
X118766510Y-87730261D01*
X118766498Y-87730264D01*
X118620827Y-87790602D01*
X118620814Y-87790609D01*
X118489711Y-87878210D01*
X118489707Y-87878213D01*
X118378213Y-87989707D01*
X118378210Y-87989711D01*
X118290609Y-88120814D01*
X118290602Y-88120827D01*
X118230264Y-88266498D01*
X118230261Y-88266508D01*
X118216920Y-88333579D01*
X118184535Y-88395490D01*
X118182985Y-88397068D01*
X117994721Y-88585333D01*
X117994719Y-88585336D01*
X117944057Y-88661157D01*
X117944058Y-88661158D01*
X117923534Y-88691874D01*
X117874499Y-88810255D01*
X117874497Y-88810261D01*
X117849500Y-88935928D01*
X117849500Y-103495064D01*
X117829815Y-103562103D01*
X117828603Y-103563954D01*
X117790608Y-103620817D01*
X117790602Y-103620828D01*
X117730264Y-103766498D01*
X117730261Y-103766510D01*
X117699500Y-103921153D01*
X111900499Y-103921153D01*
X111900499Y-103504935D01*
X111920184Y-103437896D01*
X111921348Y-103436116D01*
X111959394Y-103379179D01*
X112019737Y-103233497D01*
X112050500Y-103078842D01*
X112050500Y-102921158D01*
X112050500Y-102921155D01*
X112050499Y-102921153D01*
X112019738Y-102766510D01*
X112019737Y-102766503D01*
X112019735Y-102766498D01*
X111959397Y-102620828D01*
X111959396Y-102620827D01*
X111959394Y-102620821D01*
X111921396Y-102563953D01*
X111900520Y-102497276D01*
X111900500Y-102495064D01*
X111900500Y-87754935D01*
X111920185Y-87687896D01*
X111921366Y-87686090D01*
X111959394Y-87629179D01*
X112019737Y-87483497D01*
X112050500Y-87328842D01*
X112050500Y-87171158D01*
X112050500Y-87171155D01*
X112050499Y-87171153D01*
X112039275Y-87114727D01*
X112019737Y-87016503D01*
X112019735Y-87016498D01*
X111959397Y-86870827D01*
X111959390Y-86870814D01*
X111871789Y-86739711D01*
X111871786Y-86739707D01*
X111760292Y-86628213D01*
X111760288Y-86628210D01*
X111629185Y-86540609D01*
X111629172Y-86540602D01*
X111483501Y-86480264D01*
X111483489Y-86480261D01*
X111328845Y-86449500D01*
X111328842Y-86449500D01*
X111171158Y-86449500D01*
X111171155Y-86449500D01*
X111016510Y-86480261D01*
X111016498Y-86480264D01*
X110870827Y-86540602D01*
X110870814Y-86540609D01*
X110739711Y-86628210D01*
X110739707Y-86628213D01*
X110628213Y-86739707D01*
X110628210Y-86739711D01*
X110540609Y-86870814D01*
X110540602Y-86870827D01*
X110480264Y-87016498D01*
X110480261Y-87016510D01*
X110449500Y-87171153D01*
X110449500Y-87328846D01*
X110480261Y-87483489D01*
X110480264Y-87483501D01*
X110540602Y-87629172D01*
X110540606Y-87629179D01*
X110578602Y-87686044D01*
X110599480Y-87752721D01*
X110599500Y-87754935D01*
X110599500Y-102495064D01*
X110579815Y-102562103D01*
X110578603Y-102563954D01*
X110540608Y-102620817D01*
X110540602Y-102620828D01*
X110480264Y-102766498D01*
X110480261Y-102766510D01*
X110449500Y-102921153D01*
X110449500Y-103078846D01*
X110480261Y-103233489D01*
X110480264Y-103233501D01*
X110540602Y-103379171D01*
X110540603Y-103379172D01*
X110540606Y-103379179D01*
X110578601Y-103436043D01*
X110599479Y-103502719D01*
X110599499Y-103504933D01*
X110599499Y-126901426D01*
X110579814Y-126968465D01*
X110527010Y-127014220D01*
X110474794Y-127025424D01*
X110023795Y-127022861D01*
X109956869Y-127002796D01*
X109911415Y-126949733D01*
X109900500Y-126898863D01*
X109900500Y-115360939D01*
X109909939Y-115313487D01*
X109950201Y-115216285D01*
X109963781Y-115183499D01*
X109994544Y-115028844D01*
X109994544Y-114871160D01*
X109994544Y-114871157D01*
X109994543Y-114871155D01*
X109987823Y-114837370D01*
X109963781Y-114716505D01*
X109903438Y-114570823D01*
X109903437Y-114570821D01*
X109903434Y-114570816D01*
X109815833Y-114439713D01*
X109815830Y-114439709D01*
X109704336Y-114328215D01*
X109704332Y-114328212D01*
X109573229Y-114240611D01*
X109573216Y-114240604D01*
X109427545Y-114180266D01*
X109427533Y-114180263D01*
X109272889Y-114149502D01*
X109272886Y-114149502D01*
X109115202Y-114149502D01*
X109115199Y-114149502D01*
X108960554Y-114180263D01*
X108960542Y-114180266D01*
X108814871Y-114240604D01*
X108814858Y-114240611D01*
X108683755Y-114328212D01*
X108683751Y-114328215D01*
X108572257Y-114439709D01*
X108572254Y-114439713D01*
X108484653Y-114570816D01*
X108484649Y-114570825D01*
X108424308Y-114716500D01*
X108424305Y-114716512D01*
X108393544Y-114871155D01*
X108393544Y-115028848D01*
X108424305Y-115183491D01*
X108424308Y-115183503D01*
X108484646Y-115329174D01*
X108484653Y-115329187D01*
X108575639Y-115465356D01*
X108574338Y-115466224D01*
X108598665Y-115523495D01*
X108599500Y-115537857D01*
X108599500Y-126890062D01*
X108579815Y-126957101D01*
X108527011Y-127002856D01*
X108474795Y-127014060D01*
X103773795Y-126987350D01*
X103706869Y-126967285D01*
X103661415Y-126914222D01*
X103650500Y-126863352D01*
X103650500Y-122754935D01*
X103670185Y-122687896D01*
X103671366Y-122686090D01*
X103709394Y-122629179D01*
X103769737Y-122483497D01*
X103800500Y-122328842D01*
X103800500Y-122171158D01*
X103800500Y-122171155D01*
X103800499Y-122171153D01*
X103774778Y-122041846D01*
X103769737Y-122016503D01*
X103769735Y-122016498D01*
X103709397Y-121870827D01*
X103709390Y-121870814D01*
X103621789Y-121739711D01*
X103621786Y-121739707D01*
X103510292Y-121628213D01*
X103510288Y-121628210D01*
X103379185Y-121540609D01*
X103379172Y-121540602D01*
X103233501Y-121480264D01*
X103233489Y-121480261D01*
X103078845Y-121449500D01*
X103078842Y-121449500D01*
X102921158Y-121449500D01*
X102921155Y-121449500D01*
X102766510Y-121480261D01*
X102766498Y-121480264D01*
X102620827Y-121540602D01*
X102620814Y-121540609D01*
X102489711Y-121628210D01*
X102489707Y-121628213D01*
X102378213Y-121739707D01*
X102378210Y-121739711D01*
X102290609Y-121870814D01*
X102290602Y-121870827D01*
X102230264Y-122016498D01*
X102230261Y-122016510D01*
X102199500Y-122171153D01*
X102199500Y-122328846D01*
X102230261Y-122483489D01*
X102230264Y-122483501D01*
X102290602Y-122629172D01*
X102290605Y-122629177D01*
X102290606Y-122629179D01*
X102328602Y-122686044D01*
X102349480Y-122752721D01*
X102349500Y-122754935D01*
X102349500Y-126854551D01*
X102329815Y-126921590D01*
X102277011Y-126967345D01*
X102224795Y-126978549D01*
X100123795Y-126966611D01*
X100056869Y-126946546D01*
X100011415Y-126893483D01*
X100000500Y-126842613D01*
X100000500Y-109417648D01*
X100020185Y-109350609D01*
X100072989Y-109304854D01*
X100142147Y-109294910D01*
X100148672Y-109296027D01*
X100171158Y-109300500D01*
X100328844Y-109300500D01*
X100328845Y-109300499D01*
X100483497Y-109269737D01*
X100596166Y-109223067D01*
X100629172Y-109209397D01*
X100629172Y-109209396D01*
X100629179Y-109209394D01*
X100760289Y-109121789D01*
X100871789Y-109010289D01*
X100959394Y-108879179D01*
X101019737Y-108733497D01*
X101050500Y-108578842D01*
X101050500Y-108421158D01*
X101050500Y-108421155D01*
X101050499Y-108421153D01*
X101036242Y-108349480D01*
X101019737Y-108266503D01*
X101014945Y-108254935D01*
X100959397Y-108120828D01*
X100959396Y-108120827D01*
X100959394Y-108120821D01*
X100921396Y-108063953D01*
X100900520Y-107997276D01*
X100900500Y-107995064D01*
X100900500Y-89504935D01*
X100920185Y-89437896D01*
X100921366Y-89436090D01*
X100959394Y-89379179D01*
X101019737Y-89233497D01*
X101050500Y-89078842D01*
X101050500Y-88921158D01*
X101050500Y-88921155D01*
X101050499Y-88921153D01*
X101019738Y-88766510D01*
X101019737Y-88766503D01*
X100988825Y-88691874D01*
X100959397Y-88620828D01*
X100959396Y-88620827D01*
X100959394Y-88620821D01*
X100921396Y-88563953D01*
X100900520Y-88497276D01*
X100900500Y-88495064D01*
X100900500Y-81671153D01*
X105449500Y-81671153D01*
X105449500Y-81828846D01*
X105480261Y-81983489D01*
X105480264Y-81983501D01*
X105540602Y-82129172D01*
X105540606Y-82129179D01*
X105578602Y-82186044D01*
X105599480Y-82252721D01*
X105599500Y-82254935D01*
X105599500Y-104569778D01*
X105590061Y-104617230D01*
X105550400Y-104712979D01*
X105550397Y-104712989D01*
X105519637Y-104867631D01*
X105519637Y-105025324D01*
X105550398Y-105179967D01*
X105550401Y-105179979D01*
X105610739Y-105325650D01*
X105610746Y-105325663D01*
X105698347Y-105456766D01*
X105698350Y-105456770D01*
X105809844Y-105568264D01*
X105809848Y-105568267D01*
X105940951Y-105655868D01*
X105940964Y-105655875D01*
X106086635Y-105716213D01*
X106086640Y-105716215D01*
X106241290Y-105746977D01*
X106241293Y-105746978D01*
X106241295Y-105746978D01*
X106398981Y-105746978D01*
X106398982Y-105746977D01*
X106553634Y-105716215D01*
X106699316Y-105655872D01*
X106830426Y-105568267D01*
X106941926Y-105456767D01*
X107029531Y-105325657D01*
X107034331Y-105314070D01*
X107089872Y-105179979D01*
X107089874Y-105179975D01*
X107120637Y-105025320D01*
X107120637Y-104867636D01*
X107120637Y-104867633D01*
X107120636Y-104867631D01*
X107107283Y-104800500D01*
X107089874Y-104712981D01*
X107089872Y-104712976D01*
X107029534Y-104567305D01*
X107029527Y-104567292D01*
X106941926Y-104436189D01*
X106941923Y-104436185D01*
X106936819Y-104431081D01*
X106903334Y-104369758D01*
X106900500Y-104343400D01*
X106900500Y-82254935D01*
X106920185Y-82187896D01*
X106921366Y-82186090D01*
X106959394Y-82129179D01*
X107019737Y-81983497D01*
X107050500Y-81828842D01*
X107050500Y-81671158D01*
X107050500Y-81671155D01*
X107050499Y-81671153D01*
X107038386Y-81610256D01*
X107019737Y-81516503D01*
X106999365Y-81467320D01*
X106959397Y-81370827D01*
X106959390Y-81370814D01*
X106871789Y-81239711D01*
X106871786Y-81239707D01*
X106760292Y-81128213D01*
X106760288Y-81128210D01*
X106629185Y-81040609D01*
X106629172Y-81040602D01*
X106483501Y-80980264D01*
X106483489Y-80980261D01*
X106328845Y-80949500D01*
X106328842Y-80949500D01*
X106171158Y-80949500D01*
X106171155Y-80949500D01*
X106016510Y-80980261D01*
X106016498Y-80980264D01*
X105870827Y-81040602D01*
X105870814Y-81040609D01*
X105739711Y-81128210D01*
X105739707Y-81128213D01*
X105628213Y-81239707D01*
X105628210Y-81239711D01*
X105540609Y-81370814D01*
X105540602Y-81370827D01*
X105480264Y-81516498D01*
X105480261Y-81516510D01*
X105449500Y-81671153D01*
X100900500Y-81671153D01*
X100900500Y-79047252D01*
X115636450Y-79047252D01*
X115636450Y-79204945D01*
X115667211Y-79359588D01*
X115667214Y-79359600D01*
X115727552Y-79505271D01*
X115727559Y-79505284D01*
X115815160Y-79636387D01*
X115815163Y-79636391D01*
X115926657Y-79747885D01*
X115926661Y-79747888D01*
X116057764Y-79835489D01*
X116057777Y-79835496D01*
X116155564Y-79876000D01*
X116203453Y-79895836D01*
X116358103Y-79926598D01*
X116358106Y-79926599D01*
X116358108Y-79926599D01*
X116455291Y-79926599D01*
X116522330Y-79946284D01*
X116542972Y-79962918D01*
X117563181Y-80983127D01*
X117596666Y-81044450D01*
X117599500Y-81070808D01*
X117599500Y-84245064D01*
X117579815Y-84312103D01*
X117578603Y-84313954D01*
X117540608Y-84370817D01*
X117540602Y-84370828D01*
X117480264Y-84516498D01*
X117480261Y-84516510D01*
X117449500Y-84671153D01*
X117449500Y-84828846D01*
X117480261Y-84983489D01*
X117480264Y-84983501D01*
X117540602Y-85129172D01*
X117540609Y-85129185D01*
X117628210Y-85260288D01*
X117628213Y-85260292D01*
X117739707Y-85371786D01*
X117739711Y-85371789D01*
X117870814Y-85459390D01*
X117870827Y-85459397D01*
X118016498Y-85519735D01*
X118016503Y-85519737D01*
X118171153Y-85550499D01*
X118171156Y-85550500D01*
X118171158Y-85550500D01*
X118328844Y-85550500D01*
X118328845Y-85550499D01*
X118483497Y-85519737D01*
X118629179Y-85459394D01*
X118760289Y-85371789D01*
X118871789Y-85260289D01*
X118959394Y-85129179D01*
X119019737Y-84983497D01*
X119050500Y-84828842D01*
X119050500Y-84671158D01*
X119050500Y-84671155D01*
X119050499Y-84671153D01*
X119019738Y-84516510D01*
X119019737Y-84516503D01*
X118959394Y-84370821D01*
X118921396Y-84313953D01*
X118900520Y-84247276D01*
X118900500Y-84245064D01*
X118900500Y-80685928D01*
X118875502Y-80560261D01*
X118875501Y-80560260D01*
X118875501Y-80560256D01*
X118826465Y-80441873D01*
X118814212Y-80423535D01*
X118814211Y-80423532D01*
X118755278Y-80335332D01*
X118755272Y-80335325D01*
X117113656Y-78693710D01*
X117098234Y-78674919D01*
X117058737Y-78615807D01*
X116947242Y-78504312D01*
X116947238Y-78504309D01*
X116816135Y-78416708D01*
X116816122Y-78416701D01*
X116670451Y-78356363D01*
X116670439Y-78356360D01*
X116515795Y-78325599D01*
X116515792Y-78325599D01*
X116358108Y-78325599D01*
X116358105Y-78325599D01*
X116203460Y-78356360D01*
X116203448Y-78356363D01*
X116057777Y-78416701D01*
X116057764Y-78416708D01*
X115926661Y-78504309D01*
X115926657Y-78504312D01*
X115815163Y-78615806D01*
X115815160Y-78615810D01*
X115727559Y-78746913D01*
X115727552Y-78746926D01*
X115667214Y-78892597D01*
X115667211Y-78892609D01*
X115636450Y-79047252D01*
X100900500Y-79047252D01*
X100900500Y-78879935D01*
X100920185Y-78812896D01*
X100921366Y-78811090D01*
X100959394Y-78754179D01*
X101019737Y-78608497D01*
X101050500Y-78453842D01*
X101050500Y-78296158D01*
X101050500Y-78296155D01*
X101050499Y-78296153D01*
X101028574Y-78185931D01*
X101019737Y-78141503D01*
X100965387Y-78010289D01*
X100959397Y-77995827D01*
X100959390Y-77995814D01*
X100871789Y-77864711D01*
X100871786Y-77864707D01*
X100760292Y-77753213D01*
X100760288Y-77753210D01*
X100629185Y-77665609D01*
X100629172Y-77665602D01*
X100483501Y-77605264D01*
X100483489Y-77605261D01*
X100328845Y-77574500D01*
X100328842Y-77574500D01*
X100171158Y-77574500D01*
X100171155Y-77574500D01*
X100016510Y-77605261D01*
X100016498Y-77605264D01*
X99870827Y-77665602D01*
X99870814Y-77665609D01*
X99739711Y-77753210D01*
X99739707Y-77753213D01*
X99628213Y-77864707D01*
X99628210Y-77864711D01*
X99540609Y-77995814D01*
X99540602Y-77995827D01*
X99480264Y-78141498D01*
X99480261Y-78141510D01*
X99449500Y-78296153D01*
X99449500Y-78453846D01*
X99480261Y-78608489D01*
X99480264Y-78608501D01*
X99540602Y-78754172D01*
X99540606Y-78754179D01*
X99578602Y-78811044D01*
X99599480Y-78877721D01*
X99599500Y-78879935D01*
X99599500Y-88495064D01*
X99579815Y-88562103D01*
X99578603Y-88563954D01*
X99540608Y-88620817D01*
X99540602Y-88620828D01*
X99480264Y-88766498D01*
X99480261Y-88766510D01*
X99449500Y-88921153D01*
X99449500Y-89078846D01*
X99480261Y-89233489D01*
X99480264Y-89233501D01*
X99540602Y-89379172D01*
X99540606Y-89379179D01*
X99578602Y-89436044D01*
X99599480Y-89502721D01*
X99599500Y-89504935D01*
X99599500Y-98880192D01*
X99579815Y-98947231D01*
X99527011Y-98992986D01*
X99457853Y-99002930D01*
X99394297Y-98973905D01*
X99387819Y-98967873D01*
X98567015Y-98147070D01*
X98533530Y-98085747D01*
X98533095Y-98083660D01*
X98519737Y-98016503D01*
X98459394Y-97870821D01*
X98421396Y-97813953D01*
X98400520Y-97747276D01*
X98400500Y-97745064D01*
X98400500Y-79235928D01*
X98375502Y-79110261D01*
X98375501Y-79110260D01*
X98375501Y-79110256D01*
X98326465Y-78991873D01*
X98311656Y-78969709D01*
X98311654Y-78969706D01*
X98311654Y-78969705D01*
X98255275Y-78885328D01*
X94067015Y-74697068D01*
X94033530Y-74635745D01*
X94033079Y-74633578D01*
X94019738Y-74566510D01*
X94019737Y-74566503D01*
X93965793Y-74436269D01*
X93959397Y-74420827D01*
X93959390Y-74420814D01*
X93871789Y-74289711D01*
X93871786Y-74289707D01*
X93760292Y-74178213D01*
X93760288Y-74178210D01*
X93629185Y-74090609D01*
X93629172Y-74090602D01*
X93483501Y-74030264D01*
X93483489Y-74030261D01*
X93328845Y-73999500D01*
X93328842Y-73999500D01*
X93171158Y-73999500D01*
X93171155Y-73999500D01*
X93016510Y-74030261D01*
X93016498Y-74030264D01*
X92870827Y-74090602D01*
X92870814Y-74090609D01*
X92739711Y-74178210D01*
X92739707Y-74178213D01*
X92628213Y-74289707D01*
X92628210Y-74289711D01*
X92540609Y-74420814D01*
X92540602Y-74420827D01*
X92480264Y-74566498D01*
X92480261Y-74566510D01*
X92449500Y-74721153D01*
X92449500Y-74878846D01*
X92480261Y-75033489D01*
X92480264Y-75033501D01*
X92540602Y-75179172D01*
X92540609Y-75179185D01*
X92628210Y-75310288D01*
X92628213Y-75310292D01*
X92739707Y-75421786D01*
X92739711Y-75421789D01*
X92870814Y-75509390D01*
X92870827Y-75509397D01*
X92958230Y-75545599D01*
X93016503Y-75569737D01*
X93083580Y-75583079D01*
X93145490Y-75615463D01*
X93147069Y-75617015D01*
X97063181Y-79533127D01*
X97096666Y-79594450D01*
X97099500Y-79620808D01*
X97099500Y-97745064D01*
X97079815Y-97812103D01*
X97078603Y-97813954D01*
X97040608Y-97870817D01*
X97040602Y-97870828D01*
X96980264Y-98016498D01*
X96980261Y-98016510D01*
X96949500Y-98171153D01*
X96949500Y-98328846D01*
X96980261Y-98483489D01*
X96980264Y-98483501D01*
X97040602Y-98629172D01*
X97040609Y-98629185D01*
X97128210Y-98760288D01*
X97128213Y-98760292D01*
X97239707Y-98871786D01*
X97239711Y-98871789D01*
X97370814Y-98959390D01*
X97370827Y-98959397D01*
X97433818Y-98985488D01*
X97516503Y-99019737D01*
X97583581Y-99033079D01*
X97645490Y-99065463D01*
X97647070Y-99067015D01*
X98623181Y-100043126D01*
X98656666Y-100104449D01*
X98659500Y-100130807D01*
X98659500Y-106166969D01*
X98660295Y-106171874D01*
X98661019Y-106174603D01*
X98667455Y-106206953D01*
X98667455Y-106206956D01*
X98684562Y-106292956D01*
X98684780Y-106293630D01*
X98686177Y-106296691D01*
X98690059Y-106306062D01*
X98699500Y-106353519D01*
X98699500Y-117750311D01*
X98679815Y-117817350D01*
X98627011Y-117863105D01*
X98557853Y-117873049D01*
X98494297Y-117844024D01*
X98472398Y-117819202D01*
X98418431Y-117738434D01*
X97736819Y-117056822D01*
X97703334Y-116995499D01*
X97700500Y-116969141D01*
X97700500Y-104485928D01*
X97675502Y-104360261D01*
X97675501Y-104360260D01*
X97675501Y-104360256D01*
X97626465Y-104241873D01*
X97620868Y-104233497D01*
X97555277Y-104135331D01*
X97555275Y-104135329D01*
X97555273Y-104135326D01*
X91686819Y-98266872D01*
X91653334Y-98205549D01*
X91650500Y-98179191D01*
X91650500Y-94921153D01*
X93199500Y-94921153D01*
X93199500Y-95078846D01*
X93230261Y-95233489D01*
X93230264Y-95233501D01*
X93290602Y-95379172D01*
X93290609Y-95379185D01*
X93378210Y-95510288D01*
X93378213Y-95510292D01*
X93489707Y-95621786D01*
X93489711Y-95621789D01*
X93620814Y-95709390D01*
X93620827Y-95709397D01*
X93772131Y-95772068D01*
X93771114Y-95774522D01*
X93819930Y-95806510D01*
X93848390Y-95870321D01*
X93849500Y-95886878D01*
X93849500Y-98495064D01*
X93829815Y-98562103D01*
X93828603Y-98563954D01*
X93790608Y-98620817D01*
X93790602Y-98620828D01*
X93730264Y-98766498D01*
X93730261Y-98766510D01*
X93699500Y-98921153D01*
X93699500Y-99078846D01*
X93730261Y-99233489D01*
X93730264Y-99233501D01*
X93790602Y-99379172D01*
X93790609Y-99379185D01*
X93878210Y-99510288D01*
X93878213Y-99510292D01*
X93989707Y-99621786D01*
X93989711Y-99621789D01*
X94120814Y-99709390D01*
X94120827Y-99709397D01*
X94266498Y-99769735D01*
X94266503Y-99769737D01*
X94421153Y-99800499D01*
X94421156Y-99800500D01*
X94421158Y-99800500D01*
X94578844Y-99800500D01*
X94578845Y-99800499D01*
X94733497Y-99769737D01*
X94879179Y-99709394D01*
X95010289Y-99621789D01*
X95121789Y-99510289D01*
X95209394Y-99379179D01*
X95269737Y-99233497D01*
X95300500Y-99078842D01*
X95300500Y-98921158D01*
X95300500Y-98921155D01*
X95300499Y-98921153D01*
X95290486Y-98870817D01*
X95269737Y-98766503D01*
X95256062Y-98733489D01*
X95209397Y-98620828D01*
X95209396Y-98620827D01*
X95209394Y-98620821D01*
X95171396Y-98563953D01*
X95150520Y-98497276D01*
X95150500Y-98495064D01*
X95150500Y-95435928D01*
X95125502Y-95310261D01*
X95125501Y-95310260D01*
X95125501Y-95310256D01*
X95076465Y-95191873D01*
X95068850Y-95180476D01*
X95005277Y-95085331D01*
X95005275Y-95085328D01*
X95005272Y-95085325D01*
X94817014Y-94897068D01*
X94783529Y-94835745D01*
X94783105Y-94833714D01*
X94769737Y-94766503D01*
X94732522Y-94676657D01*
X94709397Y-94620827D01*
X94709390Y-94620814D01*
X94621789Y-94489711D01*
X94621786Y-94489707D01*
X94510292Y-94378213D01*
X94510288Y-94378210D01*
X94379185Y-94290609D01*
X94379172Y-94290602D01*
X94233501Y-94230264D01*
X94233489Y-94230261D01*
X94078845Y-94199500D01*
X94078842Y-94199500D01*
X93921158Y-94199500D01*
X93921155Y-94199500D01*
X93766510Y-94230261D01*
X93766498Y-94230264D01*
X93620827Y-94290602D01*
X93620814Y-94290609D01*
X93489711Y-94378210D01*
X93489707Y-94378213D01*
X93378213Y-94489707D01*
X93378210Y-94489711D01*
X93290609Y-94620814D01*
X93290602Y-94620827D01*
X93230264Y-94766498D01*
X93230261Y-94766510D01*
X93199500Y-94921153D01*
X91650500Y-94921153D01*
X91650500Y-75304935D01*
X91670185Y-75237896D01*
X91671366Y-75236090D01*
X91709394Y-75179179D01*
X91769737Y-75033497D01*
X91800500Y-74878842D01*
X91800500Y-74721158D01*
X91800500Y-74721155D01*
X91800499Y-74721153D01*
X91790418Y-74670471D01*
X91769737Y-74566503D01*
X91715793Y-74436269D01*
X91709397Y-74420827D01*
X91709390Y-74420814D01*
X91621789Y-74289711D01*
X91621786Y-74289707D01*
X91510292Y-74178213D01*
X91510288Y-74178210D01*
X91379185Y-74090609D01*
X91379172Y-74090602D01*
X91233501Y-74030264D01*
X91233489Y-74030261D01*
X91078845Y-73999500D01*
X91078842Y-73999500D01*
X90921158Y-73999500D01*
X90921155Y-73999500D01*
X90766510Y-74030261D01*
X90766507Y-74030262D01*
X90766506Y-74030262D01*
X90766503Y-74030263D01*
X90685410Y-74063852D01*
X90671452Y-74069634D01*
X90601982Y-74077102D01*
X90539503Y-74045826D01*
X90503851Y-73985737D01*
X90500000Y-73955072D01*
X90500000Y-70189598D01*
X90501639Y-70169502D01*
X90502633Y-70163443D01*
X90514271Y-70120014D01*
X90532213Y-69983730D01*
X90548500Y-69860018D01*
X90548500Y-65868880D01*
X90514270Y-65608884D01*
X90507998Y-65585477D01*
X90504225Y-65571393D01*
X90500000Y-65539302D01*
X90500000Y-64500000D01*
X89921433Y-64500000D01*
X89854394Y-64480315D01*
X89845946Y-64474375D01*
X89845883Y-64474327D01*
X89831623Y-64463385D01*
X89661803Y-64333075D01*
X89434700Y-64201958D01*
X89434690Y-64201953D01*
X89192428Y-64101605D01*
X89192421Y-64101603D01*
X89192419Y-64101602D01*
X88939116Y-64033730D01*
X88881339Y-64026123D01*
X88679127Y-63999500D01*
X88679120Y-63999500D01*
X88416880Y-63999500D01*
X88416872Y-63999500D01*
X88185772Y-64029926D01*
X88156884Y-64033730D01*
X87974636Y-64082563D01*
X87903581Y-64101602D01*
X87903571Y-64101605D01*
X87661309Y-64201953D01*
X87661299Y-64201958D01*
X87434196Y-64333075D01*
X87258440Y-64467939D01*
X87250117Y-64474327D01*
X87250054Y-64474375D01*
X87184885Y-64499570D01*
X87174567Y-64500000D01*
X87000000Y-64500000D01*
X87000000Y-64689119D01*
X86994255Y-64708681D01*
X86993393Y-64729056D01*
X86982043Y-64750272D01*
X86980315Y-64756158D01*
X86977386Y-64760512D01*
X86975912Y-64762604D01*
X86881076Y-64886197D01*
X86845535Y-64947754D01*
X86842319Y-64952323D01*
X86819160Y-64970733D01*
X86797752Y-64991146D01*
X86792118Y-64992231D01*
X86787626Y-64995803D01*
X86758189Y-64998770D01*
X86729145Y-65004368D01*
X86723818Y-65002235D01*
X86718109Y-65002811D01*
X86691743Y-64989394D01*
X86664280Y-64978400D01*
X86658356Y-64972405D01*
X86655838Y-64971124D01*
X86654025Y-64968021D01*
X86642556Y-64956415D01*
X86639117Y-64951934D01*
X85915078Y-65675974D01*
X85902141Y-65644742D01*
X85820063Y-65521903D01*
X85715597Y-65417437D01*
X85592758Y-65335359D01*
X85561523Y-65322421D01*
X86285564Y-64598381D01*
X86285564Y-64598380D01*
X86211831Y-64541805D01*
X86211824Y-64541799D01*
X86013169Y-64427106D01*
X86013159Y-64427102D01*
X85801230Y-64339318D01*
X85579637Y-64279942D01*
X85352210Y-64250001D01*
X85352194Y-64250000D01*
X85122806Y-64250000D01*
X85122789Y-64250001D01*
X84895362Y-64279942D01*
X84673769Y-64339318D01*
X84461840Y-64427102D01*
X84461830Y-64427106D01*
X84263173Y-64541801D01*
X84263159Y-64541810D01*
X84189434Y-64598380D01*
X84913475Y-65322421D01*
X84882242Y-65335359D01*
X84759403Y-65417437D01*
X84654937Y-65521903D01*
X84572859Y-65644742D01*
X84559921Y-65675975D01*
X83835880Y-64951934D01*
X83779310Y-65025659D01*
X83779301Y-65025673D01*
X83664606Y-65224330D01*
X83664602Y-65224340D01*
X83602061Y-65375328D01*
X83558220Y-65429731D01*
X83491926Y-65451796D01*
X83424227Y-65434517D01*
X83376616Y-65383380D01*
X83372939Y-65375328D01*
X83310397Y-65224340D01*
X83310393Y-65224330D01*
X83195694Y-65025666D01*
X83139118Y-64951934D01*
X83139117Y-64951934D01*
X82415077Y-65675973D01*
X82402141Y-65644742D01*
X82320063Y-65521903D01*
X82215597Y-65417437D01*
X82092758Y-65335359D01*
X82061523Y-65322421D01*
X82785564Y-64598381D01*
X82785564Y-64598380D01*
X82711831Y-64541805D01*
X82711824Y-64541799D01*
X82513169Y-64427106D01*
X82513159Y-64427102D01*
X82301230Y-64339318D01*
X82079637Y-64279942D01*
X81852210Y-64250001D01*
X81852194Y-64250000D01*
X81622806Y-64250000D01*
X81622789Y-64250001D01*
X81395362Y-64279942D01*
X81173769Y-64339318D01*
X80961840Y-64427102D01*
X80961830Y-64427106D01*
X80763173Y-64541801D01*
X80763159Y-64541810D01*
X80689434Y-64598380D01*
X81413475Y-65322421D01*
X81382242Y-65335359D01*
X81259403Y-65417437D01*
X81154937Y-65521903D01*
X81072859Y-65644742D01*
X81059921Y-65675975D01*
X80335880Y-64951934D01*
X80279310Y-65025659D01*
X80279301Y-65025673D01*
X80164606Y-65224330D01*
X80164601Y-65224340D01*
X80102331Y-65374675D01*
X80058490Y-65429078D01*
X79992196Y-65451143D01*
X79924496Y-65433864D01*
X79876886Y-65382726D01*
X79873209Y-65374674D01*
X79810849Y-65224123D01*
X79810846Y-65224117D01*
X79810844Y-65224112D01*
X79696111Y-65025388D01*
X79696108Y-65025385D01*
X79696107Y-65025382D01*
X79556418Y-64843338D01*
X79556411Y-64843330D01*
X79394170Y-64681089D01*
X79394161Y-64681081D01*
X79212117Y-64541392D01*
X79013390Y-64426657D01*
X79013376Y-64426650D01*
X78801387Y-64338842D01*
X78779864Y-64333075D01*
X78579738Y-64279452D01*
X78541715Y-64274446D01*
X78352241Y-64249500D01*
X78352234Y-64249500D01*
X78122766Y-64249500D01*
X78122758Y-64249500D01*
X77906215Y-64278009D01*
X77895262Y-64279452D01*
X77801576Y-64304554D01*
X77673612Y-64338842D01*
X77461623Y-64426650D01*
X77461609Y-64426657D01*
X77262882Y-64541392D01*
X77080838Y-64681081D01*
X76918581Y-64843338D01*
X76778892Y-65025382D01*
X76664157Y-65224109D01*
X76664150Y-65224123D01*
X76577003Y-65434517D01*
X76576342Y-65436113D01*
X76536321Y-65585477D01*
X76516953Y-65657759D01*
X76516951Y-65657770D01*
X76487000Y-65885258D01*
X76487000Y-66114741D01*
X76500696Y-66218767D01*
X76516952Y-66342238D01*
X76516953Y-66342240D01*
X76576342Y-66563887D01*
X76664150Y-66775876D01*
X76664157Y-66775890D01*
X76715621Y-66865029D01*
X76778728Y-66974334D01*
X76778892Y-66974617D01*
X76918581Y-67156661D01*
X76918589Y-67156670D01*
X77080830Y-67318911D01*
X77080838Y-67318918D01*
X77262882Y-67458607D01*
X77262885Y-67458608D01*
X77262888Y-67458611D01*
X77461612Y-67573344D01*
X77461617Y-67573346D01*
X77461623Y-67573349D01*
X77512742Y-67594523D01*
X77673613Y-67661158D01*
X77895262Y-67720548D01*
X78111812Y-67749057D01*
X78118960Y-67749999D01*
X78122766Y-67750500D01*
X78122773Y-67750500D01*
X78352227Y-67750500D01*
X78352234Y-67750500D01*
X78579738Y-67720548D01*
X78801387Y-67661158D01*
X79013388Y-67573344D01*
X79212112Y-67458611D01*
X79394161Y-67318919D01*
X79394165Y-67318914D01*
X79394170Y-67318911D01*
X79556411Y-67156670D01*
X79556414Y-67156665D01*
X79556419Y-67156661D01*
X79696111Y-66974612D01*
X79810844Y-66775888D01*
X79873209Y-66625323D01*
X79917049Y-66570921D01*
X79983343Y-66548856D01*
X80051043Y-66566135D01*
X80098654Y-66617272D01*
X80102331Y-66625324D01*
X80164602Y-66775659D01*
X80164606Y-66775669D01*
X80279299Y-66974324D01*
X80279305Y-66974331D01*
X80335881Y-67048064D01*
X81059921Y-66324024D01*
X81072859Y-66355258D01*
X81154937Y-66478097D01*
X81259403Y-66582563D01*
X81382242Y-66664641D01*
X81413474Y-66677578D01*
X80689434Y-67401617D01*
X80689434Y-67401618D01*
X80763166Y-67458194D01*
X80961830Y-67572893D01*
X80961840Y-67572897D01*
X81173769Y-67660681D01*
X81395362Y-67720057D01*
X81622789Y-67749998D01*
X81622806Y-67750000D01*
X81852194Y-67750000D01*
X81852210Y-67749998D01*
X82079637Y-67720057D01*
X82301230Y-67660681D01*
X82513159Y-67572897D01*
X82513168Y-67572893D01*
X82711827Y-67458197D01*
X82711834Y-67458192D01*
X82785564Y-67401617D01*
X82061525Y-66677578D01*
X82092758Y-66664641D01*
X82215597Y-66582563D01*
X82320063Y-66478097D01*
X82402141Y-66355258D01*
X82415078Y-66324025D01*
X83139117Y-67048064D01*
X83195692Y-66974334D01*
X83195697Y-66974327D01*
X83310393Y-66775668D01*
X83310400Y-66775654D01*
X83372939Y-66624672D01*
X83416780Y-66570268D01*
X83483074Y-66548203D01*
X83550773Y-66565482D01*
X83598384Y-66616619D01*
X83602061Y-66624672D01*
X83664599Y-66775654D01*
X83664606Y-66775669D01*
X83779299Y-66974324D01*
X83779305Y-66974331D01*
X83835881Y-67048064D01*
X84559921Y-66324024D01*
X84572859Y-66355258D01*
X84654937Y-66478097D01*
X84759403Y-66582563D01*
X84882242Y-66664641D01*
X84913474Y-66677578D01*
X84189434Y-67401617D01*
X84189434Y-67401618D01*
X84263166Y-67458194D01*
X84367814Y-67518613D01*
X84416030Y-67569180D01*
X84429253Y-67637787D01*
X84403285Y-67702652D01*
X84346370Y-67743180D01*
X84305814Y-67750000D01*
X83500000Y-67750000D01*
X83500000Y-71896400D01*
X83480315Y-71963439D01*
X83463681Y-71984081D01*
X82613315Y-72834446D01*
X82610619Y-72837062D01*
X77975100Y-77199905D01*
X77964957Y-77205887D01*
X77959755Y-77212206D01*
X77935203Y-77223438D01*
X77928029Y-77227670D01*
X77925143Y-77228596D01*
X77839286Y-77251602D01*
X77794930Y-77269975D01*
X77790233Y-77271920D01*
X77790222Y-77271924D01*
X77597023Y-77351949D01*
X77597014Y-77351953D01*
X77597009Y-77351956D01*
X77536155Y-77387089D01*
X77536154Y-77387089D01*
X77369908Y-77483072D01*
X77369891Y-77483083D01*
X77264352Y-77564068D01*
X77264351Y-77564069D01*
X77161852Y-77642718D01*
X77161847Y-77642722D01*
X75977558Y-78827011D01*
X74840889Y-79963681D01*
X74779566Y-79997166D01*
X74753208Y-80000000D01*
X50624500Y-80000000D01*
X50557461Y-79980315D01*
X50511706Y-79927511D01*
X50500500Y-79876000D01*
X50500500Y-74885305D01*
X51250000Y-74885305D01*
X51250000Y-75114694D01*
X51250001Y-75114710D01*
X51279942Y-75342137D01*
X51339318Y-75563730D01*
X51427102Y-75775659D01*
X51427106Y-75775669D01*
X51541799Y-75974324D01*
X51541805Y-75974331D01*
X51598381Y-76048064D01*
X52322421Y-75324024D01*
X52335359Y-75355258D01*
X52417437Y-75478097D01*
X52521903Y-75582563D01*
X52644742Y-75664641D01*
X52675974Y-75677578D01*
X51951934Y-76401617D01*
X51951934Y-76401618D01*
X52025666Y-76458194D01*
X52224330Y-76572893D01*
X52224340Y-76572897D01*
X52436269Y-76660681D01*
X52657862Y-76720057D01*
X52885289Y-76749998D01*
X52885306Y-76750000D01*
X53114694Y-76750000D01*
X53114710Y-76749998D01*
X53342137Y-76720057D01*
X53563730Y-76660681D01*
X53775659Y-76572897D01*
X53775668Y-76572893D01*
X53974327Y-76458197D01*
X53974334Y-76458192D01*
X54048064Y-76401617D01*
X53324025Y-75677578D01*
X53355258Y-75664641D01*
X53478097Y-75582563D01*
X53582563Y-75478097D01*
X53664641Y-75355258D01*
X53677578Y-75324025D01*
X54401617Y-76048064D01*
X54458192Y-75974334D01*
X54458197Y-75974327D01*
X54572893Y-75775668D01*
X54572900Y-75775654D01*
X54635168Y-75625325D01*
X54679008Y-75570921D01*
X54745302Y-75548856D01*
X54813002Y-75566135D01*
X54860613Y-75617272D01*
X54864290Y-75625324D01*
X54926652Y-75775881D01*
X54926657Y-75775890D01*
X54986291Y-75879179D01*
X55041228Y-75974334D01*
X55041392Y-75974617D01*
X55181081Y-76156661D01*
X55181089Y-76156670D01*
X55343330Y-76318911D01*
X55343338Y-76318918D01*
X55525382Y-76458607D01*
X55525385Y-76458608D01*
X55525388Y-76458611D01*
X55724112Y-76573344D01*
X55724117Y-76573346D01*
X55724123Y-76573349D01*
X55772384Y-76593339D01*
X55936113Y-76661158D01*
X56157762Y-76720548D01*
X56385266Y-76750500D01*
X56385273Y-76750500D01*
X56614727Y-76750500D01*
X56614734Y-76750500D01*
X56842238Y-76720548D01*
X57063887Y-76661158D01*
X57275888Y-76573344D01*
X57474612Y-76458611D01*
X57656661Y-76318919D01*
X57656665Y-76318914D01*
X57656670Y-76318911D01*
X57818911Y-76156670D01*
X57818914Y-76156665D01*
X57818919Y-76156661D01*
X57958611Y-75974612D01*
X58073344Y-75775888D01*
X58135439Y-75625976D01*
X58179279Y-75571573D01*
X58245574Y-75549508D01*
X58313273Y-75566787D01*
X58360884Y-75617924D01*
X58364561Y-75625977D01*
X58426650Y-75775876D01*
X58426657Y-75775890D01*
X58486291Y-75879179D01*
X58541228Y-75974334D01*
X58541392Y-75974617D01*
X58681081Y-76156661D01*
X58681089Y-76156670D01*
X58843330Y-76318911D01*
X58843338Y-76318918D01*
X59025382Y-76458607D01*
X59025385Y-76458608D01*
X59025388Y-76458611D01*
X59224112Y-76573344D01*
X59224117Y-76573346D01*
X59224123Y-76573349D01*
X59272384Y-76593339D01*
X59436113Y-76661158D01*
X59657762Y-76720548D01*
X59885266Y-76750500D01*
X59885273Y-76750500D01*
X60114727Y-76750500D01*
X60114734Y-76750500D01*
X60342238Y-76720548D01*
X60563887Y-76661158D01*
X60775888Y-76573344D01*
X60974612Y-76458611D01*
X61156661Y-76318919D01*
X61156665Y-76318914D01*
X61156670Y-76318911D01*
X61318911Y-76156670D01*
X61318914Y-76156665D01*
X61318919Y-76156661D01*
X61458611Y-75974612D01*
X61573344Y-75775888D01*
X61635439Y-75625976D01*
X61679279Y-75571573D01*
X61745574Y-75549508D01*
X61813273Y-75566787D01*
X61860884Y-75617924D01*
X61864561Y-75625977D01*
X61926650Y-75775876D01*
X61926657Y-75775890D01*
X61986291Y-75879179D01*
X62041228Y-75974334D01*
X62041392Y-75974617D01*
X62181081Y-76156661D01*
X62181089Y-76156670D01*
X62343330Y-76318911D01*
X62343338Y-76318918D01*
X62525382Y-76458607D01*
X62525385Y-76458608D01*
X62525388Y-76458611D01*
X62724112Y-76573344D01*
X62724117Y-76573346D01*
X62724123Y-76573349D01*
X62772384Y-76593339D01*
X62936113Y-76661158D01*
X63157762Y-76720548D01*
X63385266Y-76750500D01*
X63385273Y-76750500D01*
X63614727Y-76750500D01*
X63614734Y-76750500D01*
X63842238Y-76720548D01*
X64063887Y-76661158D01*
X64275888Y-76573344D01*
X64474612Y-76458611D01*
X64656661Y-76318919D01*
X64656665Y-76318914D01*
X64656670Y-76318911D01*
X64818911Y-76156670D01*
X64818914Y-76156665D01*
X64818919Y-76156661D01*
X64958611Y-75974612D01*
X65073344Y-75775888D01*
X65161158Y-75563887D01*
X65220548Y-75342238D01*
X65250500Y-75114734D01*
X65250500Y-74885266D01*
X65220548Y-74657762D01*
X65161158Y-74436113D01*
X65100516Y-74289711D01*
X65073349Y-74224123D01*
X65073346Y-74224117D01*
X65073344Y-74224112D01*
X64958611Y-74025388D01*
X64958608Y-74025385D01*
X64958607Y-74025382D01*
X64818918Y-73843338D01*
X64818911Y-73843330D01*
X64656670Y-73681089D01*
X64656661Y-73681081D01*
X64474617Y-73541392D01*
X64275890Y-73426657D01*
X64275876Y-73426650D01*
X64063887Y-73338842D01*
X63842238Y-73279452D01*
X63804215Y-73274446D01*
X63614741Y-73249500D01*
X63614734Y-73249500D01*
X63385266Y-73249500D01*
X63385258Y-73249500D01*
X63168715Y-73278009D01*
X63157762Y-73279452D01*
X63064076Y-73304554D01*
X62936112Y-73338842D01*
X62724123Y-73426650D01*
X62724109Y-73426657D01*
X62525382Y-73541392D01*
X62343338Y-73681081D01*
X62181081Y-73843338D01*
X62041392Y-74025382D01*
X61926657Y-74224109D01*
X61926650Y-74224123D01*
X61864561Y-74374022D01*
X61820720Y-74428426D01*
X61754426Y-74450491D01*
X61686727Y-74433212D01*
X61639116Y-74382075D01*
X61635439Y-74374022D01*
X61573349Y-74224123D01*
X61573346Y-74224117D01*
X61573344Y-74224112D01*
X61458611Y-74025388D01*
X61458608Y-74025385D01*
X61458607Y-74025382D01*
X61318918Y-73843338D01*
X61318911Y-73843330D01*
X61156670Y-73681089D01*
X61156661Y-73681081D01*
X60974617Y-73541392D01*
X60775890Y-73426657D01*
X60775876Y-73426650D01*
X60563887Y-73338842D01*
X60342238Y-73279452D01*
X60304215Y-73274446D01*
X60114741Y-73249500D01*
X60114734Y-73249500D01*
X59885266Y-73249500D01*
X59885258Y-73249500D01*
X59668715Y-73278009D01*
X59657762Y-73279452D01*
X59564076Y-73304554D01*
X59436112Y-73338842D01*
X59224123Y-73426650D01*
X59224109Y-73426657D01*
X59025382Y-73541392D01*
X58843338Y-73681081D01*
X58681081Y-73843338D01*
X58541392Y-74025382D01*
X58426657Y-74224109D01*
X58426650Y-74224123D01*
X58364561Y-74374022D01*
X58320720Y-74428426D01*
X58254426Y-74450491D01*
X58186727Y-74433212D01*
X58139116Y-74382075D01*
X58135439Y-74374022D01*
X58073349Y-74224123D01*
X58073346Y-74224117D01*
X58073344Y-74224112D01*
X57958611Y-74025388D01*
X57958608Y-74025385D01*
X57958607Y-74025382D01*
X57818918Y-73843338D01*
X57818911Y-73843330D01*
X57656670Y-73681089D01*
X57656661Y-73681081D01*
X57474617Y-73541392D01*
X57275890Y-73426657D01*
X57275876Y-73426650D01*
X57063887Y-73338842D01*
X56842238Y-73279452D01*
X56804215Y-73274446D01*
X56614741Y-73249500D01*
X56614734Y-73249500D01*
X56385266Y-73249500D01*
X56385258Y-73249500D01*
X56168715Y-73278009D01*
X56157762Y-73279452D01*
X56064076Y-73304554D01*
X55936112Y-73338842D01*
X55724123Y-73426650D01*
X55724109Y-73426657D01*
X55525382Y-73541392D01*
X55343338Y-73681081D01*
X55181081Y-73843338D01*
X55041392Y-74025382D01*
X54926657Y-74224109D01*
X54926652Y-74224118D01*
X54864290Y-74374675D01*
X54820449Y-74429078D01*
X54754155Y-74451143D01*
X54686455Y-74433864D01*
X54638845Y-74382726D01*
X54635168Y-74374674D01*
X54572900Y-74224345D01*
X54572893Y-74224330D01*
X54458194Y-74025666D01*
X54401618Y-73951934D01*
X54401617Y-73951934D01*
X53677577Y-74675973D01*
X53664641Y-74644742D01*
X53582563Y-74521903D01*
X53478097Y-74417437D01*
X53355258Y-74335359D01*
X53324023Y-74322421D01*
X54048064Y-73598381D01*
X54048064Y-73598380D01*
X53974331Y-73541805D01*
X53974324Y-73541799D01*
X53775669Y-73427106D01*
X53775659Y-73427102D01*
X53563730Y-73339318D01*
X53342137Y-73279942D01*
X53114710Y-73250001D01*
X53114694Y-73250000D01*
X52885306Y-73250000D01*
X52885289Y-73250001D01*
X52657862Y-73279942D01*
X52436269Y-73339318D01*
X52224340Y-73427102D01*
X52224330Y-73427106D01*
X52025673Y-73541801D01*
X52025659Y-73541810D01*
X51951934Y-73598380D01*
X52675975Y-74322421D01*
X52644742Y-74335359D01*
X52521903Y-74417437D01*
X52417437Y-74521903D01*
X52335359Y-74644742D01*
X52322421Y-74675975D01*
X51598380Y-73951934D01*
X51541810Y-74025659D01*
X51541801Y-74025673D01*
X51427106Y-74224330D01*
X51427102Y-74224340D01*
X51339318Y-74436269D01*
X51279942Y-74657862D01*
X51250001Y-74885289D01*
X51250000Y-74885305D01*
X50500500Y-74885305D01*
X50500500Y-57874000D01*
X50520185Y-57806961D01*
X50572989Y-57761206D01*
X50624500Y-57750000D01*
X57030693Y-57750000D01*
X57097732Y-57769685D01*
X57143487Y-57822489D01*
X57153431Y-57891647D01*
X57124406Y-57955203D01*
X57118380Y-57961674D01*
X56929554Y-58150500D01*
X55994727Y-59085325D01*
X55994724Y-59085328D01*
X55947081Y-59156631D01*
X55947082Y-59156632D01*
X55923534Y-59191874D01*
X55874499Y-59310255D01*
X55874497Y-59310261D01*
X55849500Y-59435928D01*
X55849500Y-61791864D01*
X55829815Y-61858903D01*
X55777011Y-61904658D01*
X55772955Y-61906424D01*
X55724107Y-61926658D01*
X55724103Y-61926660D01*
X55525382Y-62041392D01*
X55343338Y-62181081D01*
X55181081Y-62343338D01*
X55041392Y-62525382D01*
X54926657Y-62724109D01*
X54926652Y-62724118D01*
X54864290Y-62874675D01*
X54820449Y-62929078D01*
X54754155Y-62951143D01*
X54686455Y-62933864D01*
X54638845Y-62882726D01*
X54635168Y-62874674D01*
X54572900Y-62724345D01*
X54572893Y-62724330D01*
X54458194Y-62525666D01*
X54401618Y-62451934D01*
X54401617Y-62451934D01*
X53677577Y-63175973D01*
X53664641Y-63144742D01*
X53582563Y-63021903D01*
X53478097Y-62917437D01*
X53355258Y-62835359D01*
X53324023Y-62822421D01*
X54048064Y-62098381D01*
X54048064Y-62098380D01*
X53974331Y-62041805D01*
X53974324Y-62041799D01*
X53775669Y-61927106D01*
X53775659Y-61927102D01*
X53563730Y-61839318D01*
X53342137Y-61779942D01*
X53114710Y-61750001D01*
X53114694Y-61750000D01*
X52885306Y-61750000D01*
X52885289Y-61750001D01*
X52657862Y-61779942D01*
X52436269Y-61839318D01*
X52224340Y-61927102D01*
X52224330Y-61927106D01*
X52025673Y-62041801D01*
X52025659Y-62041810D01*
X51951934Y-62098380D01*
X52675975Y-62822421D01*
X52644742Y-62835359D01*
X52521903Y-62917437D01*
X52417437Y-63021903D01*
X52335359Y-63144742D01*
X52322421Y-63175975D01*
X51598380Y-62451934D01*
X51541810Y-62525659D01*
X51541801Y-62525673D01*
X51427106Y-62724330D01*
X51427102Y-62724340D01*
X51339318Y-62936269D01*
X51279942Y-63157862D01*
X51250001Y-63385289D01*
X51250000Y-63385305D01*
X51250000Y-63614694D01*
X51250001Y-63614710D01*
X51279942Y-63842137D01*
X51339318Y-64063730D01*
X51427102Y-64275659D01*
X51427106Y-64275669D01*
X51541799Y-64474324D01*
X51541805Y-64474331D01*
X51598381Y-64548064D01*
X52322421Y-63824024D01*
X52335359Y-63855258D01*
X52417437Y-63978097D01*
X52521903Y-64082563D01*
X52644742Y-64164641D01*
X52675974Y-64177578D01*
X51951934Y-64901617D01*
X51951934Y-64901618D01*
X52025666Y-64958194D01*
X52224330Y-65072893D01*
X52224340Y-65072897D01*
X52436269Y-65160681D01*
X52657862Y-65220057D01*
X52885289Y-65249998D01*
X52885306Y-65250000D01*
X53114694Y-65250000D01*
X53114710Y-65249998D01*
X53342137Y-65220057D01*
X53563730Y-65160681D01*
X53775659Y-65072897D01*
X53775668Y-65072893D01*
X53974327Y-64958197D01*
X53974334Y-64958192D01*
X54048064Y-64901617D01*
X53324025Y-64177578D01*
X53355258Y-64164641D01*
X53478097Y-64082563D01*
X53582563Y-63978097D01*
X53664641Y-63855258D01*
X53677578Y-63824025D01*
X54401617Y-64548064D01*
X54458192Y-64474334D01*
X54458197Y-64474327D01*
X54572893Y-64275668D01*
X54572900Y-64275654D01*
X54635168Y-64125325D01*
X54679008Y-64070921D01*
X54745302Y-64048856D01*
X54813002Y-64066135D01*
X54860613Y-64117272D01*
X54864290Y-64125324D01*
X54926652Y-64275881D01*
X54926657Y-64275890D01*
X54955027Y-64325029D01*
X55041228Y-64474334D01*
X55041392Y-64474617D01*
X55181081Y-64656661D01*
X55181089Y-64656670D01*
X55343330Y-64818911D01*
X55343338Y-64818918D01*
X55525382Y-64958607D01*
X55525385Y-64958608D01*
X55525388Y-64958611D01*
X55724112Y-65073344D01*
X55724117Y-65073346D01*
X55724123Y-65073349D01*
X55815480Y-65111190D01*
X55936113Y-65161158D01*
X56157762Y-65220548D01*
X56385266Y-65250500D01*
X56385273Y-65250500D01*
X56614727Y-65250500D01*
X56614734Y-65250500D01*
X56842238Y-65220548D01*
X57063887Y-65161158D01*
X57275888Y-65073344D01*
X57474612Y-64958611D01*
X57656661Y-64818919D01*
X57656665Y-64818914D01*
X57656670Y-64818911D01*
X57818911Y-64656670D01*
X57818914Y-64656665D01*
X57818919Y-64656661D01*
X57958611Y-64474612D01*
X58073344Y-64275888D01*
X58135439Y-64125976D01*
X58179279Y-64071573D01*
X58245574Y-64049508D01*
X58313273Y-64066787D01*
X58360884Y-64117924D01*
X58364556Y-64125967D01*
X58368411Y-64135272D01*
X58426650Y-64275876D01*
X58426657Y-64275890D01*
X58455027Y-64325029D01*
X58541228Y-64474334D01*
X58541392Y-64474617D01*
X58681081Y-64656661D01*
X58681089Y-64656670D01*
X58843330Y-64818911D01*
X58843338Y-64818918D01*
X59025382Y-64958607D01*
X59025385Y-64958608D01*
X59025388Y-64958611D01*
X59224112Y-65073344D01*
X59224117Y-65073346D01*
X59224123Y-65073349D01*
X59315480Y-65111190D01*
X59436113Y-65161158D01*
X59657762Y-65220548D01*
X59885266Y-65250500D01*
X59885273Y-65250500D01*
X60114727Y-65250500D01*
X60114734Y-65250500D01*
X60342238Y-65220548D01*
X60563887Y-65161158D01*
X60775888Y-65073344D01*
X60974612Y-64958611D01*
X61156661Y-64818919D01*
X61156665Y-64818914D01*
X61156670Y-64818911D01*
X61318911Y-64656670D01*
X61318914Y-64656665D01*
X61318919Y-64656661D01*
X61458611Y-64474612D01*
X61573344Y-64275888D01*
X61635439Y-64125976D01*
X61679279Y-64071573D01*
X61745574Y-64049508D01*
X61813273Y-64066787D01*
X61860884Y-64117924D01*
X61864556Y-64125967D01*
X61868411Y-64135272D01*
X61926650Y-64275876D01*
X61926657Y-64275890D01*
X61955027Y-64325029D01*
X62041228Y-64474334D01*
X62041392Y-64474617D01*
X62181081Y-64656661D01*
X62181089Y-64656670D01*
X62343330Y-64818911D01*
X62343338Y-64818918D01*
X62525382Y-64958607D01*
X62525385Y-64958608D01*
X62525388Y-64958611D01*
X62724112Y-65073344D01*
X62724117Y-65073346D01*
X62724123Y-65073349D01*
X62815480Y-65111190D01*
X62936113Y-65161158D01*
X63157762Y-65220548D01*
X63385266Y-65250500D01*
X63385273Y-65250500D01*
X63614727Y-65250500D01*
X63614734Y-65250500D01*
X63842238Y-65220548D01*
X64063887Y-65161158D01*
X64275888Y-65073344D01*
X64474612Y-64958611D01*
X64656661Y-64818919D01*
X64656665Y-64818914D01*
X64656670Y-64818911D01*
X64818911Y-64656670D01*
X64818914Y-64656665D01*
X64818919Y-64656661D01*
X64958611Y-64474612D01*
X65073344Y-64275888D01*
X65161158Y-64063887D01*
X65220548Y-63842238D01*
X65250500Y-63614734D01*
X65250500Y-63385266D01*
X65220548Y-63157762D01*
X65161158Y-62936113D01*
X65092428Y-62770185D01*
X65073349Y-62724123D01*
X65073346Y-62724117D01*
X65073344Y-62724112D01*
X64958611Y-62525388D01*
X64958608Y-62525385D01*
X64958607Y-62525382D01*
X64818918Y-62343338D01*
X64818911Y-62343330D01*
X64656670Y-62181089D01*
X64656661Y-62181081D01*
X64474617Y-62041392D01*
X64433314Y-62017546D01*
X64346320Y-61967320D01*
X64275890Y-61926657D01*
X64275876Y-61926650D01*
X64063887Y-61838842D01*
X63842238Y-61779452D01*
X63804215Y-61774446D01*
X63614741Y-61749500D01*
X63614734Y-61749500D01*
X63385266Y-61749500D01*
X63385258Y-61749500D01*
X63168715Y-61778009D01*
X63157762Y-61779452D01*
X63064076Y-61804554D01*
X62936112Y-61838842D01*
X62724123Y-61926650D01*
X62724109Y-61926657D01*
X62525382Y-62041392D01*
X62343338Y-62181081D01*
X62181081Y-62343338D01*
X62041392Y-62525382D01*
X61926657Y-62724109D01*
X61926650Y-62724123D01*
X61864561Y-62874022D01*
X61820720Y-62928426D01*
X61754426Y-62950491D01*
X61686727Y-62933212D01*
X61639116Y-62882075D01*
X61635439Y-62874022D01*
X61573349Y-62724123D01*
X61573346Y-62724117D01*
X61573344Y-62724112D01*
X61458611Y-62525388D01*
X61458608Y-62525385D01*
X61458607Y-62525382D01*
X61318918Y-62343338D01*
X61318911Y-62343330D01*
X61156670Y-62181089D01*
X61156661Y-62181081D01*
X60974617Y-62041392D01*
X60933314Y-62017546D01*
X60846320Y-61967320D01*
X60775890Y-61926657D01*
X60775876Y-61926650D01*
X60563887Y-61838842D01*
X60342238Y-61779452D01*
X60304215Y-61774446D01*
X60114741Y-61749500D01*
X60114734Y-61749500D01*
X59885266Y-61749500D01*
X59885258Y-61749500D01*
X59668715Y-61778009D01*
X59657762Y-61779452D01*
X59564076Y-61804554D01*
X59436112Y-61838842D01*
X59224123Y-61926650D01*
X59224109Y-61926657D01*
X59025382Y-62041392D01*
X58843338Y-62181081D01*
X58681081Y-62343338D01*
X58541392Y-62525382D01*
X58426657Y-62724109D01*
X58426650Y-62724123D01*
X58364561Y-62874022D01*
X58320720Y-62928426D01*
X58254426Y-62950491D01*
X58186727Y-62933212D01*
X58139116Y-62882075D01*
X58135439Y-62874022D01*
X58073349Y-62724123D01*
X58073346Y-62724117D01*
X58073344Y-62724112D01*
X57958611Y-62525388D01*
X57958608Y-62525385D01*
X57958607Y-62525382D01*
X57818918Y-62343338D01*
X57818911Y-62343330D01*
X57656670Y-62181089D01*
X57656661Y-62181081D01*
X57474617Y-62041392D01*
X57275896Y-61926660D01*
X57275892Y-61926658D01*
X57275890Y-61926657D01*
X57275888Y-61926656D01*
X57251256Y-61916453D01*
X57227045Y-61906424D01*
X57172643Y-61862582D01*
X57150579Y-61796288D01*
X57150500Y-61791864D01*
X57150500Y-59820807D01*
X57170185Y-59753768D01*
X57186819Y-59733126D01*
X58733126Y-58186819D01*
X58794449Y-58153334D01*
X58820807Y-58150500D01*
X59495065Y-58150500D01*
X59562104Y-58170185D01*
X59563909Y-58171366D01*
X59620821Y-58209394D01*
X59620823Y-58209395D01*
X59620827Y-58209397D01*
X59766498Y-58269735D01*
X59766503Y-58269737D01*
X59921153Y-58300499D01*
X59921156Y-58300500D01*
X59921158Y-58300500D01*
X60078844Y-58300500D01*
X60078845Y-58300499D01*
X60233497Y-58269737D01*
X60379179Y-58209394D01*
X60510289Y-58121789D01*
X60621789Y-58010289D01*
X60709394Y-57879179D01*
X60769737Y-57733497D01*
X60800500Y-57578842D01*
X60800500Y-57421158D01*
X60800500Y-57421155D01*
X60800499Y-57421153D01*
X60792148Y-57379172D01*
X60769737Y-57266503D01*
X60722250Y-57151858D01*
X60709397Y-57120827D01*
X60709390Y-57120814D01*
X60621789Y-56989711D01*
X60621786Y-56989707D01*
X60510292Y-56878213D01*
X60510288Y-56878210D01*
X60379185Y-56790609D01*
X60379172Y-56790602D01*
X60233501Y-56730264D01*
X60233489Y-56730261D01*
X60078845Y-56699500D01*
X60078842Y-56699500D01*
X59921158Y-56699500D01*
X59921155Y-56699500D01*
X59766510Y-56730261D01*
X59766498Y-56730264D01*
X59620827Y-56790602D01*
X59620820Y-56790606D01*
X59591928Y-56809911D01*
X59563955Y-56828602D01*
X59497279Y-56849480D01*
X59495065Y-56849500D01*
X58435929Y-56849500D01*
X58310261Y-56874497D01*
X58310255Y-56874499D01*
X58191875Y-56923533D01*
X58191866Y-56923538D01*
X58085331Y-56994723D01*
X58085327Y-56994726D01*
X57961681Y-57118373D01*
X57900358Y-57151858D01*
X57830666Y-57146874D01*
X57774733Y-57105002D01*
X57750316Y-57039538D01*
X57750000Y-57030692D01*
X57750000Y-50624500D01*
X57769685Y-50557461D01*
X57822489Y-50511706D01*
X57874000Y-50500500D01*
X87126000Y-50500500D01*
X87193039Y-50520185D01*
G37*
%TD.AperFunction*%
%TA.AperFunction,Conductor*%
G36*
X89042539Y-85019685D02*
G01*
X89088294Y-85072489D01*
X89099500Y-85124000D01*
X89099500Y-86852242D01*
X89079815Y-86919281D01*
X89027011Y-86965036D01*
X88957853Y-86974980D01*
X88951309Y-86973859D01*
X88828846Y-86949500D01*
X88828842Y-86949500D01*
X88671158Y-86949500D01*
X88671155Y-86949500D01*
X88516510Y-86980261D01*
X88516498Y-86980264D01*
X88370827Y-87040602D01*
X88370814Y-87040609D01*
X88239711Y-87128210D01*
X88239707Y-87128213D01*
X88128213Y-87239707D01*
X88128210Y-87239711D01*
X88040609Y-87370814D01*
X88040602Y-87370827D01*
X87980264Y-87516498D01*
X87980261Y-87516510D01*
X87949500Y-87671153D01*
X87949500Y-87828846D01*
X87980261Y-87983489D01*
X87980264Y-87983501D01*
X88040602Y-88129172D01*
X88040609Y-88129185D01*
X88128210Y-88260288D01*
X88128213Y-88260292D01*
X88239706Y-88371785D01*
X88239709Y-88371787D01*
X88239711Y-88371789D01*
X88294391Y-88408325D01*
X88339195Y-88461935D01*
X88349500Y-88511426D01*
X88349500Y-103475500D01*
X88329815Y-103542539D01*
X88277011Y-103588294D01*
X88225500Y-103599500D01*
X87435929Y-103599500D01*
X87310261Y-103624497D01*
X87310255Y-103624499D01*
X87191874Y-103673534D01*
X87085326Y-103744726D01*
X86494727Y-104335325D01*
X86494721Y-104335332D01*
X86441711Y-104414668D01*
X86441712Y-104414669D01*
X86423534Y-104441874D01*
X86374499Y-104560255D01*
X86374497Y-104560261D01*
X86349500Y-104685928D01*
X86349500Y-104685931D01*
X86349500Y-106064069D01*
X86369969Y-106166971D01*
X86374499Y-106189744D01*
X86409172Y-106273452D01*
X86423534Y-106308125D01*
X86494726Y-106414673D01*
X86494727Y-106414674D01*
X88282702Y-108202648D01*
X88316187Y-108263971D01*
X88319021Y-108290329D01*
X88319021Y-112021064D01*
X88299336Y-112088103D01*
X88298124Y-112089954D01*
X88260129Y-112146817D01*
X88260123Y-112146828D01*
X88199785Y-112292498D01*
X88199782Y-112292510D01*
X88169021Y-112447153D01*
X88169021Y-112604846D01*
X88199782Y-112759489D01*
X88199785Y-112759501D01*
X88260123Y-112905172D01*
X88260130Y-112905185D01*
X88347731Y-113036288D01*
X88347734Y-113036292D01*
X88459228Y-113147786D01*
X88459232Y-113147789D01*
X88590335Y-113235390D01*
X88590348Y-113235397D01*
X88684569Y-113274424D01*
X88736024Y-113295737D01*
X88890674Y-113326499D01*
X88890677Y-113326500D01*
X88890679Y-113326500D01*
X89048365Y-113326500D01*
X89048366Y-113326499D01*
X89203018Y-113295737D01*
X89348700Y-113235394D01*
X89479810Y-113147789D01*
X89591310Y-113036289D01*
X89678915Y-112905179D01*
X89739258Y-112759497D01*
X89770021Y-112604842D01*
X89770021Y-112447158D01*
X89770021Y-112447155D01*
X89770020Y-112447153D01*
X89756788Y-112380632D01*
X89739258Y-112292503D01*
X89738580Y-112290865D01*
X89678918Y-112146828D01*
X89678917Y-112146827D01*
X89678915Y-112146821D01*
X89640917Y-112089953D01*
X89620041Y-112023276D01*
X89620021Y-112021064D01*
X89620021Y-107905449D01*
X89595023Y-107779782D01*
X89595022Y-107779781D01*
X89595022Y-107779777D01*
X89545986Y-107661394D01*
X89518876Y-107620821D01*
X89474797Y-107554851D01*
X89474795Y-107554849D01*
X89474793Y-107554846D01*
X89474792Y-107554845D01*
X87902469Y-105982523D01*
X87868984Y-105921200D01*
X87873968Y-105851508D01*
X87915840Y-105795575D01*
X87965961Y-105773225D01*
X87983497Y-105769737D01*
X88129179Y-105709394D01*
X88172434Y-105680492D01*
X88260875Y-105621398D01*
X88327553Y-105600520D01*
X88329766Y-105600500D01*
X89354021Y-105600500D01*
X89438565Y-105583682D01*
X89479694Y-105575501D01*
X89598077Y-105526465D01*
X89622285Y-105510290D01*
X89622286Y-105510290D01*
X89683895Y-105469123D01*
X89704619Y-105455277D01*
X90255277Y-104904619D01*
X90326465Y-104798077D01*
X90375501Y-104679694D01*
X90378490Y-104664669D01*
X90382208Y-104645981D01*
X90400500Y-104554021D01*
X90400500Y-103274500D01*
X90420185Y-103207461D01*
X90472989Y-103161706D01*
X90524500Y-103150500D01*
X93445065Y-103150500D01*
X93512104Y-103170185D01*
X93513909Y-103171366D01*
X93570821Y-103209394D01*
X93570823Y-103209395D01*
X93570827Y-103209397D01*
X93708695Y-103266503D01*
X93716503Y-103269737D01*
X93871153Y-103300499D01*
X93871156Y-103300500D01*
X93871158Y-103300500D01*
X94028844Y-103300500D01*
X94028845Y-103300499D01*
X94183497Y-103269737D01*
X94329179Y-103209394D01*
X94460289Y-103121789D01*
X94493384Y-103088694D01*
X94554706Y-103055208D01*
X94624398Y-103060192D01*
X94668747Y-103088693D01*
X96363181Y-104783127D01*
X96396666Y-104844450D01*
X96399500Y-104870808D01*
X96399500Y-117354019D01*
X96399500Y-117354021D01*
X96399499Y-117354021D01*
X96424497Y-117479688D01*
X96424499Y-117479694D01*
X96473534Y-117598075D01*
X96544726Y-117704623D01*
X96544727Y-117704624D01*
X97226337Y-118386233D01*
X97259822Y-118447556D01*
X97262656Y-118473914D01*
X97262656Y-126825649D01*
X97242971Y-126892688D01*
X97190167Y-126938443D01*
X97137951Y-126949647D01*
X95023795Y-126937634D01*
X94956869Y-126917569D01*
X94911415Y-126864506D01*
X94900500Y-126813636D01*
X94900500Y-114954936D01*
X94920185Y-114887897D01*
X94921366Y-114886091D01*
X94959394Y-114829180D01*
X95019737Y-114683498D01*
X95050500Y-114528843D01*
X95050500Y-114371159D01*
X95050500Y-114371156D01*
X95050499Y-114371154D01*
X95027795Y-114257014D01*
X95019737Y-114216504D01*
X95004727Y-114180266D01*
X94959397Y-114070828D01*
X94959390Y-114070815D01*
X94871789Y-113939712D01*
X94871786Y-113939708D01*
X94760292Y-113828214D01*
X94760288Y-113828211D01*
X94629185Y-113740610D01*
X94629172Y-113740603D01*
X94483501Y-113680265D01*
X94483489Y-113680262D01*
X94328845Y-113649501D01*
X94328842Y-113649501D01*
X94171158Y-113649501D01*
X94171155Y-113649501D01*
X94016510Y-113680262D01*
X94016498Y-113680265D01*
X93870827Y-113740603D01*
X93870814Y-113740610D01*
X93739711Y-113828211D01*
X93739707Y-113828214D01*
X93628213Y-113939708D01*
X93628210Y-113939712D01*
X93540609Y-114070815D01*
X93540602Y-114070828D01*
X93480264Y-114216499D01*
X93480261Y-114216511D01*
X93449500Y-114371154D01*
X93449500Y-114528847D01*
X93480261Y-114683490D01*
X93480264Y-114683502D01*
X93540602Y-114829173D01*
X93540606Y-114829180D01*
X93578602Y-114886045D01*
X93599480Y-114952722D01*
X93599500Y-114954936D01*
X93599500Y-126804835D01*
X93579815Y-126871874D01*
X93527011Y-126917629D01*
X93474795Y-126928833D01*
X91023795Y-126914907D01*
X90956869Y-126894842D01*
X90911415Y-126841779D01*
X90900500Y-126790909D01*
X90900500Y-122754935D01*
X90920185Y-122687896D01*
X90921366Y-122686090D01*
X90959394Y-122629179D01*
X91019737Y-122483497D01*
X91050500Y-122328842D01*
X91050500Y-122171158D01*
X91050500Y-122171155D01*
X91050499Y-122171153D01*
X91024778Y-122041846D01*
X91019737Y-122016503D01*
X91019735Y-122016498D01*
X90959397Y-121870827D01*
X90959390Y-121870814D01*
X90871789Y-121739711D01*
X90871786Y-121739707D01*
X90760292Y-121628213D01*
X90760288Y-121628210D01*
X90629185Y-121540609D01*
X90629172Y-121540602D01*
X90483501Y-121480264D01*
X90483489Y-121480261D01*
X90328845Y-121449500D01*
X90328842Y-121449500D01*
X90171158Y-121449500D01*
X90171155Y-121449500D01*
X90016510Y-121480261D01*
X90016498Y-121480264D01*
X89870827Y-121540602D01*
X89870814Y-121540609D01*
X89739711Y-121628210D01*
X89739707Y-121628213D01*
X89628213Y-121739707D01*
X89628210Y-121739711D01*
X89540609Y-121870814D01*
X89540602Y-121870827D01*
X89480264Y-122016498D01*
X89480261Y-122016510D01*
X89449500Y-122171153D01*
X89449500Y-122328846D01*
X89480261Y-122483489D01*
X89480264Y-122483501D01*
X89540602Y-122629172D01*
X89540605Y-122629177D01*
X89540606Y-122629179D01*
X89578602Y-122686044D01*
X89599480Y-122752721D01*
X89599500Y-122754935D01*
X89599500Y-126782108D01*
X89579815Y-126849147D01*
X89527011Y-126894902D01*
X89474795Y-126906106D01*
X85523795Y-126883657D01*
X85456869Y-126863592D01*
X85411415Y-126810529D01*
X85400500Y-126759659D01*
X85400500Y-85124000D01*
X85420185Y-85056961D01*
X85472989Y-85011206D01*
X85524500Y-85000000D01*
X88975500Y-85000000D01*
X89042539Y-85019685D01*
G37*
%TD.AperFunction*%
%TA.AperFunction,Conductor*%
G36*
X78042539Y-85019685D02*
G01*
X78088294Y-85072489D01*
X78099500Y-85124000D01*
X78099500Y-87495064D01*
X78079815Y-87562103D01*
X78078603Y-87563954D01*
X78040608Y-87620817D01*
X78040602Y-87620828D01*
X77980264Y-87766498D01*
X77980261Y-87766510D01*
X77949500Y-87921153D01*
X77949500Y-88078846D01*
X77980261Y-88233489D01*
X77980264Y-88233501D01*
X78040602Y-88379172D01*
X78040606Y-88379179D01*
X78078602Y-88436044D01*
X78099480Y-88502721D01*
X78099500Y-88504935D01*
X78099500Y-103495064D01*
X78079815Y-103562103D01*
X78078603Y-103563954D01*
X78040608Y-103620817D01*
X78040602Y-103620828D01*
X77980264Y-103766498D01*
X77980261Y-103766510D01*
X77949500Y-103921153D01*
X77949500Y-104078846D01*
X77980261Y-104233489D01*
X77980264Y-104233501D01*
X78040602Y-104379172D01*
X78040609Y-104379185D01*
X78128210Y-104510288D01*
X78128213Y-104510292D01*
X78239707Y-104621786D01*
X78239711Y-104621789D01*
X78370814Y-104709390D01*
X78370827Y-104709397D01*
X78446280Y-104740650D01*
X78516503Y-104769737D01*
X78658967Y-104798075D01*
X78671153Y-104800499D01*
X78671156Y-104800500D01*
X78671158Y-104800500D01*
X78828844Y-104800500D01*
X78828845Y-104800499D01*
X78983497Y-104769737D01*
X79129179Y-104709394D01*
X79129184Y-104709390D01*
X79129187Y-104709389D01*
X79156608Y-104691067D01*
X79223285Y-104670188D01*
X79290666Y-104688672D01*
X79337356Y-104740650D01*
X79349500Y-104794168D01*
X79349500Y-107495064D01*
X79329815Y-107562103D01*
X79328603Y-107563954D01*
X79290608Y-107620817D01*
X79290602Y-107620828D01*
X79230264Y-107766498D01*
X79230261Y-107766510D01*
X79199500Y-107921153D01*
X79199500Y-108078846D01*
X79230261Y-108233489D01*
X79230264Y-108233501D01*
X79290602Y-108379172D01*
X79290609Y-108379185D01*
X79378210Y-108510288D01*
X79378213Y-108510292D01*
X79489707Y-108621786D01*
X79489711Y-108621789D01*
X79620814Y-108709390D01*
X79620827Y-108709397D01*
X79758683Y-108766498D01*
X79766503Y-108769737D01*
X79921153Y-108800499D01*
X79921156Y-108800500D01*
X79921158Y-108800500D01*
X80078844Y-108800500D01*
X80078845Y-108800499D01*
X80233497Y-108769737D01*
X80379179Y-108709394D01*
X80510289Y-108621789D01*
X80621789Y-108510289D01*
X80709394Y-108379179D01*
X80712854Y-108370827D01*
X80729841Y-108329815D01*
X80769737Y-108233497D01*
X80800500Y-108078842D01*
X80800500Y-107921158D01*
X80800500Y-107921155D01*
X80800499Y-107921153D01*
X80792219Y-107879528D01*
X80769737Y-107766503D01*
X80709394Y-107620821D01*
X80671396Y-107563953D01*
X80650520Y-107497276D01*
X80650500Y-107495064D01*
X80650500Y-85124000D01*
X80670185Y-85056961D01*
X80722989Y-85011206D01*
X80774500Y-85000000D01*
X83975500Y-85000000D01*
X84042539Y-85019685D01*
X84088294Y-85072489D01*
X84099500Y-85124000D01*
X84099500Y-87602242D01*
X84079815Y-87669281D01*
X84027011Y-87715036D01*
X83957853Y-87724980D01*
X83951309Y-87723859D01*
X83828846Y-87699500D01*
X83828842Y-87699500D01*
X83671158Y-87699500D01*
X83671155Y-87699500D01*
X83516510Y-87730261D01*
X83516498Y-87730264D01*
X83370827Y-87790602D01*
X83370814Y-87790609D01*
X83239711Y-87878210D01*
X83239707Y-87878213D01*
X83128213Y-87989707D01*
X83128210Y-87989711D01*
X83040609Y-88120814D01*
X83040602Y-88120827D01*
X82980264Y-88266498D01*
X82980261Y-88266510D01*
X82949500Y-88421153D01*
X82949500Y-88578846D01*
X82980261Y-88733489D01*
X82980264Y-88733501D01*
X83040602Y-88879172D01*
X83040609Y-88879185D01*
X83128210Y-89010288D01*
X83128213Y-89010292D01*
X83239706Y-89121785D01*
X83239709Y-89121787D01*
X83239711Y-89121789D01*
X83294391Y-89158325D01*
X83339195Y-89211935D01*
X83349500Y-89261426D01*
X83349500Y-98745064D01*
X83329815Y-98812103D01*
X83328603Y-98813954D01*
X83290608Y-98870817D01*
X83290602Y-98870828D01*
X83230264Y-99016498D01*
X83230261Y-99016510D01*
X83199500Y-99171153D01*
X83199500Y-99328846D01*
X83230261Y-99483489D01*
X83230264Y-99483501D01*
X83290602Y-99629172D01*
X83290609Y-99629185D01*
X83378210Y-99760288D01*
X83378213Y-99760292D01*
X83489707Y-99871786D01*
X83489711Y-99871789D01*
X83620814Y-99959390D01*
X83620827Y-99959397D01*
X83766498Y-100019735D01*
X83766503Y-100019737D01*
X83884087Y-100043126D01*
X83921153Y-100050499D01*
X83921156Y-100050500D01*
X83975500Y-100050500D01*
X84042539Y-100070185D01*
X84088294Y-100122989D01*
X84099500Y-100174500D01*
X84099500Y-126750858D01*
X84079815Y-126817897D01*
X84027011Y-126863652D01*
X83974795Y-126874856D01*
X83273795Y-126870873D01*
X83206869Y-126850808D01*
X83161415Y-126797745D01*
X83150500Y-126746875D01*
X83150500Y-114840090D01*
X83125502Y-114714423D01*
X83125501Y-114714422D01*
X83125501Y-114714418D01*
X83076465Y-114596035D01*
X83076465Y-114596034D01*
X83059620Y-114570825D01*
X83059618Y-114570821D01*
X83005278Y-114489494D01*
X83005272Y-114489487D01*
X82739933Y-114224149D01*
X82706448Y-114162826D01*
X82706024Y-114160795D01*
X82692656Y-114093584D01*
X82645838Y-113980554D01*
X82632316Y-113947908D01*
X82632309Y-113947895D01*
X82544708Y-113816792D01*
X82544705Y-113816788D01*
X82433211Y-113705294D01*
X82433207Y-113705291D01*
X82302104Y-113617690D01*
X82302091Y-113617683D01*
X82156420Y-113557345D01*
X82156408Y-113557342D01*
X82001764Y-113526581D01*
X82001761Y-113526581D01*
X81844077Y-113526581D01*
X81844074Y-113526581D01*
X81689429Y-113557342D01*
X81689417Y-113557345D01*
X81543746Y-113617683D01*
X81543733Y-113617690D01*
X81412630Y-113705291D01*
X81412626Y-113705294D01*
X81301132Y-113816788D01*
X81301129Y-113816792D01*
X81213528Y-113947895D01*
X81213521Y-113947908D01*
X81153183Y-114093579D01*
X81153180Y-114093591D01*
X81122419Y-114248234D01*
X81122419Y-114405927D01*
X81153180Y-114560570D01*
X81153183Y-114560582D01*
X81213521Y-114706253D01*
X81213528Y-114706266D01*
X81301129Y-114837369D01*
X81301132Y-114837373D01*
X81412626Y-114948867D01*
X81412630Y-114948870D01*
X81543733Y-115036471D01*
X81543746Y-115036478D01*
X81626099Y-115070589D01*
X81689422Y-115096818D01*
X81749692Y-115108806D01*
X81811602Y-115141190D01*
X81846176Y-115201905D01*
X81849500Y-115230423D01*
X81849500Y-126738074D01*
X81829815Y-126805113D01*
X81777011Y-126850868D01*
X81724795Y-126862072D01*
X73550387Y-126815626D01*
X73483461Y-126795561D01*
X73463411Y-126779309D01*
X72928830Y-126244727D01*
X72928829Y-126244726D01*
X72822280Y-126173533D01*
X72727047Y-126134086D01*
X72672643Y-126090244D01*
X72650579Y-126023950D01*
X72650500Y-126019525D01*
X72650500Y-101935928D01*
X72625502Y-101810261D01*
X72625501Y-101810260D01*
X72625501Y-101810256D01*
X72576465Y-101691873D01*
X72564212Y-101673535D01*
X72564211Y-101673532D01*
X72505278Y-101585332D01*
X72505272Y-101585325D01*
X67817015Y-96897068D01*
X67783530Y-96835745D01*
X67783079Y-96833578D01*
X67769738Y-96766510D01*
X67769737Y-96766503D01*
X67711870Y-96626798D01*
X67709397Y-96620827D01*
X67709390Y-96620814D01*
X67621789Y-96489711D01*
X67621786Y-96489707D01*
X67510292Y-96378213D01*
X67510288Y-96378210D01*
X67379185Y-96290609D01*
X67379172Y-96290602D01*
X67233501Y-96230264D01*
X67233489Y-96230261D01*
X67078845Y-96199500D01*
X67078842Y-96199500D01*
X66921158Y-96199500D01*
X66921155Y-96199500D01*
X66766510Y-96230261D01*
X66766498Y-96230264D01*
X66620827Y-96290602D01*
X66620814Y-96290609D01*
X66489711Y-96378210D01*
X66489707Y-96378213D01*
X66378213Y-96489707D01*
X66378206Y-96489716D01*
X66377597Y-96490628D01*
X66377155Y-96490997D01*
X66374347Y-96494419D01*
X66373697Y-96493886D01*
X66323982Y-96535429D01*
X66254656Y-96544132D01*
X66191631Y-96513973D01*
X66154916Y-96454527D01*
X66150500Y-96421730D01*
X66150500Y-95004935D01*
X66170185Y-94937896D01*
X66171366Y-94936090D01*
X66209394Y-94879179D01*
X66269737Y-94733497D01*
X66300500Y-94578842D01*
X66300500Y-94421158D01*
X66300500Y-94421155D01*
X66300499Y-94421153D01*
X66274531Y-94290606D01*
X66269737Y-94266503D01*
X66269735Y-94266498D01*
X66209397Y-94120827D01*
X66209390Y-94120814D01*
X66121789Y-93989711D01*
X66121786Y-93989707D01*
X66010292Y-93878213D01*
X66010288Y-93878210D01*
X65879185Y-93790609D01*
X65879172Y-93790602D01*
X65733501Y-93730264D01*
X65733489Y-93730261D01*
X65578845Y-93699500D01*
X65578842Y-93699500D01*
X65421158Y-93699500D01*
X65421155Y-93699500D01*
X65266510Y-93730261D01*
X65266498Y-93730264D01*
X65120827Y-93790602D01*
X65120814Y-93790609D01*
X64989711Y-93878210D01*
X64989707Y-93878213D01*
X64878213Y-93989707D01*
X64878210Y-93989711D01*
X64790609Y-94120814D01*
X64790602Y-94120827D01*
X64730264Y-94266498D01*
X64730261Y-94266510D01*
X64699500Y-94421153D01*
X64699500Y-94578846D01*
X64730261Y-94733489D01*
X64730264Y-94733501D01*
X64790602Y-94879172D01*
X64790606Y-94879179D01*
X64828602Y-94936044D01*
X64849480Y-95002721D01*
X64849500Y-95004935D01*
X64849500Y-97995064D01*
X64829815Y-98062103D01*
X64828603Y-98063954D01*
X64790608Y-98120817D01*
X64790602Y-98120828D01*
X64730264Y-98266498D01*
X64730261Y-98266510D01*
X64699500Y-98421153D01*
X64699500Y-98578846D01*
X64730261Y-98733489D01*
X64730264Y-98733501D01*
X64790602Y-98879172D01*
X64790609Y-98879185D01*
X64878210Y-99010288D01*
X64878213Y-99010292D01*
X64989707Y-99121786D01*
X64989711Y-99121789D01*
X65120814Y-99209390D01*
X65120827Y-99209397D01*
X65266498Y-99269735D01*
X65266503Y-99269737D01*
X65421153Y-99300499D01*
X65421156Y-99300500D01*
X65421158Y-99300500D01*
X65578844Y-99300500D01*
X65578845Y-99300499D01*
X65733497Y-99269737D01*
X65879179Y-99209394D01*
X66010289Y-99121789D01*
X66121789Y-99010289D01*
X66209394Y-98879179D01*
X66269737Y-98733497D01*
X66300500Y-98578842D01*
X66300500Y-98421158D01*
X66300500Y-98421155D01*
X66300499Y-98421153D01*
X66269738Y-98266510D01*
X66269737Y-98266503D01*
X66244489Y-98205549D01*
X66209397Y-98120828D01*
X66209396Y-98120827D01*
X66209394Y-98120821D01*
X66171396Y-98063953D01*
X66150520Y-97997276D01*
X66150500Y-97995064D01*
X66150500Y-97578269D01*
X66170185Y-97511230D01*
X66222989Y-97465475D01*
X66292147Y-97455531D01*
X66355703Y-97484556D01*
X66374292Y-97505626D01*
X66374347Y-97505581D01*
X66375609Y-97507119D01*
X66377603Y-97509379D01*
X66378212Y-97510291D01*
X66489707Y-97621786D01*
X66489711Y-97621789D01*
X66620814Y-97709390D01*
X66620827Y-97709397D01*
X66706937Y-97745064D01*
X66766503Y-97769737D01*
X66833580Y-97783079D01*
X66895490Y-97815463D01*
X66897069Y-97817015D01*
X71313181Y-102233127D01*
X71346666Y-102294450D01*
X71349500Y-102320808D01*
X71349500Y-126630192D01*
X71329815Y-126697231D01*
X71277011Y-126742986D01*
X71207853Y-126752930D01*
X71144297Y-126723905D01*
X71137819Y-126717873D01*
X70136819Y-125716873D01*
X70103334Y-125655550D01*
X70100500Y-125629192D01*
X70100500Y-122467937D01*
X70120185Y-122400898D01*
X70121366Y-122399092D01*
X70159394Y-122342181D01*
X70164918Y-122328846D01*
X70173067Y-122309168D01*
X70219737Y-122196499D01*
X70250500Y-122041844D01*
X70250500Y-121884160D01*
X70250500Y-121884157D01*
X70250499Y-121884155D01*
X70221766Y-121739707D01*
X70219737Y-121729505D01*
X70176839Y-121625939D01*
X70159397Y-121583829D01*
X70159390Y-121583816D01*
X70071789Y-121452713D01*
X70071786Y-121452709D01*
X69960292Y-121341215D01*
X69960288Y-121341212D01*
X69829185Y-121253611D01*
X69829172Y-121253604D01*
X69683501Y-121193266D01*
X69683489Y-121193263D01*
X69528845Y-121162502D01*
X69528842Y-121162502D01*
X69524500Y-121162502D01*
X69457461Y-121142817D01*
X69411706Y-121090013D01*
X69400500Y-121038502D01*
X69400500Y-112734972D01*
X69375502Y-112609305D01*
X69375501Y-112609304D01*
X69375501Y-112609300D01*
X69326465Y-112490917D01*
X69326463Y-112490914D01*
X69306534Y-112461087D01*
X69306529Y-112461082D01*
X69302651Y-112455277D01*
X69255276Y-112384374D01*
X69167730Y-112296828D01*
X69164377Y-112292860D01*
X69163495Y-112290865D01*
X69155987Y-112281715D01*
X69087081Y-112178590D01*
X69087075Y-112178582D01*
X68975581Y-112067088D01*
X68975577Y-112067085D01*
X68844474Y-111979484D01*
X68844461Y-111979477D01*
X68698790Y-111919139D01*
X68698778Y-111919136D01*
X68544134Y-111888375D01*
X68544131Y-111888375D01*
X68386447Y-111888375D01*
X68386442Y-111888375D01*
X68298691Y-111905830D01*
X68229100Y-111899603D01*
X68173922Y-111856740D01*
X68150678Y-111790850D01*
X68150500Y-111784213D01*
X68150500Y-102716577D01*
X68170185Y-102649538D01*
X68222989Y-102603783D01*
X68227023Y-102602026D01*
X68243280Y-102595293D01*
X68374390Y-102507688D01*
X68485890Y-102396188D01*
X68573495Y-102265078D01*
X68633838Y-102119396D01*
X68664601Y-101964741D01*
X68664601Y-101807057D01*
X68664601Y-101807054D01*
X68664600Y-101807052D01*
X68643135Y-101699142D01*
X68633838Y-101652402D01*
X68606057Y-101585332D01*
X68573498Y-101506726D01*
X68573491Y-101506713D01*
X68485890Y-101375610D01*
X68485887Y-101375606D01*
X68374393Y-101264112D01*
X68374389Y-101264109D01*
X68243286Y-101176508D01*
X68243273Y-101176501D01*
X68097602Y-101116163D01*
X68097590Y-101116160D01*
X67942946Y-101085399D01*
X67942943Y-101085399D01*
X67785259Y-101085399D01*
X67785256Y-101085399D01*
X67630611Y-101116160D01*
X67630599Y-101116163D01*
X67484928Y-101176501D01*
X67484915Y-101176508D01*
X67353812Y-101264109D01*
X67353808Y-101264112D01*
X67242314Y-101375606D01*
X67242311Y-101375610D01*
X67154710Y-101506713D01*
X67154703Y-101506726D01*
X67094365Y-101652397D01*
X67094362Y-101652407D01*
X67081021Y-101719478D01*
X67075128Y-101732094D01*
X67074003Y-101742646D01*
X67061345Y-101761606D01*
X67056018Y-101773014D01*
X67051814Y-101778238D01*
X66994723Y-101835331D01*
X66943086Y-101912613D01*
X66940042Y-101917169D01*
X66923533Y-101941876D01*
X66874499Y-102060255D01*
X66874497Y-102060261D01*
X66849500Y-102185928D01*
X66849500Y-111625575D01*
X66829815Y-111692614D01*
X66777011Y-111738369D01*
X66707853Y-111748313D01*
X66678048Y-111740137D01*
X66620989Y-111716503D01*
X66533497Y-111680263D01*
X66533492Y-111680262D01*
X66533489Y-111680261D01*
X66378845Y-111649500D01*
X66378842Y-111649500D01*
X66221158Y-111649500D01*
X66221155Y-111649500D01*
X66066510Y-111680261D01*
X66066498Y-111680264D01*
X65920827Y-111740602D01*
X65920814Y-111740609D01*
X65789714Y-111828208D01*
X65789709Y-111828212D01*
X65758083Y-111859838D01*
X65739293Y-111875258D01*
X65635332Y-111944721D01*
X65635325Y-111944727D01*
X62143413Y-115436639D01*
X62082090Y-115470124D01*
X62012398Y-115465140D01*
X61956465Y-115423268D01*
X61932048Y-115357804D01*
X61931734Y-115349723D01*
X61766542Y-87762516D01*
X61768922Y-87737592D01*
X61770381Y-87730261D01*
X61790489Y-87629172D01*
X61800500Y-87578844D01*
X61800500Y-87421155D01*
X61800499Y-87421153D01*
X61769737Y-87266505D01*
X61769737Y-87266503D01*
X61769734Y-87266497D01*
X61768679Y-87263015D01*
X61763339Y-87227760D01*
X61753744Y-85625242D01*
X61773027Y-85558086D01*
X61825556Y-85512016D01*
X61877742Y-85500500D01*
X74264818Y-85500500D01*
X74264825Y-85500500D01*
X74394823Y-85483385D01*
X74524821Y-85466271D01*
X74778124Y-85398398D01*
X75020402Y-85298043D01*
X75247508Y-85166924D01*
X75341087Y-85095117D01*
X75369462Y-85073345D01*
X75390814Y-85056961D01*
X75431655Y-85025623D01*
X75496823Y-85000430D01*
X75507140Y-85000000D01*
X77975500Y-85000000D01*
X78042539Y-85019685D01*
G37*
%TD.AperFunction*%
%TA.AperFunction,Conductor*%
G36*
X63105703Y-122618990D02*
G01*
X63112181Y-122625022D01*
X64063181Y-123576022D01*
X64096666Y-123637345D01*
X64099500Y-123663703D01*
X64099500Y-126637221D01*
X64079815Y-126704260D01*
X64027011Y-126750015D01*
X63974796Y-126761219D01*
X63023796Y-126755816D01*
X62956869Y-126735751D01*
X62911415Y-126682688D01*
X62900500Y-126631818D01*
X62900500Y-122712703D01*
X62920185Y-122645664D01*
X62972989Y-122599909D01*
X63042147Y-122589965D01*
X63105703Y-122618990D01*
G37*
%TD.AperFunction*%
%TA.AperFunction,Conductor*%
G36*
X81073266Y-52670185D02*
G01*
X81119021Y-52722989D01*
X81128965Y-52792147D01*
X81099940Y-52855703D01*
X81053680Y-52889061D01*
X80961840Y-52927102D01*
X80961830Y-52927106D01*
X80763173Y-53041801D01*
X80763159Y-53041810D01*
X80689434Y-53098380D01*
X81413475Y-53822421D01*
X81382242Y-53835359D01*
X81259403Y-53917437D01*
X81154937Y-54021903D01*
X81072859Y-54144742D01*
X81059921Y-54175975D01*
X80335880Y-53451934D01*
X80279310Y-53525659D01*
X80279301Y-53525673D01*
X80164606Y-53724330D01*
X80164601Y-53724340D01*
X80102331Y-53874675D01*
X80058490Y-53929078D01*
X79992196Y-53951143D01*
X79924496Y-53933864D01*
X79876886Y-53882726D01*
X79873209Y-53874674D01*
X79810849Y-53724123D01*
X79810846Y-53724117D01*
X79810844Y-53724112D01*
X79696111Y-53525388D01*
X79696108Y-53525385D01*
X79696107Y-53525382D01*
X79556418Y-53343338D01*
X79556411Y-53343330D01*
X79394170Y-53181089D01*
X79394161Y-53181081D01*
X79212117Y-53041392D01*
X79013390Y-52926657D01*
X79013381Y-52926653D01*
X78922626Y-52889061D01*
X78868223Y-52845220D01*
X78846158Y-52778926D01*
X78863437Y-52711227D01*
X78914574Y-52663616D01*
X78970079Y-52650500D01*
X81006227Y-52650500D01*
X81073266Y-52670185D01*
G37*
%TD.AperFunction*%
%TA.AperFunction,Conductor*%
G36*
X84573266Y-52670185D02*
G01*
X84619021Y-52722989D01*
X84628965Y-52792147D01*
X84599940Y-52855703D01*
X84553680Y-52889061D01*
X84461840Y-52927102D01*
X84461830Y-52927106D01*
X84263173Y-53041801D01*
X84263159Y-53041810D01*
X84189434Y-53098380D01*
X84913475Y-53822421D01*
X84882242Y-53835359D01*
X84759403Y-53917437D01*
X84654937Y-54021903D01*
X84572859Y-54144742D01*
X84559921Y-54175975D01*
X83835880Y-53451934D01*
X83779310Y-53525659D01*
X83779301Y-53525673D01*
X83664606Y-53724330D01*
X83664602Y-53724340D01*
X83602061Y-53875328D01*
X83558220Y-53929731D01*
X83491926Y-53951796D01*
X83424227Y-53934517D01*
X83376616Y-53883380D01*
X83372939Y-53875328D01*
X83310397Y-53724340D01*
X83310393Y-53724330D01*
X83195694Y-53525666D01*
X83139118Y-53451934D01*
X83139117Y-53451934D01*
X82415077Y-54175973D01*
X82402141Y-54144742D01*
X82320063Y-54021903D01*
X82215597Y-53917437D01*
X82092758Y-53835359D01*
X82061523Y-53822421D01*
X82785564Y-53098381D01*
X82785564Y-53098380D01*
X82711831Y-53041805D01*
X82711824Y-53041799D01*
X82513169Y-52927106D01*
X82513159Y-52927102D01*
X82421320Y-52889061D01*
X82366917Y-52845220D01*
X82344852Y-52778926D01*
X82362131Y-52711227D01*
X82413268Y-52663616D01*
X82468773Y-52650500D01*
X84506227Y-52650500D01*
X84573266Y-52670185D01*
G37*
%TD.AperFunction*%
%TD*%
M02*
