%TF.GenerationSoftware,KiCad,Pcbnew,9.0.6*%
%TF.CreationDate,2026-01-05T12:13:31+01:00*%
%TF.ProjectId,velion_lightboard_pcb,76656c69-6f6e-45f6-9c69-676874626f61,rev?*%
%TF.SameCoordinates,Original*%
%TF.FileFunction,Paste,Bot*%
%TF.FilePolarity,Positive*%
%FSLAX46Y46*%
G04 Gerber Fmt 4.6, Leading zero omitted, Abs format (unit mm)*
G04 Created by KiCad (PCBNEW 9.0.6) date 2026-01-05 12:13:31*
%MOMM*%
%LPD*%
G01*
G04 APERTURE LIST*
G04 Aperture macros list*
%AMRoundRect*
0 Rectangle with rounded corners*
0 $1 Rounding radius*
0 $2 $3 $4 $5 $6 $7 $8 $9 X,Y pos of 4 corners*
0 Add a 4 corners polygon primitive as box body*
4,1,4,$2,$3,$4,$5,$6,$7,$8,$9,$2,$3,0*
0 Add four circle primitives for the rounded corners*
1,1,$1+$1,$2,$3*
1,1,$1+$1,$4,$5*
1,1,$1+$1,$6,$7*
1,1,$1+$1,$8,$9*
0 Add four rect primitives between the rounded corners*
20,1,$1+$1,$2,$3,$4,$5,0*
20,1,$1+$1,$4,$5,$6,$7,0*
20,1,$1+$1,$6,$7,$8,$9,0*
20,1,$1+$1,$8,$9,$2,$3,0*%
G04 Aperture macros list end*
%ADD10R,1.100000X0.250000*%
%ADD11RoundRect,0.250000X0.250000X0.250000X-0.250000X0.250000X-0.250000X-0.250000X0.250000X-0.250000X0*%
%ADD12RoundRect,0.250000X-0.412500X-0.650000X0.412500X-0.650000X0.412500X0.650000X-0.412500X0.650000X0*%
%ADD13RoundRect,0.150000X0.150000X-0.587500X0.150000X0.587500X-0.150000X0.587500X-0.150000X-0.587500X0*%
%ADD14RoundRect,0.162500X-0.837500X-0.162500X0.837500X-0.162500X0.837500X0.162500X-0.837500X0.162500X0*%
%ADD15RoundRect,0.150000X-0.150000X0.512500X-0.150000X-0.512500X0.150000X-0.512500X0.150000X0.512500X0*%
%ADD16RoundRect,0.250000X0.412500X0.650000X-0.412500X0.650000X-0.412500X-0.650000X0.412500X-0.650000X0*%
%ADD17RoundRect,0.250000X0.650000X-1.000000X0.650000X1.000000X-0.650000X1.000000X-0.650000X-1.000000X0*%
%ADD18RoundRect,0.250000X-0.625000X0.400000X-0.625000X-0.400000X0.625000X-0.400000X0.625000X0.400000X0*%
%ADD19RoundRect,0.250000X0.625000X-0.400000X0.625000X0.400000X-0.625000X0.400000X-0.625000X-0.400000X0*%
%ADD20RoundRect,0.150000X-0.150000X0.725000X-0.150000X-0.725000X0.150000X-0.725000X0.150000X0.725000X0*%
%ADD21RoundRect,0.250000X0.400000X0.625000X-0.400000X0.625000X-0.400000X-0.625000X0.400000X-0.625000X0*%
%ADD22RoundRect,0.250000X0.650000X-0.412500X0.650000X0.412500X-0.650000X0.412500X-0.650000X-0.412500X0*%
%ADD23RoundRect,0.249999X1.425001X-0.450001X1.425001X0.450001X-1.425001X0.450001X-1.425001X-0.450001X0*%
%ADD24RoundRect,0.150000X0.825000X0.150000X-0.825000X0.150000X-0.825000X-0.150000X0.825000X-0.150000X0*%
%ADD25RoundRect,0.250000X-0.250000X-0.250000X0.250000X-0.250000X0.250000X0.250000X-0.250000X0.250000X0*%
%ADD26RoundRect,0.150000X-0.875000X-0.150000X0.875000X-0.150000X0.875000X0.150000X-0.875000X0.150000X0*%
%ADD27RoundRect,0.250000X-1.000000X-0.650000X1.000000X-0.650000X1.000000X0.650000X-1.000000X0.650000X0*%
%ADD28RoundRect,0.090000X0.660000X0.360000X-0.660000X0.360000X-0.660000X-0.360000X0.660000X-0.360000X0*%
G04 APERTURE END LIST*
D10*
%TO.C,U6*%
X131000000Y-117750000D03*
X131000000Y-118250000D03*
X131000000Y-118750000D03*
X131000000Y-119250000D03*
X131000000Y-119750000D03*
X126700000Y-119750000D03*
X126700000Y-119250000D03*
X126700000Y-118750000D03*
X126700000Y-118250000D03*
X126700000Y-117750000D03*
%TD*%
D11*
%TO.C,D2*%
X132345000Y-91875000D03*
X129845000Y-91875000D03*
%TD*%
%TO.C,D6*%
X103345000Y-92475000D03*
X100845000Y-92475000D03*
%TD*%
D12*
%TO.C,C17*%
X58782500Y-99475000D03*
X61907500Y-99475000D03*
%TD*%
D13*
%TO.C,Q19*%
X57400000Y-130437500D03*
X55500000Y-130437500D03*
X56450000Y-128562500D03*
%TD*%
D14*
%TO.C,Q2*%
X128265000Y-84825000D03*
X124845000Y-85775000D03*
X124845000Y-83875000D03*
%TD*%
D15*
%TO.C,U7*%
X98845000Y-97800000D03*
X99795000Y-97800000D03*
X100745000Y-97800000D03*
X100745000Y-100075000D03*
X98845000Y-100075000D03*
%TD*%
D16*
%TO.C,C5*%
X124000000Y-118750000D03*
X120875000Y-118750000D03*
%TD*%
D11*
%TO.C,D9*%
X75345000Y-91975000D03*
X72845000Y-91975000D03*
%TD*%
D17*
%TO.C,D12*%
X55772500Y-89975000D03*
X55772500Y-85975000D03*
%TD*%
D18*
%TO.C,R23*%
X102845000Y-97575000D03*
X102845000Y-100675000D03*
%TD*%
%TO.C,R31*%
X74607500Y-96872500D03*
X74607500Y-99972500D03*
%TD*%
D14*
%TO.C,Q13*%
X70617500Y-83475000D03*
X67197500Y-84425000D03*
X67197500Y-82525000D03*
%TD*%
D10*
%TO.C,U14*%
X65612500Y-114500000D03*
X65612500Y-115000000D03*
X65612500Y-115500000D03*
X65612500Y-116000000D03*
X65612500Y-116500000D03*
X61312500Y-116500000D03*
X61312500Y-116000000D03*
X61312500Y-115500000D03*
X61312500Y-115000000D03*
X61312500Y-114500000D03*
%TD*%
D19*
%TO.C,R17*%
X103345000Y-89575000D03*
X103345000Y-86475000D03*
%TD*%
D12*
%TO.C,C16*%
X58782500Y-92975000D03*
X61907500Y-92975000D03*
%TD*%
D20*
%TO.C,U12*%
X58502500Y-85400000D03*
X59772500Y-85400000D03*
X61042500Y-85400000D03*
X62312500Y-85400000D03*
X62312500Y-90550000D03*
X61042500Y-90550000D03*
X59772500Y-90550000D03*
X58502500Y-90550000D03*
%TD*%
%TO.C,U13*%
X58502500Y-101900000D03*
X59772500Y-101900000D03*
X61042500Y-101900000D03*
X62312500Y-101900000D03*
X62312500Y-107050000D03*
X61042500Y-107050000D03*
X59772500Y-107050000D03*
X58502500Y-107050000D03*
%TD*%
D12*
%TO.C,C11*%
X86720000Y-110075000D03*
X89845000Y-110075000D03*
%TD*%
D20*
%TO.C,U11*%
X86440000Y-102500000D03*
X87710000Y-102500000D03*
X88980000Y-102500000D03*
X90250000Y-102500000D03*
X90250000Y-107650000D03*
X88980000Y-107650000D03*
X87710000Y-107650000D03*
X86440000Y-107650000D03*
%TD*%
D18*
%TO.C,R12*%
X132345000Y-96875000D03*
X132345000Y-99975000D03*
%TD*%
D21*
%TO.C,R24*%
X98345000Y-94975000D03*
X95245000Y-94975000D03*
%TD*%
D13*
%TO.C,Q17*%
X82400000Y-130500000D03*
X80500000Y-130500000D03*
X81450000Y-128625000D03*
%TD*%
D18*
%TO.C,R0*%
X148500000Y-128000000D03*
X148500000Y-131100000D03*
%TD*%
D19*
%TO.C,R10*%
X121845000Y-104475000D03*
X121845000Y-101375000D03*
%TD*%
D22*
%TO.C,C21*%
X135500000Y-90500000D03*
X135500000Y-87375000D03*
%TD*%
D19*
%TO.C,R22*%
X96345000Y-100575000D03*
X96345000Y-97475000D03*
%TD*%
D18*
%TO.C,R44*%
X59500000Y-127900000D03*
X59500000Y-131000000D03*
%TD*%
D14*
%TO.C,Q3*%
X127765000Y-108825000D03*
X124345000Y-109775000D03*
X124345000Y-107875000D03*
%TD*%
D13*
%TO.C,Q11*%
X108400000Y-130437500D03*
X106500000Y-130437500D03*
X107450000Y-128562500D03*
%TD*%
D19*
%TO.C,R40*%
X64407500Y-86975000D03*
X64407500Y-83875000D03*
%TD*%
D23*
%TO.C,R13*%
X115500000Y-131100000D03*
X115500000Y-125000000D03*
%TD*%
D19*
%TO.C,R33*%
X68482500Y-100075000D03*
X68482500Y-96975000D03*
%TD*%
D14*
%TO.C,Q16*%
X70617500Y-103900000D03*
X67197500Y-104850000D03*
X67197500Y-102950000D03*
%TD*%
D22*
%TO.C,C19*%
X79500000Y-92500000D03*
X79500000Y-89375000D03*
%TD*%
D20*
%TO.C,U3*%
X116035000Y-102375000D03*
X117305000Y-102375000D03*
X118575000Y-102375000D03*
X119845000Y-102375000D03*
X119845000Y-107525000D03*
X118575000Y-107525000D03*
X117305000Y-107525000D03*
X116035000Y-107525000D03*
%TD*%
D22*
%TO.C,C0*%
X131845000Y-83875000D03*
X131845000Y-80750000D03*
%TD*%
D18*
%TO.C,R14*%
X122500000Y-128000000D03*
X122500000Y-131100000D03*
%TD*%
D12*
%TO.C,C13*%
X86720000Y-100075000D03*
X89845000Y-100075000D03*
%TD*%
D23*
%TO.C,R38*%
X64500000Y-131050000D03*
X64500000Y-124950000D03*
%TD*%
D24*
%TO.C,U8*%
X67950000Y-52190000D03*
X67950000Y-53460000D03*
X67950000Y-54730000D03*
X67950000Y-56000000D03*
X63000000Y-56000000D03*
X63000000Y-54730000D03*
X63000000Y-53460000D03*
X63000000Y-52190000D03*
%TD*%
D21*
%TO.C,R25*%
X103445000Y-94975000D03*
X100345000Y-94975000D03*
%TD*%
D18*
%TO.C,R18*%
X92345000Y-84900000D03*
X92345000Y-88000000D03*
%TD*%
D19*
%TO.C,R8*%
X125345000Y-99975000D03*
X125345000Y-96875000D03*
%TD*%
D14*
%TO.C,Q4*%
X127765000Y-104875000D03*
X124345000Y-105825000D03*
X124345000Y-103925000D03*
%TD*%
D25*
%TO.C,D7*%
X95845000Y-92475000D03*
X98345000Y-92475000D03*
%TD*%
D14*
%TO.C,Q9*%
X98555000Y-104575000D03*
X95135000Y-105525000D03*
X95135000Y-103625000D03*
%TD*%
D12*
%TO.C,C1*%
X116845000Y-84375000D03*
X119970000Y-84375000D03*
%TD*%
D18*
%TO.C,R29*%
X110500000Y-127900000D03*
X110500000Y-131000000D03*
%TD*%
D12*
%TO.C,C14*%
X58845000Y-82975000D03*
X61970000Y-82975000D03*
%TD*%
D14*
%TO.C,Q10*%
X98555000Y-108525000D03*
X95135000Y-109475000D03*
X95135000Y-107575000D03*
%TD*%
D19*
%TO.C,R43*%
X64407500Y-104000000D03*
X64407500Y-100900000D03*
%TD*%
D17*
%TO.C,D4*%
X113845000Y-91375000D03*
X113845000Y-87375000D03*
%TD*%
D12*
%TO.C,C3*%
X116720000Y-94375000D03*
X119845000Y-94375000D03*
%TD*%
D13*
%TO.C,Q0*%
X146450000Y-130437500D03*
X144550000Y-130437500D03*
X145500000Y-128562500D03*
%TD*%
D21*
%TO.C,R32*%
X70507500Y-94475000D03*
X67407500Y-94475000D03*
%TD*%
D19*
%TO.C,R30*%
X75482500Y-89475000D03*
X75482500Y-86375000D03*
%TD*%
D12*
%TO.C,C10*%
X86687500Y-83575000D03*
X89812500Y-83575000D03*
%TD*%
D23*
%TO.C,R45*%
X52500000Y-131000000D03*
X52500000Y-124900000D03*
%TD*%
D16*
%TO.C,C18*%
X58812500Y-115500000D03*
X55687500Y-115500000D03*
%TD*%
D23*
%TO.C,R26*%
X103500000Y-131000000D03*
X103500000Y-124900000D03*
%TD*%
D20*
%TO.C,U4*%
X116440000Y-86800000D03*
X117710000Y-86800000D03*
X118980000Y-86800000D03*
X120250000Y-86800000D03*
X120250000Y-91950000D03*
X118980000Y-91950000D03*
X117710000Y-91950000D03*
X116440000Y-91950000D03*
%TD*%
D13*
%TO.C,Q12*%
X95400000Y-130437500D03*
X93500000Y-130437500D03*
X94450000Y-128562500D03*
%TD*%
D17*
%TO.C,D8*%
X83750000Y-90500000D03*
X83750000Y-86500000D03*
%TD*%
D20*
%TO.C,U9*%
X86345000Y-85925000D03*
X87615000Y-85925000D03*
X88885000Y-85925000D03*
X90155000Y-85925000D03*
X90155000Y-91075000D03*
X88885000Y-91075000D03*
X87615000Y-91075000D03*
X86345000Y-91075000D03*
%TD*%
D19*
%TO.C,R19*%
X92345000Y-109175000D03*
X92345000Y-106075000D03*
%TD*%
%TO.C,R7*%
X122345000Y-93525000D03*
X122345000Y-90425000D03*
%TD*%
D13*
%TO.C,Q18*%
X69400000Y-130437500D03*
X67500000Y-130437500D03*
X68450000Y-128562500D03*
%TD*%
D14*
%TO.C,Q14*%
X70617500Y-87975000D03*
X67197500Y-88925000D03*
X67197500Y-87025000D03*
%TD*%
D12*
%TO.C,C7*%
X70475000Y-54460000D03*
X73600000Y-54460000D03*
%TD*%
D15*
%TO.C,U10*%
X70607500Y-96835000D03*
X71557500Y-96835000D03*
X72507500Y-96835000D03*
X72507500Y-99110000D03*
X70607500Y-99110000D03*
%TD*%
D23*
%TO.C,R15*%
X128500000Y-131000000D03*
X128500000Y-124900000D03*
%TD*%
D19*
%TO.C,R5*%
X131845000Y-89375000D03*
X131845000Y-86275000D03*
%TD*%
%TO.C,R21*%
X92345000Y-93100000D03*
X92345000Y-90000000D03*
%TD*%
D14*
%TO.C,Q7*%
X98265000Y-84025000D03*
X94845000Y-84975000D03*
X94845000Y-83075000D03*
%TD*%
D22*
%TO.C,C20*%
X107500000Y-92500000D03*
X107500000Y-89375000D03*
%TD*%
D26*
%TO.C,U2*%
X138000000Y-117970000D03*
X138000000Y-116700000D03*
X138000000Y-115430000D03*
X138000000Y-114160000D03*
X138000000Y-112890000D03*
X138000000Y-111620000D03*
X138000000Y-110350000D03*
X138000000Y-109080000D03*
X138000000Y-107810000D03*
X138000000Y-106540000D03*
X138000000Y-105270000D03*
X138000000Y-104000000D03*
X138000000Y-102730000D03*
X138000000Y-101460000D03*
X147300000Y-101460000D03*
X147300000Y-102730000D03*
X147300000Y-104000000D03*
X147300000Y-105270000D03*
X147300000Y-106540000D03*
X147300000Y-107810000D03*
X147300000Y-109080000D03*
X147300000Y-110350000D03*
X147300000Y-111620000D03*
X147300000Y-112890000D03*
X147300000Y-114160000D03*
X147300000Y-115430000D03*
X147300000Y-116700000D03*
X147300000Y-117970000D03*
%TD*%
D23*
%TO.C,R36*%
X77500000Y-131000000D03*
X77500000Y-124900000D03*
%TD*%
D17*
%TO.C,D11*%
X83845000Y-107075000D03*
X83845000Y-103075000D03*
%TD*%
%TO.C,D13*%
X55907500Y-106475000D03*
X55907500Y-102475000D03*
%TD*%
D18*
%TO.C,R2*%
X126000000Y-55450000D03*
X126000000Y-58550000D03*
%TD*%
D21*
%TO.C,R6*%
X127845000Y-94375000D03*
X124745000Y-94375000D03*
%TD*%
D13*
%TO.C,Q6*%
X120400000Y-130437500D03*
X118500000Y-130437500D03*
X119450000Y-128562500D03*
%TD*%
D12*
%TO.C,C2*%
X116345000Y-99875000D03*
X119470000Y-99875000D03*
%TD*%
%TO.C,C8*%
X63000000Y-58000000D03*
X66125000Y-58000000D03*
%TD*%
%TO.C,C4*%
X116282500Y-109875000D03*
X119407500Y-109875000D03*
%TD*%
%TO.C,C12*%
X86720000Y-93575000D03*
X89845000Y-93575000D03*
%TD*%
D25*
%TO.C,D10*%
X67845000Y-91975000D03*
X70345000Y-91975000D03*
%TD*%
D19*
%TO.C,R4*%
X122345000Y-88425000D03*
X122345000Y-85325000D03*
%TD*%
D21*
%TO.C,R11*%
X132945000Y-94375000D03*
X129845000Y-94375000D03*
%TD*%
D22*
%TO.C,C9*%
X75407500Y-84037500D03*
X75407500Y-80912500D03*
%TD*%
D27*
%TO.C,D0*%
X137000000Y-60000000D03*
X141000000Y-60000000D03*
%TD*%
D17*
%TO.C,D5*%
X113345000Y-106875000D03*
X113345000Y-102875000D03*
%TD*%
D18*
%TO.C,R37*%
X84500000Y-127900000D03*
X84500000Y-131000000D03*
%TD*%
D13*
%TO.C,Q5*%
X133400000Y-130437500D03*
X131500000Y-130437500D03*
X132450000Y-128562500D03*
%TD*%
D25*
%TO.C,D3*%
X124845000Y-91875000D03*
X127345000Y-91875000D03*
%TD*%
D18*
%TO.C,R20*%
X92345000Y-100975000D03*
X92345000Y-104075000D03*
%TD*%
D22*
%TO.C,C6*%
X103345000Y-84075000D03*
X103345000Y-80950000D03*
%TD*%
D15*
%TO.C,U5*%
X127895000Y-97100000D03*
X128845000Y-97100000D03*
X129795000Y-97100000D03*
X129795000Y-99375000D03*
X127895000Y-99375000D03*
%TD*%
D23*
%TO.C,R1*%
X141500000Y-131050000D03*
X141500000Y-124950000D03*
%TD*%
D18*
%TO.C,R3*%
X131000000Y-55450000D03*
X131000000Y-58550000D03*
%TD*%
D14*
%TO.C,Q1*%
X128265000Y-88425000D03*
X124845000Y-89375000D03*
X124845000Y-87475000D03*
%TD*%
D19*
%TO.C,R9*%
X121845000Y-109475000D03*
X121845000Y-106375000D03*
%TD*%
D28*
%TO.C,D1*%
X140900000Y-52100000D03*
X140900000Y-55400000D03*
X136000000Y-55400000D03*
X136000000Y-52100000D03*
%TD*%
D18*
%TO.C,R42*%
X64407500Y-105900000D03*
X64407500Y-109000000D03*
%TD*%
D14*
%TO.C,Q15*%
X70617500Y-107975000D03*
X67197500Y-108925000D03*
X67197500Y-107025000D03*
%TD*%
D18*
%TO.C,R35*%
X71500000Y-127900000D03*
X71500000Y-131000000D03*
%TD*%
D19*
%TO.C,R41*%
X64407500Y-91975000D03*
X64407500Y-88875000D03*
%TD*%
D18*
%TO.C,R28*%
X97500000Y-127900000D03*
X97500000Y-131000000D03*
%TD*%
%TO.C,R39*%
X60000000Y-52460000D03*
X60000000Y-55560000D03*
%TD*%
%TO.C,R16*%
X135500000Y-127900000D03*
X135500000Y-131000000D03*
%TD*%
D21*
%TO.C,R34*%
X75507500Y-94475000D03*
X72407500Y-94475000D03*
%TD*%
D23*
%TO.C,R27*%
X90500000Y-131000000D03*
X90500000Y-124900000D03*
%TD*%
D12*
%TO.C,C15*%
X58845000Y-109475000D03*
X61970000Y-109475000D03*
%TD*%
D14*
%TO.C,Q8*%
X98265000Y-89025000D03*
X94845000Y-89975000D03*
X94845000Y-88075000D03*
%TD*%
M02*
