M48
; DRILL file {KiCad 9.0.6} date 2026-01-05T12:11:34+0100
; FORMAT={-:-/ absolute / metric / decimal}
; #@! TF.CreationDate,2026-01-05T12:11:34+01:00
; #@! TF.GenerationSoftware,Kicad,Pcbnew,9.0.6
; #@! TF.FileFunction,Plated,1,2,PTH
FMAT,2
METRIC
; #@! TA.AperFunction,Plated,PTH,ViaDrill
T1C0.300
; #@! TA.AperFunction,Plated,PTH,ComponentDrill
T2C0.840
; #@! TA.AperFunction,Plated,PTH,ComponentDrill
T3C1.000
; #@! TA.AperFunction,Plated,PTH,ComponentDrill
T4C1.500
%
G90
G05
T1
X54.5Y-94.5
X54.55Y-98.335
X54.75Y-110.0
X56.25Y-136.5
X56.75Y-122.5
X56.75Y-127.0
X58.75Y-81.0
X60.0Y-57.5
X60.937Y-111.95
X61.0Y-87.5
X61.0Y-103.5
X62.0Y-96.25
X62.0Y-97.75
X62.94Y-126.717
X62.95Y-121.543
X64.5Y-80.5
X65.5Y-94.5
X65.5Y-98.5
X66.3Y-112.45
X67.0Y-97.0
X67.864Y-101.886
X68.465Y-112.689
X68.75Y-132.0
X69.45Y-121.963
X70.0Y-115.0
X70.5Y-57.0
X70.5Y-122.75
X71.5Y-95.75
X71.5Y-99.0
X74.55Y-54.0
X77.5Y-93.25
X78.5Y-81.75
X78.75Y-88.0
X78.75Y-104.0
X79.25Y-84.0
X79.964Y-83.026
X80.0Y-108.0
X81.25Y-95.0
X81.25Y-98.0
X81.25Y-132.0
X81.923Y-114.327
X83.75Y-88.5
X84.0Y-99.25
X85.5Y-82.0
X85.525Y-76.715
X85.75Y-75.5
X86.25Y-148.75
X87.75Y-105.0
X88.0Y-77.5
X88.0Y-82.0
X88.25Y-73.39
X88.75Y-87.75
X88.97Y-112.526
X89.0Y-104.25
X89.75Y-74.8
X90.25Y-122.25
X91.0Y-74.8
X92.25Y-81.75
X92.75Y-55.0
X93.25Y-74.8
X93.95Y-102.5
X94.0Y-95.0
X94.25Y-114.45
X94.25Y-132.0
X94.5Y-99.0
X95.75Y-126.75
X97.75Y-98.25
X97.75Y-117.0
X100.25Y-78.375
X100.25Y-89.0
X100.25Y-108.5
X103.0Y-122.25
X104.75Y-110.0
X104.75Y-117.0
X106.25Y-81.75
X106.32Y-104.946
X107.25Y-132.0
X109.194Y-114.95
X111.25Y-87.25
X111.25Y-103.0
X115.5Y-122.5
X116.437Y-79.126
X118.25Y-84.75
X118.5Y-104.0
X118.75Y-121.5
X119.0Y-88.5
X119.75Y-131.75
X123.0Y-99.25
X123.5Y-82.75
X123.5Y-96.75
X124.75Y-76.8
X125.697Y-115.45
X126.0Y-60.0
X126.0Y-68.75
X126.0Y-131.0
X128.25Y-118.5
X128.75Y-117.0
X129.25Y-124.9
X129.5Y-108.75
X129.75Y-61.5
X129.75Y-69.25
X129.75Y-88.5
X132.25Y-132.0
X133.0Y-120.5
X133.565Y-117.356
X134.0Y-104.5
X134.25Y-81.0
X134.25Y-92.25
X134.25Y-107.75
X135.046Y-117.45
X135.5Y-104.0
X136.034Y-77.716
X136.05Y-102.689
X136.55Y-97.422
X137.0Y-77.75
X138.5Y-127.0
X138.55Y-95.0
X139.3Y-73.937
X140.25Y-72.5
X140.349Y-121.859
X140.95Y-86.815
X140.95Y-111.437
X141.45Y-105.0
X142.0Y-103.25
X142.0Y-110.25
X142.751Y-132.259
X143.0Y-118.0
X145.5Y-109.0
T2
X100.38Y-51.35
X100.38Y-53.89
X100.38Y-56.43
X100.38Y-58.97
X100.38Y-61.51
X100.38Y-64.05
X100.38Y-66.59
X100.38Y-69.13
X115.62Y-51.35
X115.62Y-53.89
X115.62Y-56.43
X115.62Y-58.97
X115.62Y-61.51
X115.62Y-64.05
X115.62Y-66.59
X115.62Y-69.13
T3
X51.92Y-140.5
X54.46Y-140.5
X57.0Y-140.5
X59.54Y-140.5
X95.92Y-140.5
X98.46Y-140.5
X101.0Y-140.5
X103.54Y-140.5
X120.0Y-53.19
X120.0Y-55.73
X120.0Y-58.27
X120.0Y-60.81
X140.19Y-140.0
X142.73Y-140.0
X145.27Y-140.0
X147.81Y-140.0
T4
X52.0Y-134.0
X53.0Y-63.5
X53.0Y-75.0
X55.5Y-134.0
X56.5Y-63.5
X56.5Y-75.0
X59.0Y-134.0
X60.0Y-63.5
X60.0Y-75.0
X63.5Y-63.5
X63.5Y-75.0
X64.75Y-134.0
X68.25Y-134.0
X71.75Y-134.0
X77.5Y-134.0
X78.237Y-54.5
X78.237Y-66.0
X81.0Y-134.0
X81.737Y-54.5
X81.737Y-66.0
X84.5Y-134.0
X85.237Y-54.5
X85.237Y-66.0
X88.737Y-54.5
X88.737Y-66.0
X90.25Y-134.0
X93.75Y-134.0
X97.25Y-134.0
X103.0Y-134.0
X106.5Y-134.0
X110.0Y-134.0
X115.75Y-134.0
X119.25Y-134.0
X122.75Y-134.0
X128.5Y-134.0
X132.0Y-134.0
X135.5Y-134.0
X141.25Y-134.0
X144.75Y-134.0
X145.5Y-60.75
X145.5Y-64.25
X145.5Y-67.75
X145.5Y-74.25
X145.5Y-77.75
X145.5Y-83.5
X145.5Y-87.0
X145.5Y-92.75
X145.5Y-96.25
X148.25Y-134.0
M30
