%TF.GenerationSoftware,KiCad,Pcbnew,9.0.6*%
%TF.CreationDate,2026-01-05T12:13:31+01:00*%
%TF.ProjectId,velion_lightboard_pcb,76656c69-6f6e-45f6-9c69-676874626f61,rev?*%
%TF.SameCoordinates,Original*%
%TF.FileFunction,Soldermask,Top*%
%TF.FilePolarity,Negative*%
%FSLAX46Y46*%
G04 Gerber Fmt 4.6, Leading zero omitted, Abs format (unit mm)*
G04 Created by KiCad (PCBNEW 9.0.6) date 2026-01-05 12:13:31*
%MOMM*%
%LPD*%
G01*
G04 APERTURE LIST*
%ADD10C,2.500000*%
%ADD11R,1.700000X1.700000*%
%ADD12C,1.700000*%
%ADD13C,3.200000*%
%ADD14C,1.552000*%
G04 APERTURE END LIST*
D10*
%TO.C,LS2*%
X145500000Y-74250000D03*
X145500000Y-77750000D03*
%TD*%
D11*
%TO.C,J17*%
X147810000Y-140000000D03*
D12*
X145270000Y-140000000D03*
X142730000Y-140000000D03*
X140190000Y-140000000D03*
%TD*%
D13*
%TO.C,TR2*%
X54000000Y-146000000D03*
%TD*%
D11*
%TO.C,J12*%
X120000000Y-60810000D03*
D12*
X120000000Y-58270000D03*
X120000000Y-55730000D03*
X120000000Y-53190000D03*
%TD*%
D10*
%TO.C,J8*%
X84500000Y-134000000D03*
X81000000Y-134000000D03*
X77500000Y-134000000D03*
%TD*%
%TO.C,J7*%
X71750000Y-134000000D03*
X68250000Y-134000000D03*
X64750000Y-134000000D03*
%TD*%
%TO.C,J9*%
X110000000Y-134000000D03*
X106500000Y-134000000D03*
X103000000Y-134000000D03*
%TD*%
D11*
%TO.C,J11*%
X103540000Y-140500000D03*
D12*
X101000000Y-140500000D03*
X98460000Y-140500000D03*
X95920000Y-140500000D03*
%TD*%
D10*
%TO.C,J15*%
X145500000Y-60750000D03*
X145500000Y-64250000D03*
X145500000Y-67750000D03*
%TD*%
%TO.C,J6*%
X78237500Y-66000000D03*
X81737500Y-66000000D03*
X85237500Y-66000000D03*
X88737500Y-66000000D03*
%TD*%
D14*
%TO.C,U1*%
X115620000Y-69130000D03*
X115620000Y-66590000D03*
X115620000Y-64050000D03*
X115620000Y-61510000D03*
X115620000Y-56430000D03*
X115620000Y-58970000D03*
X100380000Y-51350000D03*
X115620000Y-51350000D03*
X100380000Y-53890000D03*
X100380000Y-56430000D03*
X100380000Y-58970000D03*
X100380000Y-61510000D03*
X100380000Y-64050000D03*
X100380000Y-66590000D03*
X100380000Y-69130000D03*
X115620000Y-53890000D03*
%TD*%
D13*
%TO.C,TR1*%
X54000000Y-54000000D03*
%TD*%
D10*
%TO.C,J14*%
X122750000Y-134000000D03*
X119250000Y-134000000D03*
X115750000Y-134000000D03*
%TD*%
%TO.C,LS1*%
X145500000Y-92750000D03*
X145500000Y-96250000D03*
%TD*%
%TO.C,LS3*%
X145500000Y-83500000D03*
X145500000Y-87000000D03*
%TD*%
%TO.C,J5*%
X78237500Y-54500000D03*
X81737500Y-54500000D03*
X85237500Y-54500000D03*
X88737500Y-54500000D03*
%TD*%
D11*
%TO.C,J4*%
X59540000Y-140500000D03*
D12*
X57000000Y-140500000D03*
X54460000Y-140500000D03*
X51920000Y-140500000D03*
%TD*%
D10*
%TO.C,J2*%
X53000000Y-75000000D03*
X56500000Y-75000000D03*
X60000000Y-75000000D03*
X63500000Y-75000000D03*
%TD*%
%TO.C,J10*%
X97250000Y-134000000D03*
X93750000Y-134000000D03*
X90250000Y-134000000D03*
%TD*%
D13*
%TO.C,TR4*%
X146000000Y-146000000D03*
%TD*%
D10*
%TO.C,J1*%
X53000000Y-63500000D03*
X56500000Y-63500000D03*
X60000000Y-63500000D03*
X63500000Y-63500000D03*
%TD*%
%TO.C,J16*%
X148250000Y-134000000D03*
X144750000Y-134000000D03*
X141250000Y-134000000D03*
%TD*%
D13*
%TO.C,TR3*%
X146000000Y-54000000D03*
%TD*%
D10*
%TO.C,J13*%
X135500000Y-134000000D03*
X132000000Y-134000000D03*
X128500000Y-134000000D03*
%TD*%
%TO.C,J3*%
X59000000Y-134000000D03*
X55500000Y-134000000D03*
X52000000Y-134000000D03*
%TD*%
M02*
